<?xml version="1.0" encoding="utf-8"?>
<!-- Svg Vector Icons : http://www.onlinewebfonts.com/icon -->
<!DOCTYPE svg PUBLIC "-//W3C//DTD SVG 1.1//EN" "http://www.w3.org/Graphics/SVG/1.1/DTD/svg11.dtd">
<svg version="1.1" xmlns="http://www.w3.org/2000/svg" xmlns:xlink="http://www.w3.org/1999/xlink" x="0px" y="0px" viewBox="0 0 256 256" enable-background="new 0 0 256 256" xml:space="preserve">
<metadata> Svg Vector Icons : http://www.onlinewebfonts.com/icon </metadata>
<g><g><path fill="#26a69a" d="M128,180.7c-47.2,0-85.3-38.2-85.3-85.3C42.6,48.2,80.8,10,128,10c47.2,0,85.3,38.2,85.3,85.3C213.3,142.5,175.1,180.7,128,180.7z M164.8,84.3h-1h-20.4v0c-2.5,0-4.6-1.4-5.4-3.4c-0.1-0.1-0.1-0.3-0.2-0.5l-6.3-17.6l-0.2-0.4c-0.6-1.3-2-2.2-3.5-2.2c-1.7,0-3.2,1-3.7,2.5l0,0L118,80.4v0c0,0.2-0.1,0.4-0.2,0.6c-0.8,2-2.9,3.3-5.3,3.3v0H92.2h-1.1c-1.9,0.2-3.3,1.7-3.3,3.5c0,1.1,0.6,2.1,1.5,2.8c0,0,0.1,0.1,0.2,0.1l16.6,11.1l0,0c1.5,0.9,2.5,2.5,2.5,4.3c0,0.4,0,0.8-0.1,1.2c-0.1,0.3-0.2,0.6-0.3,0.9l-6.3,17.7c0,0,0,0,0,0.1l0,0.1c-0.1,0.3-0.2,0.6-0.2,1c0,1.9,1.7,3.5,3.8,3.5c0.7,0,1.3-0.2,1.9-0.5l0.7-0.4c0,0,0,0,0,0l16.5-10.9c0.1-0.1,0.2-0.2,0.4-0.2c0.9-0.6,2-0.9,3.2-0.9c1.1,0,2.2,0.3,3.1,0.8c0.2,0.1,0.4,0.2,0.6,0.4l0,0l16.4,10.9l0.5,0.3c0,0,0,0,0,0c0.6,0.3,1.3,0.5,2,0.5c2.1,0,3.8-1.6,3.8-3.5c0-0.4,0-0.7-0.2-1c0,0,0-0.1,0-0.2l-6.3-17.7c-0.1-0.2-0.2-0.5-0.2-0.7c-0.1-0.4-0.2-0.8-0.2-1.3c0-1.7,0.8-3.1,2.2-4.1c0.1-0.1,0.3-0.2,0.4-0.3l16.4-10.9l0,0l0.5-0.3c0.8-0.6,1.3-1.6,1.3-2.6C168.2,86,166.7,84.5,164.8,84.3z M80.5,177c14.3,8.2,29.8,12.3,45.2,12.7L93.4,246l-10.6-15.1l-20.1,2.5l-10-12.5l-20.1,0.2l28.5-59C66.8,167.7,73.2,172.8,80.5,177z M199.2,160.7l24.2,60.2h-15.1l-10,15.1h-20.1L166.1,246l-33.1-57.3c15.8-0.4,31.7-4.6,46.3-12.9C186.7,171.6,193.4,166.4,199.2,160.7z"/></g></g>
</svg>