<svg xmlns="http://www.w3.org/2000/svg" data-name="Layer 1" viewBox="0 0 100 125" x="0px" y="0px"><defs>
<style>
    .cls-1 {
        fill-rule: evenodd;
        fill: #26a69a; /* ваш колір */
    }
</style>
</defs><title>a</title><path class="cls-1" d="M33.876,74.728a1.1,1.1,0,0,1-.362,0H14.672a1.1,1.1,0,0,1-.362,0H12.449v7.066H88.834V74.728H78.574a1.078,1.078,0,0,1-.181.015,2.35,2.35,0,0,0-1.175.3L70.4,78.75a4.456,4.456,0,0,1-5.071-.516l-3.445-2.913a2.327,2.327,0,0,0-1.585-.578,1.07,1.07,0,0,1-.181-.015Zm-1.212-2.062V69.585a2.679,2.679,0,0,0-1.216-2.091,5.6,5.6,0,0,0-3.318-1.007h-.9q-.041,0-.081,0a8,8,0,0,1-7.089,0h0a5.608,5.608,0,0,0-3.318,1.007,2.682,2.682,0,0,0-1.216,2.091v3.081Zm0-6.828V57.579a3.62,3.62,0,0,1,4.258-3.59l50.219,8.6A4.5,4.5,0,0,1,90.9,67.035V82.824a1.032,1.032,0,0,1-1.031,1.031H88.121V93.969A1.03,1.03,0,0,1,87.091,95H82.48a1.03,1.03,0,0,1-1.031-1.031V83.855h-69V93.969A1.031,1.031,0,0,1,11.418,95H6.807a1.031,1.031,0,0,1-1.031-1.031V45.361a1.031,1.031,0,0,1,1.031-1.03h4.611a1.031,1.031,0,0,1,1.031,1.03V72.666H13.46V69.585a4.688,4.688,0,0,1,2.053-3.741,7.1,7.1,0,0,1,2.231-1.091,7.982,7.982,0,1,1,11.888-.192,7.331,7.331,0,0,1,3.032,1.277Zm56.17,6.828H78.416a1.07,1.07,0,0,0-.2.019,4.42,4.42,0,0,0-.94.132,4.477,4.477,0,0,0-1.043.418l-6.817,3.712a2.4,2.4,0,0,1-2.76-.283l-3.446-2.913a4.477,4.477,0,0,0-1.358-.8,4.367,4.367,0,0,0-1.108-.248,1.02,1.02,0,0,0-.272-.037H34.726V57.579a1.586,1.586,0,0,1,.139-.674,1.671,1.671,0,0,1,1.025-.861,1.589,1.589,0,0,1,.686-.026l50.219,8.6a2.429,2.429,0,0,1,2.039,2.42v5.631ZM86.06,83.855H83.51v9.084h2.55V83.855ZM21.174,26.827a1.028,1.028,0,1,1-.458-2l4.9-1.13a1.027,1.027,0,0,1,1.232.773,1.014,1.014,0,0,1-.032.569l-1.22,4.2,2.713-.472a1.029,1.029,0,0,1,.347,2.029l-4.332.753v0a1.04,1.04,0,0,1-.459-.026,1.027,1.027,0,0,1-.7-1.272l1.206-4.157-3.193.736Zm65.583,5.7a1.031,1.031,0,0,1-2.061,0V31.1a1.031,1.031,0,1,1,2.061,0v1.43Zm0,8.5a1.031,1.031,0,1,1-2.061,0v-4.9a1.031,1.031,0,1,1,2.061,0v4.9Zm-8.233.377a1.031,1.031,0,0,1,2.061,0v1.43a1.031,1.031,0,1,1-2.061,0v-1.43Zm0-10.306a1.031,1.031,0,0,1,2.061,0v6.708a1.031,1.031,0,0,1-2.061,0V31.1ZM82.64,5a11.584,11.584,0,1,1-8.19,3.393A11.548,11.548,0,0,1,82.64,5Zm6.734,4.85a9.522,9.522,0,1,0,2.789,6.733A9.494,9.494,0,0,0,89.374,9.85ZM83.721,23.364v-.7a4.1,4.1,0,0,0,1.636-.87,3.463,3.463,0,0,0,1.22-2.61c0-2.845-1.874-3.234-3.743-3.621-1.036-.215-2.069-.429-2.069-1.573a1.424,1.424,0,0,1,.511-1.064,2.239,2.239,0,0,1,2.828,0,1.425,1.425,0,0,1,.512,1.064,1.031,1.031,0,1,0,2.061,0,3.468,3.468,0,0,0-1.22-2.61,4.118,4.118,0,0,0-1.736-.895V9.8a1.031,1.031,0,0,0-2.062,0v.679a4.118,4.118,0,0,0-1.736.895,3.468,3.468,0,0,0-1.22,2.61c0,2.814,1.858,3.2,3.721,3.586,1.045.216,2.092.434,2.092,1.608a1.422,1.422,0,0,1-.511,1.064,2.239,2.239,0,0,1-2.828,0,1.423,1.423,0,0,1-.512-1.064,1.031,1.031,0,0,0-2.061,0,3.467,3.467,0,0,0,1.22,2.61,4.123,4.123,0,0,0,1.835.918v.656a1.031,1.031,0,0,0,2.062,0ZM63.382,42.332a1.031,1.031,0,1,1-2.061,0V40.9a1.031,1.031,0,0,1,2.061,0v1.43Zm0,8.5v-4.9a1.031,1.031,0,1,0-2.061,0v4.9a1.031,1.031,0,1,0,2.061,0Zm-8.233.377v1.43a1.031,1.031,0,1,0,2.061,0v-1.43a1.031,1.031,0,1,0-2.061,0Zm0-10.306V47.61a1.031,1.031,0,0,0,2.061,0V40.9a1.031,1.031,0,0,0-2.061,0Zm4.116-26.1a11.584,11.584,0,1,1-8.19,3.393,11.544,11.544,0,0,1,8.19-3.393ZM66,19.653a9.522,9.522,0,1,0,2.789,6.733A9.494,9.494,0,0,0,66,19.653ZM60.346,33.167v-.7a4.084,4.084,0,0,0,1.636-.869,3.466,3.466,0,0,0,1.221-2.61c0-2.845-1.875-3.234-3.744-3.621-1.036-.215-2.069-.429-2.069-1.573a1.422,1.422,0,0,1,.511-1.064,2.136,2.136,0,0,1,1.414-.5h0a2.136,2.136,0,0,1,1.414.5,1.422,1.422,0,0,1,.511,1.064,1.031,1.031,0,0,0,2.062,0,3.468,3.468,0,0,0-1.22-2.61,4.118,4.118,0,0,0-1.736-.895v-.679a1.031,1.031,0,0,0-2.062,0v.679a4.118,4.118,0,0,0-1.736.895,3.468,3.468,0,0,0-1.22,2.61c0,2.814,1.858,3.2,3.721,3.586,1.045.216,2.092.433,2.092,1.608a1.422,1.422,0,0,1-.511,1.064,2.239,2.239,0,0,1-2.828,0,1.423,1.423,0,0,1-.512-1.064,1.031,1.031,0,1,0-2.061,0,3.468,3.468,0,0,0,1.22,2.61,4.123,4.123,0,0,0,1.835.918v.656a1.031,1.031,0,0,0,2.062,0Zm-30,2.827a1.028,1.028,0,0,1-.459-2.005l4.9-1.13a1.029,1.029,0,0,1,1.2,1.342l-1.22,4.2,2.713-.472a1.029,1.029,0,0,1,.346,2.029l-4.332.753v0a1.012,1.012,0,0,1-.459-.026,1.027,1.027,0,0,1-.7-1.272l1.207-4.157-3.193.737ZM18.856,42.28l3.193-.737L20.842,45.7a1.026,1.026,0,0,0,.7,1.272A1.011,1.011,0,0,0,22,47v0l4.332-.753a1.029,1.029,0,0,0-.346-2.029l-2.714.472,1.221-4.2a1.029,1.029,0,0,0-1.2-1.342l-4.9,1.13a1.028,1.028,0,0,0,.459,2.005Zm8.932,12.865a5.921,5.921,0,1,0,1.734,4.187,5.9,5.9,0,0,0-1.734-4.187Zm-17.4-8.753H7.837V92.939h2.551V46.392Z"/></svg>