<svg width="24" height="24" viewBox="0 0 21 21" fill="none" xmlns="http://www.w3.org/2000/svg">
<path d="M1 9.28235H19.6667M15.5185 1V5.14118M5.14815 1V5.14118M5.53704 12.9214H6.60311M14.0636 12.9214H15.1296M9.8003 12.9214H10.8664M5.53704 16.1143H6.60311M14.0636 16.1143H15.1296M9.8003 16.1143H10.8664M15.5185 3.07059H5.14815C4.04799 3.07059 2.99289 3.50689 2.21496 4.28351C1.43704 5.06013 1 6.11346 1 7.21177V16.2706C1 17.3689 1.43704 18.4222 2.21496 19.1988C2.99289 19.9755 4.04799 20.4118 5.14815 20.4118H15.5185C16.6187 20.4118 17.6738 19.9755 18.4517 19.1988C19.2296 18.4222 19.6667 17.3689 19.6667 16.2706V7.21177C19.6667 6.11346 19.2296 5.06013 18.4517 4.28351C17.6738 3.50689 16.6187 3.07059 15.5185 3.07059Z" stroke="black" stroke-linecap="round" stroke-linejoin="round"/>
</svg>
