<svg xmlns="http://www.w3.org/2000/svg" width="24" height="24" viewBox="0 0 24 24" fill="none">
  <path d="M11.6229 6.00023C11.9213 6.00023 12.2075 5.8817 12.4184 5.67072C12.6294 5.45974 12.7479 5.17359 12.7479 4.87523C12.7479 4.57686 12.6294 4.29071 12.4184 4.07973C12.2075 3.86875 11.9213 3.75023 11.6229 3.75023C11.3246 3.75023 11.0384 3.86875 10.8274 4.07973C10.6165 4.29071 10.4979 4.57686 10.4979 4.87523C10.4979 5.17359 10.6165 5.45974 10.8274 5.67072C11.0384 5.8817 11.3246 6.00023 11.6229 6.00023ZM17.2479 6.37523C17.2479 6.67359 17.1294 6.95974 16.9184 7.17072C16.7075 7.3817 16.4213 7.50023 16.1229 7.50023C15.8246 7.50023 15.5384 7.3817 15.3274 7.17072C15.1165 6.95974 14.9979 6.67359 14.9979 6.37523C14.9979 6.07686 15.1165 5.79071 15.3274 5.57973C15.5384 5.36875 15.8246 5.25023 16.1229 5.25023C16.4213 5.25023 16.7075 5.36875 16.9184 5.57973C17.1294 5.79071 17.2479 6.07686 17.2479 6.37523ZM18.3729 11.2502C18.6713 11.2502 18.9575 11.1317 19.1684 10.9207C19.3794 10.7097 19.4979 10.4236 19.4979 10.1252C19.4979 9.82686 19.3794 9.54071 19.1684 9.32973C18.9575 9.11875 18.6713 9.00023 18.3729 9.00023C18.0746 9.00023 17.7884 9.11875 17.5774 9.32973C17.3665 9.54071 17.2479 9.82686 17.2479 10.1252C17.2479 10.4236 17.3665 10.7097 17.5774 10.9207C17.7884 11.1317 18.0746 11.2502 18.3729 11.2502ZM19.4979 14.6252C19.4979 14.9236 19.3794 15.2097 19.1684 15.4207C18.9575 15.6317 18.6713 15.7502 18.3729 15.7502C18.0746 15.7502 17.7884 15.6317 17.5774 15.4207C17.3665 15.2097 17.2479 14.9236 17.2479 14.6252C17.2479 14.3269 17.3665 14.0407 17.5774 13.8297C17.7884 13.6188 18.0746 13.5002 18.3729 13.5002C18.6713 13.5002 18.9575 13.6188 19.1684 13.8297C19.3794 14.0407 19.4979 14.3269 19.4979 14.6252ZM15.3729 18.7502C15.5207 18.7502 15.667 18.7211 15.8035 18.6646C15.9399 18.6081 16.064 18.5252 16.1684 18.4207C16.2729 18.3163 16.3558 18.1922 16.4123 18.0557C16.4688 17.9193 16.4979 17.773 16.4979 17.6252C16.4979 17.4775 16.4688 17.3312 16.4123 17.1947C16.3558 17.0582 16.2729 16.9342 16.1684 16.8297C16.064 16.7253 15.9399 16.6424 15.8035 16.5859C15.667 16.5293 15.5207 16.5002 15.3729 16.5002C15.0746 16.5002 14.7884 16.6188 14.5774 16.8297C14.3665 17.0407 14.2479 17.3269 14.2479 17.6252C14.2479 17.9236 14.3665 18.2097 14.5774 18.4207C14.7884 18.6317 15.0746 18.7502 15.3729 18.7502ZM11.8547 1.50098C8.61544 1.50098 5.69044 3.15998 3.79744 5.28998C1.92244 7.39973 0.962436 10.0952 1.90744 12.1757C2.16019 12.7307 2.46244 13.1417 2.81644 13.4252C3.17494 13.7117 3.56869 13.8527 3.97519 13.891C4.76119 13.966 5.59519 13.6547 6.33544 13.3547L6.63469 13.2317C7.29469 12.9602 7.88494 12.7172 8.41969 12.6572C8.71519 12.6242 8.96719 12.652 9.18619 12.7487C9.40369 12.8447 9.61969 13.0232 9.82144 13.3465C10.1312 13.8415 10.3187 14.518 10.4769 15.3152C10.5339 15.6025 10.5879 15.9092 10.6434 16.225C10.7357 16.7537 10.8324 17.305 10.9547 17.8232C11.1534 18.6655 11.4362 19.5032 11.9342 20.1887C12.4412 20.8862 13.1597 21.4112 14.1924 21.6362C16.2407 22.0847 18.3414 21.151 19.9044 19.4215C21.4719 17.6875 22.5369 15.1195 22.5369 12.184C22.5369 6.28373 17.7542 1.50098 11.8547 1.50098ZM2.59069 11.866C1.82794 10.189 2.55919 7.81223 4.35769 5.78873C6.13819 3.78623 8.86969 2.25023 11.8547 2.25023C17.3402 2.25023 21.7877 6.69773 21.7877 12.1832C21.7877 14.9402 20.7864 17.3267 19.3479 18.9182C17.9057 20.5135 16.0614 21.277 14.3529 20.9035C13.5062 20.7182 12.9437 20.3012 12.5409 19.747C12.1299 19.1807 11.8757 18.457 11.6844 17.65C11.5659 17.1467 11.4782 16.6427 11.3897 16.135C11.3334 15.8147 11.2772 15.4922 11.2127 15.1682C11.0529 14.3627 10.8452 13.5685 10.4574 12.9482C10.1904 12.5207 9.86644 12.229 9.48994 12.0625C9.11644 11.8975 8.72269 11.8675 8.33644 11.9117C7.68694 11.9845 6.98644 12.274 6.33994 12.5417L6.05344 12.6587C5.29069 12.9685 4.62244 13.1987 4.04569 13.144C3.76697 13.1213 3.50163 13.0149 3.28444 12.8387C3.04594 12.6482 2.80819 12.3437 2.59069 11.8645" fill="#FDFEFF"/>
</svg>