<svg width="37" height="37" viewBox="0 0 37 37" fill="none" xmlns="http://www.w3.org/2000/svg">
<g id="&#208;&#184;&#208;&#186;&#208;&#190;&#208;&#189;&#208;&#186;&#208;&#176; &#208;&#191;&#208;&#176;&#208;&#187;&#208;&#184;&#209;&#130;&#209;&#128;&#208;&#176;">
<path id="Vector" d="M17.921 9.24994C18.381 9.24994 18.8221 9.06721 19.1474 8.74196C19.4726 8.4167 19.6553 7.97555 19.6553 7.51557C19.6553 7.05558 19.4726 6.61444 19.1474 6.28918C18.8221 5.96392 18.381 5.78119 17.921 5.78119C17.461 5.78119 17.0198 5.96392 16.6946 6.28918C16.3693 6.61444 16.1866 7.05558 16.1866 7.51557C16.1866 7.97555 16.3693 8.4167 16.6946 8.74196C17.0198 9.06721 17.461 9.24994 17.921 9.24994ZM26.5928 9.82807C26.5928 10.2881 26.4101 10.7292 26.0849 11.0545C25.7596 11.3797 25.3185 11.5624 24.8585 11.5624C24.3985 11.5624 23.9573 11.3797 23.6321 11.0545C23.3068 10.7292 23.1241 10.2881 23.1241 9.82807C23.1241 9.36808 23.3068 8.92694 23.6321 8.60168C23.9573 8.27642 24.3985 8.09369 24.8585 8.09369C25.3185 8.09369 25.7596 8.27642 26.0849 8.60168C26.4101 8.92694 26.5928 9.36808 26.5928 9.82807ZM28.3272 17.3437C28.7872 17.3437 29.2283 17.161 29.5536 16.8357C29.8789 16.5104 30.0616 16.0693 30.0616 15.6093C30.0616 15.1493 29.8789 14.7082 29.5536 14.3829C29.2283 14.0577 28.7872 13.8749 28.3272 13.8749C27.8672 13.8749 27.4261 14.0577 27.1008 14.3829C26.7756 14.7082 26.5928 15.1493 26.5928 15.6093C26.5928 16.0693 26.7756 16.5104 27.1008 16.8357C27.4261 17.161 27.8672 17.3437 28.3272 17.3437ZM30.0616 22.5468C30.0616 23.0068 29.8789 23.4479 29.5536 23.7732C29.2283 24.0985 28.7872 24.2812 28.3272 24.2812C27.8672 24.2812 27.4261 24.0985 27.1008 23.7732C26.7756 23.4479 26.5928 23.0068 26.5928 22.5468C26.5928 22.0868 26.7756 21.6457 27.1008 21.3204C27.4261 20.9952 27.8672 20.8124 28.3272 20.8124C28.7872 20.8124 29.2283 20.9952 29.5536 21.3204C29.8789 21.6457 30.0616 22.0868 30.0616 22.5468ZM23.7022 28.9062C23.93 28.9062 24.1555 28.8613 24.3659 28.7742C24.5764 28.687 24.7676 28.5593 24.9286 28.3982C25.0897 28.2372 25.2174 28.046 25.3046 27.8355C25.3917 27.6251 25.4366 27.3996 25.4366 27.1718C25.4366 26.9441 25.3917 26.7185 25.3046 26.5081C25.2174 26.2977 25.0897 26.1065 24.9286 25.9454C24.7676 25.7844 24.5764 25.6566 24.3659 25.5695C24.1555 25.4823 23.93 25.4374 23.7022 25.4374C23.2422 25.4374 22.8011 25.6202 22.4758 25.9454C22.1506 26.2707 21.9678 26.7118 21.9678 27.1718C21.9678 27.6318 22.1506 28.0729 22.4758 28.3982C22.8011 28.7235 23.2422 28.9062 23.7022 28.9062ZM18.2783 2.3136C13.2844 2.3136 8.77503 4.87122 5.85666 8.15497C2.96603 11.4075 1.48603 15.5631 2.94291 18.7705C3.33257 19.6261 3.79853 20.2598 4.34428 20.6968C4.89697 21.1385 5.504 21.3559 6.13069 21.4148C7.34244 21.5305 8.62819 21.0506 9.76941 20.5881L10.2308 20.3985C11.2483 19.9799 12.1582 19.6053 12.9826 19.5128C13.4382 19.4619 13.8267 19.5047 14.1643 19.6539C14.4996 19.8019 14.8326 20.0771 15.1437 20.5754C15.6212 21.3385 15.9103 22.3815 16.1542 23.6106C16.2421 24.0534 16.3253 24.5263 16.4109 25.0131C16.5531 25.8283 16.7023 26.6781 16.8908 27.4771C17.1972 28.7755 17.6331 30.0671 18.4008 31.1239C19.1824 32.1992 20.2901 33.0086 21.8823 33.3554C25.04 34.0469 28.2787 32.6073 30.6883 29.941C33.1048 27.2678 34.7467 23.3088 34.7467 18.7832C34.7467 9.68701 27.3733 2.3136 18.2783 2.3136ZM3.99625 18.293C2.82035 15.7076 3.94769 12.0434 6.72038 8.92388C9.46532 5.83669 13.6764 3.46869 18.2783 3.46869C26.7351 3.46869 33.5916 10.3253 33.5916 18.7821C33.5916 23.0324 32.048 26.7116 29.8303 29.1652C27.6069 31.6245 24.7637 32.8016 22.1297 32.2258C20.8243 31.9402 19.9571 31.2973 19.3362 30.4429C18.7026 29.5699 18.3106 28.4541 18.0158 27.21C17.8331 26.4341 17.6978 25.6571 17.5614 24.8743C17.4747 24.3806 17.3879 23.8834 17.2885 23.3839C17.0422 22.1421 16.7219 20.9177 16.1242 19.9614C15.7125 19.3024 15.213 18.8526 14.6326 18.5959C14.0568 18.3415 13.4498 18.2953 12.8543 18.3635C11.853 18.4757 10.773 18.922 9.77635 19.3348L9.33466 19.5151C8.15875 19.9927 7.12853 20.3476 6.23938 20.2632C5.8097 20.2282 5.40062 20.0642 5.06578 19.7926C4.6981 19.4989 4.33157 19.0295 3.99625 18.2907" fill="black"/>
</g>
</svg>
