<svg width="20" height="20" viewBox="0 0 20 20" fill="none" xmlns="http://www.w3.org/2000/svg">
<path d="M6.85703 10.5062C4.37006 8.64617 2.59607 6.60013 1.62708 5.4501C1.32709 5.09409 1.22909 4.83309 1.17009 4.37408C0.968089 2.80204 0.86709 2.01602 1.32809 1.50801C1.78908 1 2.60407 1 4.23406 1H15.7659C17.3959 1 18.2109 1 18.6719 1.50701C19.1329 2.01502 19.0319 2.80104 18.8299 4.37308C18.7699 4.83209 18.6719 5.09309 18.3729 5.4491C17.4029 6.60113 15.6259 8.65117 13.133 10.5142C13.0177 10.6039 12.9224 10.7167 12.8532 10.8453C12.784 10.9739 12.7423 11.1156 12.731 11.2612C12.484 13.9923 12.256 15.4883 12.114 16.2443C11.885 17.4664 10.154 18.2014 9.22601 18.8564C8.67401 19.2464 8.00402 18.7824 7.93302 18.1784C7.66749 15.8768 7.44279 13.5708 7.25903 11.2612C7.24875 11.1142 7.20765 10.971 7.13839 10.8409C7.06913 10.7108 6.97327 10.5968 6.85703 10.5062Z" stroke="black" stroke-linecap="round" stroke-linejoin="round"/>
</svg>
