<svg xmlns="http://www.w3.org/2000/svg" width="18" height="17" viewBox="0 0 18 17" fill="none">
  <path d="M9 16.5C10.0508 16.5013 11.0914 16.295 12.0622 15.8928C13.033 15.4907 13.9147 14.9007 14.6568 14.1568C15.4007 13.4147 15.9907 12.533 16.3928 11.5622C16.795 10.5914 17.0013 9.55076 17 8.5C17.0013 7.44924 16.795 6.40857 16.3928 5.4378C15.9907 4.46702 15.4007 3.58527 14.6568 2.8432C13.9147 2.09927 13.033 1.50929 12.0622 1.10717C11.0914 0.705051 10.0508 0.49871 9 0.500006C7.94924 0.49871 6.90857 0.705051 5.9378 1.10717C4.96702 1.50929 4.08527 2.09927 3.3432 2.8432C2.59927 3.58527 2.00929 4.46702 1.60717 5.4378C1.20505 6.40857 0.99871 7.44924 1.00001 8.5C0.99871 9.55076 1.20505 10.5914 1.60717 11.5622C2.00929 12.533 2.59927 13.4147 3.3432 14.1568C4.08527 14.9007 4.96702 15.4907 5.9378 15.8928C6.90857 16.295 7.94924 16.5013 9 16.5Z" stroke="#DA4D4D" stroke-linejoin="round"/>
  <path d="M9.21526 12.7123C9.159 12.7686 9.08269 12.8002 9.00312 12.8002C8.92356 12.8002 8.84725 12.7686 8.79099 12.7123C8.73473 12.6561 8.70312 12.5798 8.70312 12.5002C8.70312 12.4206 8.73473 12.3443 8.79099 12.2881C8.84725 12.2318 8.92356 12.2002 9.00312 12.2002C9.08269 12.2002 9.159 12.2318 9.21526 12.2881C9.27152 12.3443 9.30312 12.4206 9.30312 12.5002C9.30312 12.5798 9.27152 12.6561 9.21526 12.7123Z" fill="black" stroke="#DA4D4D"/>
  <path d="M9 3.7002V10.1002" stroke="#DA4D4D" stroke-linecap="round" stroke-linejoin="round"/>
</svg>