<svg width="24" height="24" viewBox="0 0 24 24" fill="none" xmlns="http://www.w3.org/2000/svg">
<path d="M8.00061 14.36C8.88744 14.3598 9.74918 14.6409 10.4503 15.1592C11.1515 15.6774 11.6523 16.4034 11.874 17.2229H22.9983C23.2482 17.2225 23.4891 17.3113 23.6738 17.472C23.8584 17.6326 23.9733 17.8535 23.9959 18.091C24.0185 18.3284 23.9471 18.5654 23.7957 18.7552C23.6444 18.9449 23.4241 19.0737 23.1783 19.1162L22.9983 19.1315L11.874 19.1334C11.6531 19.9536 11.1526 20.6804 10.4513 21.1994C9.75011 21.7183 8.88796 22 8.00061 22C7.11327 22 6.25112 21.7183 5.54989 21.1994C4.84866 20.6804 4.34817 19.9536 4.12721 19.1334L1.00169 19.1315C0.751836 19.1319 0.510864 19.043 0.326227 18.8824C0.141589 18.7217 0.0266673 18.5009 0.00409183 18.2634C-0.0184836 18.0259 0.0529234 17.789 0.204251 17.5992C0.355579 17.4094 0.575861 17.2806 0.821717 17.2382L1.00169 17.2229H4.12721C4.34892 16.4034 4.84972 15.6774 5.55089 15.1592C6.25205 14.6409 7.11379 14.3598 8.00061 14.36ZM8.00061 16.2686C7.47026 16.2686 6.96163 16.4697 6.58662 16.8276C6.2116 17.1855 6.00092 17.671 6.00092 18.1772C6.00092 18.6834 6.2116 19.1688 6.58662 19.5267C6.96163 19.8847 7.47026 20.0858 8.00061 20.0858C8.53097 20.0858 9.0396 19.8847 9.41461 19.5267C9.78963 19.1688 10.0003 18.6834 10.0003 18.1772C10.0003 17.671 9.78963 17.1855 9.41461 16.8276C9.0396 16.4697 8.53097 16.2686 8.00061 16.2686ZM15.9994 1C16.8862 0.999785 17.7479 1.2809 18.4491 1.79913C19.1503 2.31737 19.6511 3.04333 19.8728 3.86286H22.9983C23.2482 3.86242 23.4891 3.95129 23.6738 4.11195C23.8584 4.27261 23.9733 4.49343 23.9959 4.73092C24.0185 4.96842 23.9471 5.20537 23.7957 5.39513C23.6444 5.58488 23.4241 5.71368 23.1783 5.75617L22.9983 5.77144L19.8728 5.77335C19.6518 6.59358 19.1513 7.32039 18.4501 7.83936C17.7489 8.35832 16.8867 8.63998 15.9994 8.63998C15.112 8.63998 14.2499 8.35832 13.5487 7.83936C12.8474 7.32039 12.3469 6.59358 12.126 5.77335L1.00169 5.77144C0.751836 5.77188 0.510864 5.68302 0.326227 5.52235C0.141589 5.36169 0.0266673 5.14087 0.00409183 4.90338C-0.0184836 4.66588 0.0529234 4.42893 0.204251 4.23917C0.355579 4.04942 0.575861 3.92062 0.821717 3.87813L1.00169 3.86286H12.126C12.3477 3.04333 12.8485 2.31737 13.5497 1.79913C14.2508 1.2809 15.1126 0.999785 15.9994 1ZM15.9994 2.90858C15.469 2.90858 14.9604 3.10966 14.5854 3.46758C14.2104 3.82551 13.9997 4.31096 13.9997 4.81715C13.9997 5.32334 14.2104 5.80879 14.5854 6.16672C14.9604 6.52464 15.469 6.72573 15.9994 6.72573C16.5297 6.72573 17.0384 6.52464 17.4134 6.16672C17.7884 5.80879 17.9991 5.32334 17.9991 4.81715C17.9991 4.31096 17.7884 3.82551 17.4134 3.46758C17.0384 3.10966 16.5297 2.90858 15.9994 2.90858Z" fill="#161616"/>
</svg>
