<svg xmlns="http://www.w3.org/2000/svg" width="32" height="32" viewBox="0 0 32 32" fill="none">
  <path d="M17.4141 14.6543H8.91406" stroke="#010101" stroke-width="1.5" stroke-linecap="round" stroke-linejoin="round"/>
  <path d="M1.83594 14.6546V7.33957C1.83594 4.10957 4.17344 1.49707 7.06344 1.49707H15.0251C17.9151 1.49707 20.2526 3.5079 20.2526 6.7379" stroke="#010101" stroke-width="1.5" stroke-linecap="round" stroke-linejoin="round"/>
  <path d="M23.7659 16.3165C23.0576 17.0765 22.7176 18.2481 23.0009 19.4514C23.3551 20.9239 24.6584 21.8581 26.0184 21.8581H27.3359V24.154C27.3359 27.6531 24.8001 30.4873 21.6693 30.4873H7.5026C4.37177 30.4873 1.83594 27.6531 1.83594 24.154V13.0706C1.83594 9.57147 4.37177 6.7373 7.5026 6.7373H21.6693C24.7859 6.7373 27.3359 9.5873 27.3359 13.0706V15.3664H25.8059C25.0126 15.3664 24.2901 15.7148 23.7659 16.3165Z" stroke="#010101" stroke-width="1.5" stroke-linecap="round" stroke-linejoin="round"/>
  <path d="M30.1647 16.9812V20.2429C30.1647 21.1296 29.513 21.8579 28.7055 21.8579H25.9713C24.4413 21.8579 23.0389 20.6071 22.9114 18.8971C22.8264 17.8996 23.1663 16.9654 23.7613 16.3163C24.2855 15.7146 25.008 15.3662 25.8013 15.3662H28.7055C29.513 15.3662 30.1647 16.0946 30.1647 16.9812Z" stroke="#010101" stroke-width="1.5" stroke-linecap="round" stroke-linejoin="round"/>
</svg>