<svg xmlns="http://www.w3.org/2000/svg" width="90" height="104" viewBox="0 0 90 104" fill="none">
  <path d="M45.6909 0.634766C44.6938 1.00994 43.7384 1.5029 42.8057 2.01741C40.3169 3.39028 37.8983 4.89788 35.4439 6.33164L23.1104 13.4701C21.2349 14.5573 12.6014 19.2357 11.8268 20.1017C11.4509 20.5221 11.608 25.0036 11.6022 25.7827C7.95873 25.634 4.29155 25.7184 0.645454 25.7302L0.635971 53.9136L0.622787 60.6979C0.614876 62.1438 0.465134 63.7468 0.738266 65.1651C1.2687 66.1089 4.52935 67.5957 5.57493 68.1812C4.73393 69.7194 0.332787 76.4644 0.642296 77.7962C2.7941 79.7209 8.82346 82.7624 11.6201 84.4026L24.8942 92.1062C27.8896 93.8658 30.8735 95.7719 33.9485 97.3802C35.6696 96.5271 37.3176 95.549 38.8928 94.446C39.7844 96.8617 42.7593 101.496 44.1776 103.783C44.7745 103.768 45.297 103.546 45.829 103.293C48.1427 102.198 50.3847 100.677 52.6029 99.3862L68.4452 90.2218C71.6413 88.3528 74.8547 86.1941 78.2086 84.6563C78.3223 82.7412 78.2595 80.8122 78.2281 78.8949C81.9146 79.2771 85.7101 78.6869 89.4009 79.0956C89.259 75.9049 89.4311 72.6144 89.433 69.4132L89.4094 48.9405C89.4005 45.7403 89.5185 42.4791 89.2989 39.2886C88.0113 38.1047 85.9824 37.2843 84.4308 36.4561C85.33 35.1282 89.5611 28.0641 89.4913 26.9634C87.2538 24.8005 81.8158 22.1307 78.98 20.4875C73.4159 17.19 67.8242 13.9406 62.2048 10.7395C60.2571 9.63224 58.2455 8.15564 56.1883 7.30041C54.4389 7.75754 52.7199 9.12208 51.1693 10.0594C49.9576 7.34288 47.5511 2.90783 45.6909 0.634766ZM44.9654 30.9059C49.7773 33.262 54.3363 36.2635 58.9831 38.9411C60.4518 39.7874 61.9188 40.6995 63.4478 41.4299C63.5472 48.6794 63.5017 55.9408 63.4776 63.1911C60.9355 64.4645 45.7088 73.6718 45.0956 73.7345C41.4859 71.6372 37.8366 69.5974 34.247 67.4672C31.7018 65.9571 29.1514 64.2426 26.505 62.9283C26.6416 57.8363 26.5773 52.7289 26.5804 47.6348C26.5815 45.6303 26.475 43.5677 26.5804 41.5699C28.6605 40.3398 44.2894 31.014 44.9654 30.9059ZM56.2841 11.5969C58.5965 12.7371 60.8066 14.2008 63.0432 15.4919L78.5089 24.4754C80.7067 25.7377 82.874 27.083 85.1229 28.2493C83.6415 29.7892 82.4062 32.6866 81.3092 34.5922L64.9206 25.2059C62.2277 23.6528 58.9726 21.4874 56.2052 20.2911C55.1664 20.652 54.1901 21.0967 53.2863 21.7328C50.7248 23.3534 48.0599 24.8032 45.4399 26.3245L34.3134 32.821C32.1326 34.0773 28.4053 35.9679 26.4802 37.3936C26.5388 34.4789 26.6068 31.5675 26.4734 28.6536C28.1496 27.9653 29.7314 26.7767 31.2985 25.8565L48.8324 15.5758C51.0675 14.292 53.2969 12.7638 55.6272 11.6723C55.8357 11.5747 56.0614 11.5221 56.2841 11.5969ZM11.831 29.3102C11.6154 30.9368 11.7024 32.6678 11.7024 34.31L11.7245 42.726C11.7271 45.4646 11.4081 56.6558 11.9233 58.5486C13.2341 59.8608 17.3152 61.8311 19.1042 62.862L33.7977 71.4456C36.3576 72.9213 39.1126 74.2493 41.5766 75.8614C39.0425 77.2548 36.5048 79.1073 33.8515 80.214C27.1262 76.0742 20.1524 72.2609 13.2947 68.3431C11.0749 67.0744 6.1138 64.543 4.44551 63.0456L4.48875 40.2691C4.48032 36.7241 4.71812 32.7825 4.36168 29.2957C6.75339 29.5119 9.43457 29.4773 11.831 29.3102ZM44.4207 5.26817C45.345 7.41475 46.766 9.82062 48.1522 11.697C46.2888 12.9206 44.3295 13.9818 42.4092 15.1099L31.3438 21.6437C28.5888 23.2481 25.75 24.786 23.0867 26.5396C22.6907 28.4577 22.8832 30.6705 22.8811 32.6306L22.8742 42.9041L22.8542 54.6488C22.8505 56.6728 22.7413 58.7652 22.8827 60.7796C22.0643 60.3321 21.3035 59.7557 20.4662 59.3539C18.7771 58.3974 17.1009 57.4187 15.4376 56.418C15.6358 51.4189 15.5314 46.388 15.5335 41.3847C15.556 34.8805 15.545 28.3766 15.5003 21.8728C16.8517 21.3724 18.0934 20.5609 19.3404 19.845C21.569 18.5658 23.7873 17.2685 25.9951 15.9531C32.1548 12.4225 38.2966 8.86091 44.4207 5.26817ZM63.575 67.3175C63.3278 69.4811 63.3167 73.726 63.4592 75.9442C60.032 78.1056 56.4526 80.0484 52.9589 82.1015L33.9459 93.2702C31.869 91.8158 29.5985 90.6337 27.4204 89.338C20.6581 85.3145 13.6644 81.61 6.99699 77.4405C6.35951 77.0966 5.73523 76.7404 5.04503 76.5148C6.25037 74.3507 7.63921 72.2137 8.70483 69.9806C12.2834 72.3384 16.2533 74.2876 19.9653 76.4442C22.86 78.1421 25.7653 79.8212 28.6811 81.4816C30.3241 82.4301 32.16 83.7465 33.9575 84.323C36.8369 83.1594 40.9212 80.4651 43.6904 78.7792C46.7291 76.9288 49.8753 75.2526 52.9354 73.434C56.4004 71.375 59.9369 69.0443 63.575 67.3175ZM56.1941 24.4227L74.1339 34.7189C77.9944 36.9591 81.8538 39.3824 85.8389 41.3863C85.3691 44.0575 85.6211 48.8752 85.6072 51.792L85.5422 75.0047C83.1413 74.9909 80.5884 74.8178 78.2088 75.0588C78.5439 68.9614 78.2972 62.3885 78.2954 56.2481C78.2948 54.0235 78.5694 47.8523 78.1256 46.0045C76.496 44.4403 72.8139 42.6826 70.6842 41.4638L60.182 35.3704L52.6667 30.9821C51.3422 30.2074 50.0214 29.2969 48.6125 28.6958C50.6082 27.6957 54.375 24.8423 56.1941 24.4227ZM67.403 43.8209C69.6703 45.3548 72.345 46.42 74.508 48.0773C74.6387 59.5467 74.6245 71.0157 74.4651 82.4843C68.9796 85.8156 63.3522 88.9659 57.7828 92.1561C54.3848 94.1025 51.0327 96.1265 47.626 98.057C46.9732 98.5002 46.3147 98.9366 45.684 99.4111C44.6828 97.177 43.3967 94.8133 41.981 92.8169C44.6606 91.1152 47.4488 89.5859 50.1938 87.9946L59.92 82.2788C62.2791 80.9025 64.7764 79.6243 67.0181 78.0642C67.5814 73.7934 66.8454 44.5408 67.3026 43.8346L67.403 43.8209Z" fill="white"/>
</svg>