<svg xmlns="http://www.w3.org/2000/svg" width="24" height="24" viewBox="0 0 24 24" fill="none">
  <path fill-rule="evenodd" clip-rule="evenodd" d="M9.25 7C9.25 6.27065 9.53973 5.57118 10.0555 5.05546C10.5712 4.53973 11.2707 4.25 12 4.25C12.7293 4.25 13.4288 4.53973 13.9445 5.05546C14.4603 5.57118 14.75 6.27065 14.75 7C14.75 7.72935 14.4603 8.42882 13.9445 8.94454C13.4288 9.46027 12.7293 9.75 12 9.75C11.2707 9.75 10.5712 9.46027 10.0555 8.94454C9.53973 8.42882 9.25 7.72935 9.25 7ZM12 5.75C11.6685 5.75 11.3505 5.8817 11.1161 6.11612C10.8817 6.35054 10.75 6.66848 10.75 7C10.75 7.33152 10.8817 7.64946 11.1161 7.88388C11.3505 8.1183 11.6685 8.25 12 8.25C12.3315 8.25 12.6495 8.1183 12.8839 7.88388C13.1183 7.64946 13.25 7.33152 13.25 7C13.25 6.66848 13.1183 6.35054 12.8839 6.11612C12.6495 5.8817 12.3315 5.75 12 5.75Z" fill="black"/>
  <path d="M5.30988 9.70737C5.38748 9.52425 5.53463 9.37946 5.71897 9.30482C5.90331 9.23018 6.10974 9.23182 6.29288 9.30937L6.29388 9.31037L6.29988 9.31337L6.32688 9.32437L6.43688 9.36937C6.53621 9.41003 6.67621 9.4647 6.85688 9.53337C7.21688 9.67037 7.72188 9.85337 8.30188 10.0354C9.47988 10.4054 10.8889 10.7504 11.9999 10.7504C13.1109 10.7504 14.5199 10.4054 15.6979 10.0354C16.3648 9.82403 17.0233 9.58685 17.6719 9.32437L17.6999 9.31337L17.7059 9.31037H17.7069C17.8885 9.23986 18.0905 9.24281 18.27 9.31859C18.4495 9.39438 18.5925 9.53705 18.6686 9.7164C18.7448 9.89574 18.7481 10.0977 18.678 10.2795C18.6079 10.4613 18.4698 10.6086 18.2929 10.6904L18.2889 10.6924L18.2789 10.6964L18.2469 10.7104L18.1239 10.7604C17.4743 11.0203 16.8151 11.2558 16.1479 11.4664C15.1599 11.7764 13.9119 12.1054 12.7499 12.2134V13.4534C12.7499 13.8834 12.8739 14.3064 13.1069 14.6694L15.6309 18.5944C15.6842 18.6772 15.7207 18.7698 15.7382 18.8667C15.7558 18.9637 15.754 19.0632 15.7331 19.1595C15.7123 19.2558 15.6726 19.347 15.6164 19.428C15.5603 19.5089 15.4887 19.578 15.4059 19.6314C15.323 19.6847 15.2305 19.7212 15.1335 19.7387C15.0365 19.7563 14.9371 19.7545 14.8408 19.7336C14.7445 19.7127 14.6532 19.6731 14.5723 19.6169C14.4913 19.5608 14.4222 19.4892 14.3689 19.4064L11.9999 15.7204L9.62988 19.4064C9.57843 19.4931 9.51002 19.5685 9.42875 19.6282C9.34748 19.6878 9.25502 19.7305 9.15689 19.7536C9.05876 19.7767 8.95697 19.7798 8.85762 19.7627C8.75826 19.7456 8.66337 19.7086 8.57863 19.654C8.49388 19.5994 8.42102 19.5283 8.36439 19.4449C8.30776 19.3615 8.26853 19.2675 8.24905 19.1686C8.22956 19.0696 8.23022 18.9678 8.25098 18.8692C8.27174 18.7705 8.31218 18.677 8.36988 18.5944L10.8929 14.6694C11.1261 14.3063 11.25 13.8839 11.2499 13.4524V12.2134C10.0879 12.1054 8.83988 11.7774 7.85088 11.4664C7.14178 11.2423 6.44189 10.9901 5.75288 10.7104L5.71988 10.6964L5.71088 10.6924L5.70688 10.6914C5.61618 10.6529 5.53395 10.5968 5.46491 10.5265C5.39586 10.4562 5.34134 10.373 5.30447 10.2816C5.26761 10.1902 5.24911 10.0925 5.25003 9.99396C5.25096 9.89543 5.2713 9.79804 5.30988 9.70737Z" fill="black"/>
  <path fill-rule="evenodd" clip-rule="evenodd" d="M1.25 12C1.25 6.063 6.063 1.25 12 1.25C17.937 1.25 22.75 6.063 22.75 12C22.75 17.937 17.937 22.75 12 22.75C6.063 22.75 1.25 17.937 1.25 12ZM12 2.75C9.54675 2.75 7.19397 3.72455 5.45926 5.45926C3.72455 7.19397 2.75 9.54675 2.75 12C2.75 14.4533 3.72455 16.806 5.45926 18.5407C7.19397 20.2754 9.54675 21.25 12 21.25C14.4533 21.25 16.806 20.2754 18.5407 18.5407C20.2754 16.806 21.25 14.4533 21.25 12C21.25 9.54675 20.2754 7.19397 18.5407 5.45926C16.806 3.72455 14.4533 2.75 12 2.75Z" fill="black"/>
</svg>