<svg xmlns="http://www.w3.org/2000/svg" width="24" height="24" viewBox="0 0 24 24" fill="none">
  <path d="M3.74238 18.555C4.94238 20 7.17438 20 11.6404 20H12.3604C16.8264 20 19.0594 20 20.2594 18.555M3.74238 18.555C2.54238 17.109 2.95438 14.915 3.77738 10.525C4.36238 7.405 4.65438 5.844 5.76538 4.922M20.2594 18.555C21.4594 17.109 21.0474 14.915 20.2244 10.525C19.6394 7.405 19.3464 5.844 18.2354 4.922M18.2354 4.922C17.1254 4 15.5364 4 12.3614 4H11.6394C8.46438 4 6.87638 4 5.76538 4.922" stroke="black" stroke-width="1.5"/>
  <path d="M9.17188 8C9.37848 8.58553 9.76161 9.09257 10.2685 9.45121C10.7753 9.80986 11.381 10.0025 12.0019 10.0025C12.6228 10.0025 13.2284 9.80986 13.7353 9.45121C14.2421 9.09257 14.6253 8.58553 14.8319 8" stroke="black" stroke-width="1.5" stroke-linecap="round"/>
</svg>