<svg xmlns="http://www.w3.org/2000/svg" width="24" height="24" viewBox="0 0 24 24" fill="none">
  <path d="M3.34175 17C6.10175 21.783 12.2178 23.42 17.0018 20.66C18.8772 19.5807 20.3501 17.92 21.1978 15.929C21.8086 14.5013 22.0783 12.9508 21.9852 11.4007C21.8922 9.85056 21.439 8.34346 20.6618 6.99905C19.886 5.65401 18.8074 4.5083 17.5116 3.65287C16.2158 2.79744 14.7384 2.25583 13.1968 2.07105C11.0488 1.80958 8.8742 2.25468 7.00175 3.33905C2.21875 6.10105 0.579752 12.217 3.34175 17Z" stroke="black" stroke-width="1.5"/>
  <path d="M16.9547 20.5728C16.9547 20.5728 16.0147 13.9818 14.0047 10.4998C11.9947 7.01776 7.05469 3.42676 7.05469 3.42676" stroke="black" stroke-width="1.5" stroke-linecap="round"/>
  <path d="M21.8641 12.58C16.4531 11.393 9.05906 16.348 7.57706 20.818M16.4141 3.20898C14.9261 7.62898 7.67406 12.512 2.28906 11.452" stroke="black" stroke-width="1.5" stroke-linecap="round"/>
</svg>