<svg xmlns="http://www.w3.org/2000/svg" width="24" height="24" viewBox="0 0 24 24" fill="none">
  <path fill-rule="evenodd" clip-rule="evenodd" d="M17.1699 3.26784C16.838 2.93625 16.388 2.75 15.9189 2.75C15.4497 2.75 14.9998 2.93625 14.6679 3.26784C14.0999 3.83584 13.8099 4.85784 14.0119 5.58984C14.1019 5.91484 14.1639 6.30484 14.1289 6.69884C14.0939 7.09584 13.9549 7.54284 13.5989 7.89884L7.89886 13.5988C7.54286 13.9548 7.09586 14.0938 6.69886 14.1288C6.32486 14.1552 5.94915 14.1156 5.58886 14.0118C4.85686 13.8098 3.83586 14.0998 3.26886 14.6678C3.09795 14.8305 2.96129 15.0257 2.86695 15.2419C2.7726 15.4582 2.72246 15.6911 2.71949 15.927C2.71652 16.163 2.76078 16.3971 2.84965 16.6157C2.93852 16.8342 3.07021 17.0328 3.23698 17.1997C3.40375 17.3666 3.60222 17.4984 3.82071 17.5875C4.0392 17.6765 4.27329 17.721 4.50921 17.7182C4.74513 17.7154 4.97811 17.6655 5.19444 17.5713C5.41077 17.4771 5.60608 17.3406 5.76886 17.1698C5.83846 17.1001 5.92112 17.0448 6.0121 17.007C6.10309 16.9692 6.20063 16.9497 6.29915 16.9496C6.39768 16.9495 6.49525 16.9688 6.58631 17.0064C6.67737 17.0441 6.76013 17.0992 6.82986 17.1688C6.89959 17.2384 6.95493 17.3211 6.99272 17.4121C7.03051 17.5031 7.05001 17.6006 7.0501 17.6991C7.05019 17.7977 7.03088 17.8952 6.99326 17.9863C6.95565 18.0773 6.90046 18.1601 6.83086 18.2298C6.6628 18.3932 6.52887 18.5884 6.43687 18.8039C6.34487 19.0195 6.29663 19.2512 6.29494 19.4856C6.29326 19.72 6.33817 19.9524 6.42707 20.1692C6.51596 20.3861 6.64707 20.5831 6.81278 20.7489C6.97848 20.9147 7.17547 21.0459 7.39231 21.1349C7.60915 21.2238 7.84151 21.2688 8.07589 21.2673C8.31027 21.2657 8.542 21.2175 8.75761 21.1256C8.97322 21.0337 9.16842 20.8998 9.33186 20.7318C9.89986 20.1638 10.1899 19.1418 9.98786 18.4098C9.88425 18.0499 9.84465 17.6745 9.87086 17.3008C9.90586 16.9038 10.0449 16.4568 10.4009 16.1008L16.1009 10.4008C16.4569 10.0448 16.9039 9.90584 17.3009 9.87084C17.6749 9.84451 18.0506 9.88411 18.4109 9.98784C19.1429 10.1898 20.1639 9.89984 20.7309 9.33184C21.0377 8.99545 21.2031 8.55376 21.1927 8.09856C21.1823 7.64336 20.9969 7.20968 20.675 6.88766C20.3531 6.56564 19.9195 6.38005 19.4643 6.36947C19.0091 6.35888 18.5674 6.52412 18.2309 6.83084C18.0902 6.97167 17.8993 7.05084 17.7002 7.05093C17.5011 7.05103 17.3102 6.97204 17.1694 6.83134C17.0285 6.69064 16.9494 6.49976 16.9493 6.30069C16.9492 6.10162 17.0282 5.91067 17.1689 5.76984C17.5004 5.43795 17.6867 4.98799 17.6867 4.51884C17.6867 4.04969 17.5014 3.59973 17.1699 3.26784ZM19.1719 4.82684C19.2348 4.15716 19.0896 3.48437 18.7563 2.90019C18.4229 2.316 17.9174 1.84883 17.3089 1.56237C16.7003 1.2759 16.0182 1.18408 15.3555 1.29941C14.6928 1.41474 14.0819 1.73161 13.6059 2.20684C12.6869 3.12684 12.2079 4.69584 12.5659 5.98984C12.6239 6.19984 12.6489 6.40384 12.6339 6.56684C12.6199 6.72684 12.5739 6.80084 12.5369 6.83884L6.83686 12.5388C6.79986 12.5758 6.72586 12.6208 6.56586 12.6348C6.37105 12.6454 6.17587 12.6224 5.98886 12.5668C4.69486 12.2088 3.12486 12.6878 2.20586 13.6068C1.73064 14.0828 1.41376 14.6938 1.29843 15.3565C1.1831 16.0192 1.27492 16.7013 1.56139 17.3098C1.84786 17.9184 2.31502 18.4238 2.89921 18.7572C3.4834 19.0906 4.15618 19.2358 4.82586 19.1728C4.76235 19.8427 4.90712 20.5159 5.24039 21.1005C5.57367 21.685 6.07922 22.1525 6.68803 22.4391C7.29685 22.7257 7.97927 22.8174 8.64215 22.7017C9.30503 22.5861 9.91607 22.2687 10.3919 21.7928C11.3109 20.8728 11.7899 19.3038 11.4319 18.0098C11.3763 17.8228 11.3533 17.6276 11.3639 17.4328C11.3779 17.2728 11.4239 17.1988 11.4609 17.1608L17.1609 11.4608C17.1979 11.4238 17.2719 11.3788 17.4319 11.3648C17.5949 11.3498 17.7979 11.3748 18.0089 11.4328C19.3029 11.7908 20.8729 11.3118 21.7909 10.3928C22.2666 9.9171 22.5839 9.30616 22.6996 8.64339C22.8153 7.98063 22.7236 7.29831 22.4372 6.68955C22.1508 6.08079 21.6835 5.57523 21.0991 5.24187C20.5147 4.9085 19.8417 4.76357 19.1719 4.82684Z" fill="black"/>
</svg>