<svg xmlns="http://www.w3.org/2000/svg" width="24" height="24" viewBox="0 0 24 24" fill="none">
  <path d="M22 22H2" stroke="black" stroke-width="1.5" stroke-linecap="round"/>
  <path d="M21.0038 22V6C21.0038 4.114 21.0038 3.172 20.4178 2.586C19.8318 2 18.8898 2 17.0038 2H15.0038C13.1178 2 12.1758 2 11.5898 2.586C11.1178 3.057 11.0258 3.76 11.0078 5" stroke="black" stroke-width="1.5"/>
  <path d="M15 22V9C15 7.114 15 6.172 14.414 5.586C13.828 5 12.886 5 11 5H7C5.114 5 4.172 5 3.586 5.586C3 6.172 3 7.114 3 9V22" stroke="black" stroke-width="1.5"/>
  <path d="M9 22V19M6 8H12M6 11H12M6 14H12" stroke="black" stroke-width="1.5" stroke-linecap="round"/>
</svg>