<svg width="24" height="24" viewBox="0 0 24 24" fill="none" xmlns="http://www.w3.org/2000/svg">
<path d="M17.0008 12C18.0882 11.9998 19.1458 11.6452 20.0135 10.9899C20.8811 10.3345 21.5115 9.41425 21.8091 8.36843C22.1067 7.32262 22.0552 6.20831 21.6626 5.19436C21.2699 4.18041 20.5574 3.32209 19.6331 2.74949C18.7087 2.17688 17.6229 1.9212 16.5402 2.02119C15.4575 2.12118 14.4369 2.57139 13.633 3.30358C12.8292 4.03578 12.2859 5.01006 12.0856 6.07878C11.8853 7.14749 12.0388 8.25238 12.5228 9.22601C12.6141 9.40287 12.6379 9.60688 12.5898 9.80001L12.2918 10.913C12.2623 11.0232 12.2624 11.1392 12.2919 11.2494C12.3214 11.3596 12.3794 11.4601 12.4601 11.5407C12.5408 11.6214 12.6413 11.6794 12.7514 11.709C12.8616 11.7385 12.9777 11.7385 13.0878 11.709L14.2008 11.411C14.394 11.3629 14.598 11.3868 14.7748 11.478C15.4666 11.8216 16.2285 12.0003 17.0008 12Z" stroke="black" stroke-width="1.5"/>
<path d="M14.645 16.5433L15.1 16.0643L14.012 15.0303L13.557 15.5113L14.645 16.5433ZM16.599 15.8613L18.509 16.9623L19.258 15.6613L17.347 14.5613L16.599 15.8613ZM18.878 19.2413L17.458 20.7363L18.545 21.7703L19.965 20.2753L18.878 19.2413ZM16.603 21.2163C15.168 21.3573 11.423 21.2373 7.359 16.9593L6.272 17.9913C10.701 22.6543 14.926 22.8903 16.75 22.7093L16.603 21.2163ZM7.359 16.9593C3.483 12.8783 2.833 9.43527 2.752 7.92527L1.254 8.00627C1.354 9.85627 2.138 13.6393 6.272 17.9913L7.359 16.9593ZM8.735 10.3213L9.021 10.0193L7.934 8.98627L7.647 9.28827L8.735 10.3213ZM9.247 6.25927L7.986 4.47727L6.761 5.34327L8.021 7.12627L9.247 6.25927ZM3.717 4.09127L2.149 5.74527L3.237 6.77827L4.807 5.12527L3.717 4.09127ZM8.191 9.80427C8.01103 9.63082 7.82936 9.45914 7.646 9.28927L7.644 9.29127L7.641 9.29427L7.591 9.35227C7.49308 9.48209 7.41552 9.62608 7.361 9.77927C7.263 10.0543 7.211 10.4183 7.277 10.8723C7.407 11.7643 7.992 12.9633 9.519 14.5723L10.607 13.5383C9.179 12.0353 8.827 11.1103 8.761 10.6543C8.729 10.4343 8.761 10.3193 8.774 10.2823L8.782 10.2633C8.77126 10.2801 8.75887 10.2959 8.745 10.3103L8.74 10.3153L8.737 10.3183L8.736 10.3193C8.736 10.3193 8.734 10.3213 8.191 9.80427ZM9.519 14.5723C11.042 16.1763 12.192 16.8053 13.069 16.9483C13.52 17.0213 13.885 16.9623 14.161 16.8533C14.3141 16.7936 14.4563 16.7091 14.582 16.6033L14.618 16.5693L14.632 16.5553L14.642 16.5453C14.642 16.5433 14.645 16.5433 14.101 16.0263C13.557 15.5103 13.558 15.5093 13.558 15.5083L13.56 15.5073L13.562 15.5043L13.567 15.4993L13.577 15.4893L13.614 15.4573C13.624 15.4519 13.6227 15.4523 13.61 15.4583C13.59 15.4663 13.5 15.4983 13.31 15.4673C12.908 15.4013 12.04 15.0473 10.607 13.5383L9.519 14.5723ZM7.986 4.47727C6.972 3.04327 4.944 2.80027 3.718 4.09227L4.804 5.12527C5.327 4.57527 6.249 4.61827 6.761 5.34327L7.986 4.47727ZM2.752 7.92527C2.73 7.52527 2.905 7.12627 3.237 6.77827L2.149 5.74527C1.613 6.30927 1.205 7.09227 1.254 8.00627L2.752 7.92527ZM17.457 20.7373C17.178 21.0313 16.887 21.1883 16.603 21.2163L16.75 22.7093C17.497 22.6363 18.102 22.2373 18.545 21.7703L17.457 20.7373ZM9.021 10.0203C9.99 9.00027 10.057 7.40727 9.247 6.26027L8.022 7.12627C8.444 7.72327 8.379 8.51827 7.934 8.98627L9.021 10.0203ZM18.509 16.9623C19.33 17.4353 19.491 18.5973 18.878 19.2423L19.965 20.2753C21.27 18.9013 20.89 16.6013 19.258 15.6613L18.509 16.9623ZM15.1 16.0643C15.485 15.6583 16.086 15.5673 16.599 15.8623L17.347 14.5623C16.248 13.9303 14.887 14.1123 14.012 15.0323L15.1 16.0643Z" fill="black"/>
</svg>
