<svg xmlns="http://www.w3.org/2000/svg" width="24" height="24" viewBox="0 0 24 24" fill="none">
  <path fill-rule="evenodd" clip-rule="evenodd" d="M10.561 2.25H13.44C13.553 2.25 13.641 2.25 13.725 2.255C14.2446 2.28658 14.7445 2.46498 15.1667 2.76946C15.5889 3.07393 15.916 3.49197 16.11 3.975C16.142 4.052 16.17 4.135 16.205 4.243L16.237 4.34L16.267 4.425C16.444 4.915 16.88 5.255 17.335 5.3L17.435 5.306C19.112 5.405 20.401 5.684 21.359 6.641C22.107 7.39 22.439 8.339 22.597 9.511C22.75 10.651 22.75 12.106 22.75 13.944V14.056C22.75 15.894 22.75 17.35 22.597 18.489C22.439 19.661 22.107 20.61 21.359 21.359C20.61 22.107 19.661 22.439 18.489 22.597C17.349 22.75 15.894 22.75 14.056 22.75H9.944C8.106 22.75 6.65 22.75 5.511 22.597C4.339 22.439 3.39 22.107 2.641 21.359C1.893 20.61 1.561 19.661 1.403 18.489C1.25 17.349 1.25 15.894 1.25 14.056V13.944C1.25 12.106 1.25 10.65 1.403 9.511C1.561 8.339 1.893 7.39 2.641 6.641C3.599 5.684 4.889 5.405 6.565 5.306L6.665 5.3C7.12 5.256 7.557 4.915 7.735 4.425L7.763 4.34L7.795 4.243C7.831 4.136 7.859 4.052 7.89 3.974C8.08415 3.49116 8.41132 3.07333 8.83351 2.76904C9.25569 2.46475 9.75554 2.2865 10.275 2.255C10.359 2.25 10.447 2.25 10.561 2.25ZM6.641 6.804C6.68633 6.80267 6.73067 6.8 6.774 6.796C7.647 6.75 8.697 6.75 10 6.75H14C15.303 6.75 16.353 6.75 17.226 6.796C17.27 6.8 17.314 6.80267 17.358 6.804C18.962 6.899 19.756 7.16 20.298 7.702C20.499 7.90379 20.6607 8.14115 20.775 8.402C18.948 9.588 17.747 10.352 16.737 10.858C16.7023 10.6742 16.6002 10.5099 16.4506 10.3975C16.3011 10.2851 16.1149 10.2326 15.9287 10.2504C15.7425 10.2682 15.5696 10.3549 15.444 10.4936C15.3185 10.6323 15.2493 10.8129 15.25 11V11.458C13.13 12.098 10.87 12.098 8.75 11.458V11C8.75075 10.8129 8.68155 10.6323 8.55598 10.4936C8.43041 10.3549 8.25754 10.2682 8.0713 10.2504C7.88506 10.2326 7.6989 10.2851 7.54935 10.3975C7.39981 10.5099 7.29767 10.6742 7.263 10.858C6.253 10.353 5.053 9.588 3.225 8.401C3.33929 8.14015 3.50103 7.90279 3.702 7.701C4.244 7.16 5.038 6.899 6.642 6.804M2.862 9.953C2.752 10.949 2.751 12.239 2.751 14C2.751 15.907 2.753 17.262 2.891 18.29C3.026 19.295 3.28 19.875 3.703 20.298C4.126 20.721 4.706 20.975 5.712 21.11C6.74 21.248 8.094 21.25 10.001 21.25H14.001C15.908 21.25 17.263 21.248 18.291 21.11C19.296 20.975 19.876 20.721 20.299 20.298C20.722 19.875 20.976 19.295 21.111 18.289C21.249 17.262 21.251 15.907 21.251 14C21.251 12.24 21.25 10.95 21.141 9.953C19.254 11.176 17.96 11.985 16.751 12.505V13C16.7531 13.1989 16.6761 13.3905 16.537 13.5327C16.3978 13.6748 16.2079 13.7559 16.009 13.758C15.8101 13.7601 15.6185 13.6831 15.4763 13.544C15.3342 13.4048 15.2531 13.2149 15.251 13.016C13.1207 13.5776 10.8813 13.5776 8.751 13.016C8.74888 13.215 8.66777 13.4051 8.52553 13.5443C8.38328 13.6836 8.19155 13.7606 7.9925 13.7585C7.79345 13.7564 7.60341 13.6753 7.46416 13.533C7.32491 13.3908 7.24788 13.199 7.25 13V12.505C6.042 11.985 4.747 11.175 2.86 9.953M14.991 5.251L14.02 5.25H9.009C9.07792 5.11202 9.13609 4.96893 9.183 4.822L9.186 4.814L9.212 4.737C9.23351 4.66872 9.25685 4.60103 9.282 4.534C9.37015 4.31442 9.51881 4.12437 9.7107 3.98594C9.90259 3.84751 10.1298 3.76639 10.366 3.752C10.398 3.75 10.438 3.75 10.581 3.75H13.419C13.562 3.75 13.602 3.75 13.634 3.752C14.116 3.782 14.538 4.086 14.719 4.534C14.731 4.564 14.743 4.601 14.789 4.737L14.817 4.822M14.856 4.935C14.8947 5.04367 14.939 5.149 14.991 5.251L14.856 4.935Z" fill="black"/>
</svg>