<svg xmlns="http://www.w3.org/2000/svg" width="24" height="24" viewBox="0 0 24 24" fill="none">
  <path d="M3.99731 11.0005H15.9973C17.8833 11.0005 18.8253 11.0005 19.4113 11.5865C19.9973 12.1725 19.9973 13.1145 19.9973 15.0005V16.0005C19.9973 18.8285 19.9973 20.2435 19.1183 21.1215C18.2403 22.0005 16.8253 22.0005 13.9973 22.0005H9.99731C7.16931 22.0005 5.75431 22.0005 4.87631 21.1215C3.99731 20.2435 3.99731 18.8285 3.99731 16.0005V11.0005ZM3.99731 11.0005C3.51331 9.19449 3.27331 8.29149 3.48131 7.51549C3.61745 7.00682 3.88508 6.54295 4.25731 6.17049C4.82631 5.60249 5.72831 5.36049 7.53431 4.87649L14.5373 2.99949C15.2103 2.81949 15.5473 2.72949 15.8423 2.70949C16.4343 2.67088 17.0244 2.80863 17.5381 3.10535C18.0518 3.40206 18.466 3.84442 18.7283 4.37649C18.8593 4.64149 18.9493 4.97849 19.1303 5.65149C19.1903 5.87649 19.2203 5.98849 19.2263 6.08649C19.2392 6.28374 19.1934 6.4804 19.0946 6.65162C18.9959 6.82284 18.8485 6.96095 18.6713 7.04849C18.5823 7.09249 18.4713 7.12249 18.2463 7.18249L3.99731 11.0005Z" stroke="black" stroke-width="1.5"/>
  <path d="M14.6972 2.94141L14.0602 8.28941M8.41925 4.62441L7.78125 9.97141" stroke="black" stroke-width="1.5" stroke-linecap="round"/>
</svg>