<svg xmlns="http://www.w3.org/2000/svg" width="24" height="24" viewBox="0 0 24 24" fill="none">
  <path d="M11 10.5C11 9.04131 11.5795 7.64236 12.6109 6.61091C13.6424 5.57946 15.0413 5 16.5 5C17.9587 5 19.3576 5.57946 20.3891 6.61091C21.4205 7.64236 22 9.04131 22 10.5C22 11.9587 21.4205 13.3576 20.3891 14.3891C19.3576 15.4205 17.9587 16 16.5 16C15.0413 16 13.6424 15.4205 12.6109 14.3891C11.5795 13.3576 11 11.9587 11 10.5Z" stroke="black" stroke-width="1.5"/>
  <path d="M16.5 20V16M16.5 20H19.5M16.5 20H13.5" stroke="black" stroke-width="1.5" stroke-linecap="round" stroke-linejoin="round"/>
  <path d="M2 11V10.25C1.80109 10.25 1.61032 10.329 1.46967 10.4697C1.32902 10.6103 1.25 10.8011 1.25 11H2ZM8 11H8.75C8.75 10.8011 8.67098 10.6103 8.53033 10.4697C8.38968 10.329 8.19891 10.25 8 10.25V11ZM2 11.75H8V10.25H2V11.75ZM7.25 11V17H8.75V11H7.25ZM2.75 17V11H1.25V17H2.75ZM5 19.25C4.40326 19.25 3.83097 19.0129 3.40901 18.591C2.98705 18.169 2.75 17.5967 2.75 17H1.25C1.25 17.9946 1.64509 18.9484 2.34835 19.6517C3.05161 20.3549 4.00544 20.75 5 20.75V19.25ZM7.25 17C7.25 17.5967 7.01295 18.169 6.59099 18.591C6.16903 19.0129 5.59674 19.25 5 19.25V20.75C5.49246 20.75 5.98009 20.653 6.43506 20.4645C6.89003 20.2761 7.30343 19.9999 7.65165 19.6517C7.99987 19.3034 8.27609 18.89 8.46455 18.4351C8.653 17.9801 8.75 17.4925 8.75 17H7.25Z" fill="black"/>
  <path d="M3 10.9996H7V5.61763C6.99991 5.44724 6.95628 5.2797 6.87326 5.1309C6.79023 4.98211 6.67056 4.85699 6.52561 4.76744C6.38065 4.67788 6.21521 4.62684 6.04499 4.61918C5.87478 4.61151 5.70542 4.64747 5.553 4.72363L3.553 5.72363C3.38692 5.80662 3.24722 5.93421 3.14955 6.0921C3.05188 6.25 3.0001 6.43197 3 6.61763V10.9996Z" stroke="black" stroke-width="1.5"/>
</svg>