<svg xmlns="http://www.w3.org/2000/svg" width="24" height="24" viewBox="0 0 24 24" fill="none">
  <path d="M17.0018 17H18.0018C19.0626 17 20.0801 16.5786 20.8302 15.8284C21.5803 15.0783 22.0018 14.0609 22.0018 13C22.0018 11.9391 21.5803 10.9217 20.8302 10.1716C20.0801 9.42143 19.0626 9 18.0018 9H17.0018M16.0018 18H4.00177M3.28577 11.266C3.15277 9.266 3.08577 8.267 3.67877 7.634C4.27177 7 5.27377 7 7.27777 7H12.7268C14.7298 7 15.7318 7 16.3248 7.634C16.9178 8.267 16.8508 9.267 16.7178 11.266L16.3748 16.399C16.1978 19.054 16.1098 20.381 15.2448 21.191C14.3798 22.001 13.0488 22 10.3888 22H9.61477C6.95477 22 5.62477 22 4.75877 21.19C3.89377 20.381 3.80577 19.054 3.62877 16.4L3.28577 11.266Z" stroke="black" stroke-width="1.5"/>
  <path d="M6.05037 5.06148L6.46137 4.48648C6.51542 4.41086 6.55403 4.32533 6.57499 4.23478C6.59595 4.14423 6.59885 4.05044 6.58353 3.95876C6.5682 3.86709 6.53495 3.77934 6.48568 3.70053C6.4364 3.62172 6.37207 3.5534 6.29637 3.49948C6.14376 3.39059 6.04064 3.22555 6.0097 3.04064C5.97876 2.85574 6.02252 2.66612 6.13137 2.51348L6.54137 1.93848M14.0514 5.06148L14.4614 4.48648C14.5154 4.41086 14.554 4.32533 14.575 4.23478C14.5959 4.14423 14.5989 4.05044 14.5835 3.95876C14.5682 3.86709 14.5349 3.77934 14.4857 3.70053C14.4364 3.62172 14.3721 3.5534 14.2964 3.49948C14.1438 3.39059 14.0406 3.22555 14.0097 3.04064C13.9788 2.85574 14.0225 2.66612 14.1314 2.51348L14.5414 1.93848M10.0514 5.06148L10.4614 4.48648C10.5154 4.41086 10.554 4.32533 10.575 4.23478C10.5959 4.14423 10.5989 4.05044 10.5835 3.95876C10.5682 3.86709 10.5349 3.77934 10.4857 3.70053C10.4364 3.62172 10.3721 3.5534 10.2964 3.49948C10.1438 3.39059 10.0406 3.22555 10.0097 3.04064C9.97876 2.85574 10.0225 2.66612 10.1314 2.51348L10.5414 1.93848" stroke="black" stroke-width="1.5" stroke-linecap="round"/>
</svg>