<svg xmlns="http://www.w3.org/2000/svg" width="24" height="24" viewBox="0 0 24 24" fill="none">
  <path d="M8.04386 11.4843L8.13386 10.7393C7.93902 10.716 7.74278 10.7699 7.58724 10.8895C7.4317 11.0092 7.32925 11.185 7.30186 11.3793L8.04386 11.4843ZM5.83886 11.2183L6.58186 11.3223C6.5956 11.2236 6.58954 11.1232 6.56402 11.0269C6.53851 10.9306 6.49405 10.8403 6.43326 10.7613C6.37247 10.6824 6.29655 10.6164 6.20995 10.5671C6.12334 10.5178 6.02779 10.4863 5.92886 10.4743L5.83886 11.2183ZM7.16086 17.7823L6.41786 17.6773C6.40384 17.7762 6.40969 17.8768 6.43507 17.9734C6.46045 18.0699 6.50485 18.1604 6.56567 18.2396C6.62649 18.3188 6.70251 18.385 6.78926 18.4344C6.87601 18.4838 6.97175 18.5154 7.07086 18.5273L7.16086 17.7823ZM4.95586 17.5163L4.86586 18.2613C5.0607 18.2847 5.25694 18.2308 5.41249 18.1111C5.56803 17.9915 5.67048 17.8156 5.69786 17.6213L4.95586 17.5163ZM5.95486 7.83433L8.89487 8.18733L9.07486 6.69833L6.13386 6.34433L5.95486 7.83433ZM10.1609 9.64733C10.1326 9.8782 10.0962 10.108 10.0519 10.3363C10.0409 10.4087 10.0186 10.4789 9.98586 10.5443L11.2609 11.3343C11.3979 11.1143 11.4689 10.8823 11.5189 10.6523C11.5659 10.4313 11.6039 10.1623 11.6469 9.85533L10.1609 9.64733ZM7.95486 12.2283C8.29286 12.2693 8.65886 12.3133 8.97786 12.3383C9.25786 12.3583 9.62786 12.3783 9.90586 12.3083L9.54286 10.8533C9.55886 10.8493 9.53286 10.8563 9.43286 10.8573C9.3442 10.8573 9.23053 10.8523 9.09186 10.8423C8.81186 10.8203 8.48186 10.7813 8.13386 10.7393L7.95486 12.2283ZM9.98586 10.5443C9.88389 10.7009 9.72503 10.8117 9.54286 10.8533L9.90586 12.3083C10.4668 12.1725 10.9529 11.8235 11.2609 11.3353L9.98586 10.5443ZM8.89487 8.18733C9.24586 8.23033 9.47586 8.25733 9.65086 8.29033C9.74223 8.30299 9.83141 8.32823 9.91586 8.36533L10.6209 7.04133C10.4015 6.93077 10.1664 6.85455 9.92386 6.81533C9.69186 6.77233 9.40886 6.73833 9.07486 6.69833L8.89487 8.18733ZM11.6459 9.85533C11.6899 9.54933 11.7279 9.27933 11.7429 9.05333C11.7648 8.80924 11.7438 8.56319 11.6809 8.32633L10.2409 8.74533C10.2439 8.75833 10.2559 8.80533 10.2459 8.95533C10.2359 9.11233 10.2069 9.31833 10.1609 9.64733L11.6459 9.85533ZM9.91586 8.36533C9.99277 8.40362 10.0612 8.45699 10.117 8.52228C10.1728 8.58756 10.215 8.66342 10.2409 8.74533L11.6809 8.32533C11.5989 8.05134 11.4629 7.79655 11.2809 7.57601C11.0988 7.35548 10.8744 7.17367 10.6209 7.04133L9.91586 8.36533ZM4.29586 8.97033C4.34086 8.64233 4.37086 8.43633 4.40386 8.28133C4.41486 8.20897 4.43713 8.13879 4.46986 8.07333L3.19586 7.28233C3.07075 7.49288 2.98344 7.72469 2.93786 7.96533C2.88986 8.18533 2.85286 8.45533 2.80986 8.76233L4.29586 8.97033ZM6.13386 6.34433C5.80086 6.30433 5.51686 6.27033 5.28086 6.25633C5.03625 6.23657 4.79006 6.25445 4.55086 6.30933L4.91386 7.76433C5.00692 7.74769 5.10186 7.74432 5.19586 7.75433C5.37286 7.76433 5.60286 7.79133 5.95486 7.83433L6.13386 6.34433ZM4.46986 8.07433C4.57189 7.91716 4.73116 7.80595 4.91386 7.76433L4.54986 6.31033C3.99286 6.45033 3.49986 6.79133 3.19586 7.28233L4.46986 8.07433ZM2.80986 8.76233C2.76686 9.06833 2.72786 9.33833 2.71386 9.56433C2.69786 9.79733 2.70286 10.0413 2.77586 10.2923L4.21586 9.87133C4.20341 9.80236 4.20139 9.73191 4.20986 9.66233C4.21986 9.50533 4.25086 9.29933 4.29586 8.97033L2.80986 8.76233ZM5.92886 10.4743C5.61001 10.4387 5.29194 10.3963 4.97486 10.3473C4.86229 10.3298 4.75053 10.3074 4.63986 10.2803C4.54486 10.2563 4.52386 10.2433 4.54086 10.2523L3.83586 11.5763C4.08986 11.7123 4.45486 11.7813 4.72986 11.8263C5.04486 11.8783 5.41086 11.9223 5.74986 11.9633L5.92886 10.4743ZM2.77586 10.2923C2.85767 10.5665 2.99363 10.8205 3.1757 11.0412C3.35777 11.2619 3.58225 11.4439 3.83586 11.5763L4.54086 10.2523C4.46396 10.214 4.39555 10.1607 4.33972 10.0954C4.28388 10.0301 4.24176 9.95324 4.21586 9.87133L2.77586 10.2923ZM7.04586 21.1663L4.10486 20.8133L3.92486 22.3023L6.86586 22.6563L7.04586 21.1663ZM8.70486 20.0303C8.65886 20.3583 8.62886 20.5643 8.59486 20.7193C8.58419 20.7916 8.56226 20.8618 8.52986 20.9273L9.80386 21.7173C9.92898 21.5068 10.0163 21.276 10.0619 21.0353C10.1099 20.8153 10.1469 20.5453 10.1899 20.2383L8.70486 20.0303ZM6.86586 22.6563C7.19886 22.6963 7.48286 22.7303 7.71886 22.7443C7.96086 22.7573 8.20386 22.7533 8.44986 22.6913L8.08587 21.2363C7.99281 21.253 7.89786 21.2563 7.80386 21.2463C7.62686 21.2363 7.39786 21.2093 7.04586 21.1663L6.86586 22.6563ZM8.52986 20.9273C8.42784 21.0845 8.26857 21.1947 8.08587 21.2363L8.44986 22.6913C9.01048 22.5552 9.4961 22.2063 9.80386 21.7183L8.52986 20.9273ZM7.07086 18.5263C7.41886 18.5683 7.74986 18.6083 8.02486 18.6543C8.16286 18.6763 8.27453 18.6983 8.35986 18.7203C8.45486 18.7443 8.47686 18.7573 8.45986 18.7483L9.16386 17.4243C8.90986 17.2883 8.54487 17.2193 8.26987 17.1743C7.95486 17.1223 7.58886 17.0783 7.24986 17.0373L7.07086 18.5263ZM10.1909 20.2383C10.2329 19.9323 10.2709 19.6623 10.2859 19.4363C10.3078 19.1922 10.2868 18.9462 10.2239 18.7093L8.78386 19.1283C8.79808 19.1971 8.80011 19.2689 8.78986 19.3383C8.77986 19.4953 8.74986 19.7013 8.70486 20.0303L10.1909 20.2383ZM8.45886 18.7483C8.53577 18.7866 8.60418 18.84 8.66001 18.9053C8.71585 18.9706 8.75797 19.0464 8.78386 19.1283L10.2239 18.7093C10.1419 18.4353 10.0059 18.1796 9.82386 17.959C9.6418 17.7385 9.41738 17.5567 9.16386 17.4243L8.45886 18.7483ZM2.83886 19.3543C2.88486 19.0263 2.91386 18.8193 2.94786 18.6643C2.95886 18.592 2.98113 18.5218 3.01386 18.4563L1.73886 17.6653C1.61375 17.8759 1.52644 18.1077 1.48086 18.3483C1.43386 18.5693 1.39586 18.8383 1.35286 19.1453L2.83886 19.3543ZM5.04486 16.7723C4.70496 16.7289 4.36422 16.6923 4.02286 16.6623C3.74186 16.6423 3.37286 16.6223 3.09286 16.6923L3.45686 18.1473C3.44086 18.1513 3.46686 18.1443 3.56686 18.1433C3.65553 18.1433 3.7692 18.1483 3.90786 18.1583C4.18786 18.1793 4.51786 18.2193 4.86586 18.2613L5.04486 16.7723ZM3.01386 18.4563C3.11584 18.2997 3.2747 18.1889 3.45686 18.1473L3.09386 16.6923C2.53586 16.8323 2.04386 17.1743 1.73886 17.6653L3.01386 18.4563ZM1.35386 19.1463C1.30986 19.4513 1.27186 19.7213 1.25686 19.9463C1.24186 20.1803 1.24686 20.4243 1.31886 20.6753L2.75886 20.2553C2.74664 20.186 2.74496 20.1152 2.75386 20.0453C2.76386 19.8883 2.79286 19.6833 2.83886 19.3543L1.35386 19.1463ZM4.10486 20.8133C3.75386 20.7703 3.52386 20.7433 3.34886 20.7103C3.25749 20.6977 3.16832 20.6724 3.08386 20.6353L2.37986 21.9603C2.60486 22.0803 2.83986 22.1423 3.07686 22.1863C3.30886 22.2293 3.59286 22.2633 3.92686 22.3033L4.10486 20.8133ZM1.31886 20.6753C1.40067 20.9495 1.53663 21.2035 1.7187 21.4242C1.90077 21.6449 2.12525 21.8269 2.37886 21.9593L3.08386 20.6353C3.00686 20.5969 2.93839 20.5444 2.88255 20.4789C2.82671 20.4135 2.78464 20.3374 2.75886 20.2553L1.31886 20.6753ZM5.69786 17.6213L6.58186 11.3233L5.09586 11.1143L4.21286 17.4123L5.69786 17.6213ZM7.30186 11.3803L6.41786 17.6773L7.90386 17.8863L8.78686 11.5883L7.30186 11.3803ZM18.8569 12.2563L18.1339 12.4563C18.1864 12.6458 18.3111 12.807 18.4813 12.9054C18.6515 13.0038 18.8535 13.0314 19.0439 12.9823L18.8569 12.2563ZM16.8229 12.7803L17.0109 13.5063C17.1073 13.4814 17.1979 13.4375 17.2772 13.3772C17.3565 13.3169 17.423 13.2414 17.4728 13.1551C17.5226 13.0688 17.5548 12.9734 17.5673 12.8745C17.5798 12.7757 17.5725 12.6753 17.5459 12.5793L16.8229 12.7803ZM17.1769 6.22033L16.9889 5.49433C16.8924 5.51926 16.8018 5.56316 16.7225 5.62347C16.6432 5.68378 16.5767 5.75929 16.5269 5.8456C16.4771 5.9319 16.445 6.02726 16.4324 6.12611C16.4199 6.22497 16.4272 6.32533 16.4539 6.42133L17.1769 6.22033ZM15.1429 6.74433L15.8659 6.54433C15.8134 6.35489 15.6886 6.19363 15.5184 6.09526C15.3482 5.99688 15.1462 5.96926 14.9559 6.01833L15.1429 6.74433ZM17.7609 17.5093L20.4729 16.8103L20.0979 15.3573L17.3869 16.0563L17.7609 17.5093ZM22.4969 13.4003C22.4149 13.1063 22.3439 12.8483 22.2689 12.6403C22.1951 12.4123 22.0828 12.1985 21.9369 12.0083L20.7639 12.9433C20.8048 13.0044 20.8358 13.0716 20.8559 13.1423C20.9089 13.2903 20.9639 13.4883 21.0519 13.8023L22.4969 13.4003ZM19.0439 12.9823C19.3639 12.8993 19.6679 12.8213 19.9259 12.7673C20.0539 12.7407 20.1582 12.7223 20.2389 12.7123C20.3289 12.7013 20.3489 12.7063 20.3259 12.7023L20.5139 11.2153C20.2309 11.1793 19.8769 11.2453 19.6169 11.2993C19.3199 11.3613 18.9809 11.4493 18.6689 11.5293L19.0439 12.9823ZM21.9369 12.0083C21.5835 11.5692 21.0732 11.2848 20.5139 11.2153L20.3259 12.7033C20.4973 12.7239 20.6543 12.8099 20.7639 12.9433L21.9369 12.0083ZM20.4729 16.8103C20.7789 16.7303 21.0439 16.6633 21.2589 16.5923C21.4789 16.5193 21.6989 16.4283 21.8999 16.2793L21.0089 15.0723C20.9407 15.1149 20.8666 15.1469 20.7889 15.1673C20.6319 15.2193 20.4239 15.2733 20.0989 15.3573L20.4729 16.8103ZM21.0519 13.8023C21.1389 14.1173 21.1939 14.3153 21.2249 14.4683C21.2549 14.6153 21.2499 14.6643 21.2489 14.6783L22.7349 14.8813C22.7622 14.6435 22.7487 14.4026 22.6949 14.1693C22.6509 13.9523 22.5779 13.6943 22.4969 13.4003L21.0519 13.8023ZM21.8999 16.2793C22.1251 16.1136 22.315 15.9046 22.4584 15.6646C22.6018 15.4245 22.6958 15.1582 22.7349 14.8813L21.2489 14.6783C21.2368 14.7566 21.2094 14.8317 21.1682 14.8993C21.1271 14.9669 21.0729 15.0257 21.0089 15.0723L21.8999 16.2793ZM14.2729 15.5513C14.3549 15.8453 14.4259 16.1023 14.5009 16.3113C14.5779 16.5283 14.6749 16.7443 14.8329 16.9423L16.0059 16.0073C15.965 15.9466 15.934 15.8797 15.9139 15.8093C15.8417 15.5914 15.7763 15.3713 15.7179 15.1493L14.2729 15.5513ZM17.3869 16.0563C17.0609 16.1403 16.8519 16.1943 16.6899 16.2253C16.6096 16.2457 16.5266 16.2534 16.4439 16.2483L16.2559 17.7363C16.5039 17.7673 16.7389 17.7423 16.9679 17.6983C17.1909 17.6573 17.4549 17.5883 17.7609 17.5083L17.3869 16.0563ZM14.8329 16.9423C15.1839 17.3833 15.6979 17.6653 16.2559 17.7363L16.4439 16.2483C16.2724 16.2278 16.1155 16.1408 16.0059 16.0073L14.8329 16.9423ZM15.7179 15.1493C15.6533 14.9292 15.5956 14.7071 15.5449 14.4833C15.5263 14.415 15.5182 14.3441 15.5209 14.2733L14.0349 14.0693C14.0009 14.3213 14.0289 14.5583 14.0749 14.7823C14.1189 14.9993 14.1909 15.2573 14.2729 15.5513L15.7179 15.1493ZM16.6359 12.0543C16.3249 12.1343 15.9859 12.2223 15.6959 12.3113C15.5534 12.3537 15.413 12.4024 15.2749 12.4573C15.1313 12.5114 14.9951 12.5837 14.8699 12.6723L15.7599 13.8793C15.7399 13.8953 15.7519 13.8823 15.8369 13.8473C15.9109 13.8173 16.0105 13.7833 16.1359 13.7453C16.3859 13.6683 16.6899 13.5893 17.0109 13.5063L16.6359 12.0543ZM15.5209 14.2733C15.5329 14.1951 15.5603 14.12 15.6015 14.0523C15.6427 13.9847 15.6958 13.9259 15.7599 13.8793L14.8699 12.6723C14.6447 12.8379 14.4549 13.0468 14.3115 13.2867C14.1681 13.5265 14.0741 13.7926 14.0349 14.0693L15.5209 14.2733ZM16.2399 1.49033L13.5269 2.19033L13.9029 3.64233L16.6139 2.94233L16.2399 1.49033ZM19.7279 3.44833C19.6459 3.15433 19.5749 2.89733 19.4999 2.68833C19.426 2.46061 19.3137 2.2472 19.1679 2.05733L17.9949 2.99233C18.0357 3.05311 18.0667 3.11993 18.0869 3.19033C18.1399 3.33833 18.1949 3.53633 18.2829 3.85033L19.7279 3.44833ZM16.6139 2.94333C16.9399 2.85933 17.1489 2.80533 17.3109 2.77433C17.3912 2.75397 17.4742 2.74621 17.5569 2.75133L17.7449 1.26333C17.5071 1.23858 17.2668 1.25107 17.0329 1.30033C16.8099 1.34233 16.5459 1.41133 16.2399 1.49033L16.6139 2.94333ZM19.1679 2.05733C18.8147 1.61786 18.3043 1.33309 17.7449 1.26333L17.5569 2.75133C17.7283 2.77189 17.8853 2.85787 17.9949 2.99133L19.1679 2.05733ZM17.3649 6.94533C17.6759 6.86533 18.0149 6.77733 18.3049 6.68833C18.4509 6.64433 18.5959 6.59533 18.7269 6.54233C18.8469 6.49433 18.9989 6.42433 19.1309 6.32733L18.2409 5.12033C18.2609 5.10433 18.2489 5.11733 18.1639 5.15233C18.0899 5.18233 17.9902 5.21633 17.8649 5.25433C17.6149 5.33133 17.3109 5.41033 16.9899 5.49333L17.3649 6.94533ZM18.2829 3.85133C18.3699 4.16533 18.4249 4.36333 18.4559 4.51733C18.4859 4.66333 18.4809 4.71233 18.4789 4.72733L19.9659 4.93033C19.9933 4.69212 19.9798 4.45097 19.9259 4.21733C19.8819 4.00033 19.8099 3.74233 19.7279 3.44833L18.2829 3.85133ZM19.1309 6.32733C19.5849 5.99233 19.8889 5.49133 19.9659 4.93033L18.4799 4.72633C18.4678 4.80459 18.4404 4.8797 18.3992 4.94732C18.3581 5.01494 18.3049 5.07374 18.2409 5.12033L19.1309 6.32733ZM11.5029 5.59933C11.5849 5.89333 11.6559 6.15233 11.7309 6.36033C11.8079 6.57733 11.9049 6.79333 12.0629 6.99233L13.2359 6.05733C13.1949 5.99624 13.1639 5.92909 13.1439 5.85833C13.0717 5.64043 13.0063 5.42032 12.9479 5.19833L11.5029 5.59933ZM14.9559 6.01833C14.6359 6.10133 14.3319 6.17933 14.0739 6.23333C13.9703 6.2558 13.8659 6.27415 13.7609 6.28833C13.6709 6.29933 13.6509 6.29333 13.6739 6.29733L13.4859 7.78533C13.7689 7.82133 14.1229 7.75533 14.3829 7.70133C14.6799 7.63933 15.0189 7.55133 15.3309 7.47133L14.9559 6.01833ZM12.0629 6.99233C12.4149 7.43233 12.9279 7.71433 13.4859 7.78533L13.6739 6.29733C13.5024 6.27677 13.3455 6.19079 13.2359 6.05733L12.0629 6.99233ZM12.9479 5.19833C12.8833 4.97819 12.8256 4.75608 12.7749 4.53233C12.7563 4.46395 12.7482 4.39214 12.7509 4.32133L11.2649 4.11933C11.2309 4.37133 11.2589 4.60733 11.3049 4.83133C11.3489 5.04833 11.4219 5.30533 11.5029 5.59933L12.9479 5.19833ZM13.5269 2.19033C13.2199 2.27033 12.9559 2.33733 12.7409 2.40833C12.5209 2.48133 12.3009 2.57133 12.0999 2.72033L12.9909 3.92833C13.059 3.8858 13.1332 3.85377 13.2109 3.83333C13.3669 3.78133 13.5759 3.72733 13.9009 3.64333L13.5269 2.19033ZM12.7509 4.32133C12.7629 4.24307 12.7903 4.16897 12.8315 4.10134C12.8727 4.03372 12.9268 3.97492 12.9909 3.92833L12.0999 2.72033C11.8746 2.88603 11.6847 3.09604 11.5413 3.3361C11.398 3.57617 11.304 3.84245 11.2649 4.11933L12.7509 4.32133ZM14.4209 6.94633L16.1009 12.9813L17.5459 12.5793L15.8659 6.54433L14.4209 6.94633ZM19.5789 12.0553L17.8999 6.01933L16.4539 6.42133L18.1349 12.4573L19.5789 12.0553Z" fill="black"/>
</svg>