<svg xmlns="http://www.w3.org/2000/svg" width="24" height="24" viewBox="0 0 24 24" fill="none">
  <path d="M16.0272 8.07691C14.0092 8.27091 11.8642 8.87691 10.3742 10.3669C8.88419 11.8569 8.27819 14.0019 8.08419 16.0199M16.0272 8.07691C17.1008 7.98002 18.1807 7.97466 19.2552 8.06091C19.953 8.10882 20.6099 8.40774 21.1044 8.90242C21.5989 9.3971 21.8975 10.0541 21.9452 10.7519C22.0172 11.6839 22.0432 12.8109 21.9302 13.9799M16.0272 8.07691L21.9302 13.9799M8.08419 16.0199C7.98763 17.0935 7.98262 18.1734 8.0692 19.2479C8.11684 19.9457 8.41552 20.6027 8.91002 21.0974C9.40451 21.5921 10.0614 21.891 10.7592 21.9389C11.8337 22.0255 12.9136 22.0205 13.9872 21.9239M8.08419 16.0199L13.9872 21.9239M21.9302 13.9799C21.7362 15.9979 21.1302 18.1429 19.6402 19.6339C18.1502 21.1249 16.0052 21.7289 13.9872 21.9239" stroke="black" stroke-width="1.5" stroke-linecap="round"/>
  <path d="M14.9994 8.25235C14.9584 7.19633 14.6604 6.16624 14.1314 5.25135C13.6277 4.37703 12.9271 3.63219 12.0852 3.07601C11.2433 2.51983 10.2833 2.16762 9.28143 2.04735C8.41658 1.94459 7.5399 2.01671 6.70347 2.25942C5.86704 2.50214 5.08793 2.91049 4.41242 3.46023C3.73691 4.00997 3.17878 4.68987 2.77121 5.45955C2.36363 6.22923 2.11491 7.07298 2.03982 7.94067C1.96474 8.80836 2.06482 9.68229 2.33413 10.5105C2.60343 11.3388 3.03647 12.1045 3.6075 12.7621C4.17853 13.4197 4.87592 13.9558 5.65822 14.3386C6.44052 14.7214 7.29178 14.943 8.16143 14.9903" stroke="black" stroke-width="1.5"/>
  <path d="M9.215 2C9.215 2 9.077 4.356 10.572 7.19C11.029 8.059 11.528 8.759 12 9.313M3 5.928C3 5.928 4.933 6.975 6.428 9.809C7.923 12.644 7.785 15 7.785 15" stroke="black" stroke-width="1.5"/>
  <path d="M12.5 17.5L17.5 12.5M15.5 12.5L17.5 14.5M12.5 15.5L14.5 17.5M14 14L16 16" stroke="black" stroke-width="1.5" stroke-linecap="round"/>
</svg>