<svg width="24" height="24" viewBox="0 0 24 24" fill="none" xmlns="http://www.w3.org/2000/svg">
<path d="M22 22.0003H2M3 22.0003V11.3473C3.00004 10.9237 3.0898 10.5049 3.26337 10.1185C3.43693 9.73205 3.69037 9.38676 4.007 9.10534L10.007 3.77234C10.5561 3.28425 11.2653 3.01465 12 3.01465C12.7347 3.01465 13.4439 3.28425 13.993 3.77234L19.993 9.10534C20.3096 9.38676 20.5631 9.73205 20.7366 10.1185C20.9102 10.5049 21 10.9237 21 11.3473V22.0003M10 9.00034H14M9 15.5003H15M9 18.5003H15" stroke="black" stroke-width="1.5" stroke-linecap="round"/>
<path d="M18 22V16C18 14.114 18 13.172 17.414 12.586C16.828 12 15.886 12 14 12H10C8.114 12 7.172 12 6.586 12.586C6 13.172 6 14.114 6 16V22" stroke="black" stroke-width="1.5"/>
</svg>
