<svg width="24" height="24" viewBox="0 0 24 24" fill="none" xmlns="http://www.w3.org/2000/svg">
<path d="M16 22V8C16 5.172 16 3.757 15.121 2.879C14.243 2 12.828 2 10 2H9C6.172 2 4.757 2 3.879 2.879C3 3.757 3 5.172 3 8V22" stroke="black" stroke-width="1.5"/>
<path d="M11 6H8C7.057 6 6.586 6 6.293 6.293C6 6.586 6 7.057 6 8C6 8.943 6 9.414 6.293 9.707C6.586 10 7.057 10 8 10H11C11.943 10 12.414 10 12.707 9.707C13 9.414 13 8.943 13 8C13 7.057 13 6.586 12.707 6.293C12.414 6 11.943 6 11 6Z" stroke="black" stroke-width="1.5"/>
<path d="M7 17H12M17 22H2M19.5 4L20.733 4.986C20.871 5.096 20.94 5.152 21.003 5.208C21.5941 5.73825 21.9508 6.48119 21.995 7.274C22 7.358 22 7.446 22 7.622V18.5C22 18.8978 21.842 19.2794 21.5607 19.5607C21.2794 19.842 20.8978 20 20.5 20C20.1022 20 19.7206 19.842 19.4393 19.5607C19.158 19.2794 19 18.8978 19 18.5V18.429C19 17.639 18.36 17 17.571 17H16" stroke="black" stroke-width="1.5" stroke-linecap="round"/>
<path d="M22 8H20.5C20.1022 8 19.7206 8.15804 19.4393 8.43934C19.158 8.72064 19 9.10218 19 9.5V11.919C19 12.2339 19.0991 12.5407 19.2833 12.7961C19.4674 13.0515 19.7273 13.2425 20.026 13.342L22 14" stroke="black" stroke-width="1.5" stroke-linecap="round"/>
</svg>
