<svg xmlns="http://www.w3.org/2000/svg" width="24" height="24" viewBox="0 0 24 24" fill="none">
  <path d="M18 8C18 9.5913 17.3679 11.1174 16.2426 12.2426C15.1174 13.3679 13.5913 14 12 14C10.4087 14 8.88258 13.3679 7.75736 12.2426C6.63214 11.1174 6 9.5913 6 8C6 6.4087 6.63214 4.88258 7.75736 3.75736C8.88258 2.63214 10.4087 2 12 2C13.5913 2 15.1174 2.63214 16.2426 3.75736C17.3679 4.88258 18 6.4087 18 8Z" stroke="black" stroke-width="1.5"/>
  <path d="M6.49928 10.1895C5.32261 10.4934 4.26598 11.1476 3.46925 12.0653C2.67252 12.983 2.17326 14.121 2.03754 15.3287C1.90182 16.5364 2.13604 17.7568 2.70921 18.8285C3.28238 19.9001 4.16747 20.7725 5.24733 21.33C6.32718 21.8876 7.5509 22.1041 8.75651 21.9509C9.96211 21.7976 11.0928 21.2819 11.9988 20.4719C12.9049 19.662 13.5436 18.596 13.8305 17.415C14.1173 16.234 14.0388 14.9938 13.6053 13.8585" stroke="black" stroke-width="1.5"/>
  <path d="M12 20.4725C12.6773 21.0777 13.4832 21.5212 14.3569 21.7696C15.2306 22.018 16.1493 22.0648 17.0437 21.9065C17.9381 21.7482 18.7849 21.3888 19.5202 20.8556C20.2555 20.3224 20.8602 19.6291 21.2886 18.8282C21.717 18.0272 21.9579 17.1395 21.9933 16.2319C22.0286 15.3242 21.8574 14.4204 21.4926 13.5886C21.1278 12.7567 20.5789 12.0186 19.8873 11.4298C19.1957 10.841 18.3794 10.4169 17.5 10.1895" stroke="black" stroke-width="1.5"/>
</svg>