<svg width="24" height="24" viewBox="0 0 24 24" fill="none" xmlns="http://www.w3.org/2000/svg">
<path d="M12 3.10565L11.492 3.65765C11.6304 3.78485 11.8115 3.85543 11.9995 3.85543C12.1875 3.85543 12.3686 3.78485 12.507 3.65765L12 3.10565ZM10.592 8.19565C9.902 7.69265 9.165 7.08065 8.609 6.43565C8.035 5.77065 7.75 5.18165 7.75 4.71465H6.25C6.25 5.73165 6.828 6.66865 7.473 7.41565C8.136 8.18365 8.974 8.87265 9.708 9.40765L10.592 8.19565ZM7.75 4.71465C7.75 3.65565 8.27 3.05165 8.896 2.84165C9.548 2.62165 10.52 2.76365 11.492 3.65765L12.507 2.55365C11.23 1.37965 9.704 0.987652 8.418 1.41965C7.105 1.86165 6.25 3.09565 6.25 4.71465H7.75ZM14.292 9.40765C15.026 8.87365 15.864 8.18365 16.527 7.41565C17.172 6.66865 17.75 5.73165 17.75 4.71465H16.25C16.25 5.18165 15.966 5.77065 15.391 6.43565C14.835 7.08065 14.099 7.69265 13.409 8.19565L14.292 9.40765ZM17.75 4.71465C17.75 3.09565 16.895 1.86165 15.583 1.41965C14.297 0.987652 12.77 1.37965 11.493 2.55365L12.508 3.65765C13.48 2.76365 14.453 2.62165 15.105 2.84165C15.73 3.05165 16.25 3.65565 16.25 4.71465H17.75ZM9.708 9.40765C10.463 9.95765 11.062 10.4257 12 10.4257V8.92565C11.635 8.92565 11.435 8.81065 10.592 8.19565L9.708 9.40765ZM13.408 8.19565C12.565 8.81065 12.365 8.92565 12 8.92565V10.4257C12.938 10.4257 13.537 9.95865 14.292 9.40765L13.408 8.19565Z" fill="black"/>
<path d="M5 20.3872H7.26C8.27 20.3872 9.293 20.4932 10.276 20.6952C12.0311 21.0547 13.8367 21.0947 15.606 20.8132C16.474 20.6732 17.326 20.4582 18.098 20.0862C18.794 19.7492 19.647 19.2762 20.22 18.7452C20.792 18.2152 21.388 17.3482 21.81 16.6702C22.174 16.0882 21.998 15.3752 21.424 14.9422C21.1013 14.708 20.7127 14.5819 20.314 14.5819C19.9153 14.5819 19.5267 14.708 19.204 14.9422L17.397 16.3072C16.697 16.8372 15.932 17.3242 15.021 17.4692C14.911 17.4866 14.796 17.5022 14.676 17.5162M14.676 17.5162L14.566 17.5282M14.676 17.5162C14.836 17.4729 14.9828 17.3904 15.103 17.2762C15.2539 17.146 15.3772 16.9869 15.4655 16.8082C15.5538 16.6295 15.6054 16.4349 15.6171 16.2359C15.6289 16.0369 15.6006 15.8376 15.5339 15.6497C15.4672 15.4619 15.3636 15.2893 15.229 15.1422C15.0987 14.9976 14.9469 14.8738 14.779 14.7752C11.982 13.1062 7.629 14.3772 5 16.2422M14.676 17.5162C14.6399 17.5243 14.603 17.5283 14.566 17.5282M14.566 17.5282C13.9629 17.5887 13.3554 17.59 12.752 17.5322" stroke="black" stroke-width="1.5" stroke-linecap="round"/>
<path d="M5 15.5C5 14.6716 4.32843 14 3.5 14C2.67157 14 2 14.6716 2 15.5V20.5C2 21.3284 2.67157 22 3.5 22C4.32843 22 5 21.3284 5 20.5V15.5Z" stroke="black" stroke-width="1.5"/>
</svg>
