<svg xmlns="http://www.w3.org/2000/svg" width="24" height="24" viewBox="0 0 24 24" fill="none">
  <path d="M3.79463 12.03C4.33163 9.342 4.60063 8 5.48763 7.134C5.65157 6.97444 5.82888 6.82924 6.01763 6.7C7.04063 6 8.41063 6 11.1506 6H12.8536C15.5926 6 16.9616 6 17.9836 6.7C18.1736 6.83067 18.3503 6.97567 18.5136 7.135C19.4006 8 19.6706 9.343 20.2076 12.03C20.9786 15.886 21.3646 17.814 20.4766 19.18C20.316 19.4287 20.1293 19.6563 19.9166 19.863C18.7506 21 16.7856 21 12.8536 21H11.1506C7.21763 21 5.25163 21 4.08563 19.862C3.87468 19.6556 3.6872 19.4266 3.52663 19.179C2.63863 17.813 3.02463 15.885 3.79663 12.029L3.79463 12.03Z" stroke="black" stroke-width="1.5"/>
  <path d="M15 10C15.5523 10 16 9.55228 16 9C16 8.44772 15.5523 8 15 8C14.4477 8 14 8.44772 14 9C14 9.55228 14.4477 10 15 10Z" fill="black"/>
  <path d="M9 10C9.55228 10 10 9.55228 10 9C10 8.44772 9.55228 8 9 8C8.44772 8 8 8.44772 8 9C8 9.55228 8.44772 10 9 10Z" fill="black"/>
  <path d="M9 6V5C9 4.20435 9.31607 3.44129 9.87868 2.87868C10.4413 2.31607 11.2044 2 12 2C12.7956 2 13.5587 2.31607 14.1213 2.87868C14.6839 3.44129 15 4.20435 15 5V6" stroke="black" stroke-width="1.5" stroke-linecap="round"/>
</svg>