<svg width="24" height="24" viewBox="0 0 24 24" fill="none" xmlns="http://www.w3.org/2000/svg">
<path d="M2 8C2 9.342 10.095 13 11.986 13C13.877 13 21.972 9.342 21.972 8C21.972 6.658 13.877 3 11.986 3C10.095 3 2 6.658 2 8Z" stroke-width="1.5" stroke-linecap="round" stroke-linejoin="round"/>
<path d="M5.99219 11L6.23719 16.63C6.24219 16.743 6.25419 16.856 6.28719 16.964C6.38819 17.297 6.57419 17.601 6.85819 17.804C9.07919 19.399 14.8882 19.399 17.1102 17.804C17.3942 17.601 17.5802 17.297 17.6802 16.964C17.7103 16.8551 17.7271 16.7429 17.7302 16.63L17.9752 11M20.4712 9.5V16.5M20.4712 16.5C19.6792 17.946 19.3292 18.721 18.9742 20C18.8962 20.455 18.9582 20.684 19.2712 20.888C19.3992 20.971 19.5512 21 19.7042 21H21.2242C21.386 21.0056 21.5457 20.962 21.6822 20.875C21.9732 20.674 22.0482 20.453 21.9692 20C21.6582 18.813 21.2602 18 20.4712 16.5Z" stroke="black" stroke-width="1.5" stroke-linecap="round" stroke-linejoin="round"/>
</svg>
