<svg width="24" height="24" viewBox="0 0 24 24" fill="none" xmlns="http://www.w3.org/2000/svg">
<path d="M6 19.9977C8.21 19.9977 10 18.2107 10 16.0057C9.99947 15.4809 9.8956 14.9614 9.69429 14.4768C9.49299 13.9922 9.19821 13.5519 8.82677 13.1812C8.45534 12.8106 8.01453 12.5167 7.52951 12.3163C7.04449 12.116 6.52476 12.0131 6 12.0137C3.79 12.0137 2 13.8007 2 16.0057C2.00053 16.5304 2.1044 17.05 2.30571 17.5346C2.50701 18.0192 2.80179 18.4594 3.17323 18.8301C3.54466 19.2008 3.98547 19.4947 4.47049 19.695C4.95551 19.8954 5.47524 19.9982 6 19.9977ZM18 19.9977C20.21 19.9977 22 18.2107 22 16.0057C21.9995 15.4809 21.8956 14.9614 21.6943 14.4768C21.493 13.9922 21.1982 13.5519 20.8268 13.1812C20.4553 12.8106 20.0145 12.5167 19.5295 12.3163C19.0445 12.116 18.5248 12.0131 18 12.0137C15.79 12.0137 14 13.8007 14 16.0057C14.0005 16.5304 14.1044 17.05 14.3057 17.5346C14.507 18.0192 14.8018 18.4594 15.1732 18.8301C15.5447 19.2008 15.9855 19.4947 16.4705 19.695C16.9555 19.8954 17.4752 19.9982 18 19.9977Z" stroke-width="1.5" stroke-linecap="round" stroke-linejoin="round"/>
<path d="M6 16.0057H10.37C10.5467 16.0059 10.7203 15.9593 10.8731 15.8706C11.0259 15.7819 11.1525 15.6543 11.24 15.5007L15.5 8.02075M12 13.0117L7 7.02275M7 7.02275H5M7 7.02275H9M18.053 15.9697L14.806 4.02975C16.256 3.95975 19.359 3.82975 19.991 6.20975" stroke-width="1.5" stroke-linecap="round" stroke-linejoin="round"/>
</svg>
