<svg width="24" height="24" viewBox="0 0 24 24" fill="none" xmlns="http://www.w3.org/2000/svg">
<path d="M6.5 3.5H4.5C4.23478 3.5 3.98043 3.60536 3.79289 3.79289C3.60536 3.98043 3.5 4.23478 3.5 4.5V8C3.5 9.45869 4.07946 10.8576 5.11091 11.8891C6.14236 12.9205 7.54131 13.5 9 13.5C10.4587 13.5 11.8576 12.9205 12.8891 11.8891C13.9205 10.8576 14.5 9.45869 14.5 8V4.5C14.5 4.23478 14.3946 3.98043 14.2071 3.79289C14.0196 3.60536 13.7652 3.5 13.5 3.5H11.5" stroke-width="1.5" stroke-linecap="round" stroke-linejoin="round"/>
<path d="M18.5 15.5V16.75C18.5 17.3738 18.3771 17.9915 18.1384 18.5677C17.8997 19.144 17.5498 19.6677 17.1088 20.1088C16.6677 20.5498 16.144 20.8997 15.5677 21.1384C14.9914 21.3771 14.3738 21.5 13.75 21.5C13.1262 21.5 12.5086 21.3771 11.9323 21.1384C11.356 20.8997 10.8323 20.5498 10.3912 20.1088C9.95016 19.6677 9.60028 19.144 9.36157 18.5677C9.12286 17.9915 9 17.3738 9 16.75V13.5M11.5 2.5V4.5M6.5 2.5V4.5" stroke-width="1.5" stroke-linecap="round" stroke-linejoin="round"/>
<path d="M20.5 13.5C20.5 14.0304 20.2893 14.5391 19.9142 14.9142C19.5391 15.2893 19.0304 15.5 18.5 15.5C17.9696 15.5 17.4609 15.2893 17.0858 14.9142C16.7107 14.5391 16.5 14.0304 16.5 13.5C16.5 12.9696 16.7107 12.4609 17.0858 12.0858C17.4609 11.7107 17.9696 11.5 18.5 11.5C19.0304 11.5 19.5391 11.7107 19.9142 12.0858C20.2893 12.4609 20.5 12.9696 20.5 13.5Z" stroke-width="1.5" stroke-linecap="round" stroke-linejoin="round"/>
</svg>
