<svg width="24" height="24" viewBox="0 0 24 24" fill="none" xmlns="http://www.w3.org/2000/svg">
<path d="M18.5001 5H19.7021C20.9031 5 21.5031 5 21.8171 5.377C22.1301 5.755 22.0001 6.321 21.7391 7.454L21.3491 9.154C20.7601 11.708 18.6101 13.608 16.0001 14M5.5001 5H4.2981C3.0971 5 2.4961 5 2.1831 5.377C1.8701 5.755 2.0001 6.321 2.2611 7.454L2.6511 9.154C3.2401 11.708 5.3901 13.608 8.0001 14M12.0001 17C10.3261 17 8.8701 18.265 8.1181 20.131C7.7581 21.023 8.2741 22 8.9581 22H15.0411C15.7261 22 16.2411 21.023 15.8821 20.131C15.1301 18.265 13.6741 17 12.0001 17Z" stroke-width="1.5" stroke-linecap="round" stroke-linejoin="round"/>
<path d="M11.9996 17C15.0196 17 17.5646 12.338 18.3296 5.99C18.5406 4.236 18.6466 3.358 18.0866 2.679C17.5266 2 16.6216 2 14.8126 2H9.18655C7.37655 2 6.47255 2 5.91255 2.679C5.35255 3.358 5.45955 4.236 5.66955 5.991C6.43455 12.338 8.97955 17 11.9996 17Z" stroke-width="1.5" stroke-linecap="round" stroke-linejoin="round"/>
</svg>
