<svg width="24" height="24" viewBox="0 0 24 24" fill="none" xmlns="http://www.w3.org/2000/svg">
<path d="M11.9997 9C11.9997 4.5 13.9997 4 15.9997 4C15.9997 7 14.4997 9 11.9997 9ZM11.9997 9C11.9997 4.5 9.99974 4 7.99974 4C7.99974 7 9.49974 9 11.9997 9ZM11.9997 9V15M9.99974 4C9.99974 4 10.4997 2.5 11.9997 2C13.4997 2.5 13.9997 4 13.9997 4M11.9997 13C12.2497 12.333 13.1997 11 14.9997 11M13.1497 15H10.8497C8.79674 15 7.76974 15 7.26374 15.597C6.75774 16.193 7.03974 17.07 7.60374 18.824L7.69674 19.115C8.14074 20.495 8.36274 21.185 8.95274 21.588L8.97974 21.605C9.57774 22 10.3847 22 11.9997 22C13.6147 22 14.4217 22 15.0197 21.605L15.0467 21.588C15.6367 21.186 15.8587 20.495 16.3027 19.115L16.3967 18.825C16.9597 17.07 17.2417 16.193 16.7357 15.597C16.2287 15 15.2027 15 13.1497 15Z" stroke-width="1.5" stroke-linecap="round" stroke-linejoin="round"/>
</svg>
