<svg width="24" height="24" viewBox="0 0 24 24" fill="none" xmlns="http://www.w3.org/2000/svg">
<path d="M12 14C15.3137 14 18 11.3137 18 8C18 4.68629 15.3137 2 12 2C8.68629 2 6 4.68629 6 8C6 11.3137 8.68629 14 12 14Z" stroke-width="1.5" stroke-linecap="round" stroke-linejoin="round"/>
<path d="M16.8741 12C17.613 13.086 18.0056 14.3704 18.0001 15.684C18.0001 16.502 17.8521 17.283 17.5841 18M17.5841 18C16.7061 20.342 14.5371 22 12.0001 22C8.68606 22 6.00006 19.172 6.00006 15.684C5.99452 14.3704 6.3871 13.086 7.12606 12M17.5841 18C14.8511 16.8 12.0561 14.833 11.0001 14M12.0001 2C11.0061 2 10.2001 2.784 10.2001 3.75C10.2001 4.716 11.0061 5.5 12.0001 5.5C12.4611 5.5 12.8821 5.332 13.2001 5.054M10.0001 8H10.0081M14.0001 8H14.0081" stroke-width="1.5" stroke-linecap="round" stroke-linejoin="round"/>
</svg>
