<svg width="24" height="24" viewBox="0 0 24 24" fill="none" xmlns="http://www.w3.org/2000/svg">
<path d="M18.25 10.5H19.64C21.492 10.5 22.042 10.765 21.997 12.084C21.924 14.267 20.939 16.804 17 17.5" stroke-width="1.5" stroke-linecap="round" stroke-linejoin="round"/>
<path d="M11.3094 2.5C10.7624 2.839 10.0004 4 10.0004 5.5M7.54038 4C7.54038 4 7.00038 4.5 7.00038 5.5M14.0014 4C13.7284 4.17 13.5004 5 13.5004 5.5M5.94638 20.615C2.57238 18.02 2.07538 14.34 2.00138 10.5C1.97038 8.841 2.45138 8.5 4.65938 8.5H15.3414C17.5494 8.5 18.0314 8.841 17.9994 10.5C17.9254 14.34 17.4294 18.02 14.0544 20.615C13.0944 21.353 12.2844 21.5 10.9194 21.5H9.08138C7.71738 21.5 6.90738 21.354 5.94638 20.615Z" stroke-width="1.5" stroke-linecap="round" stroke-linejoin="round"/>
</svg>
