<svg width="24" height="24" viewBox="0 0 24 24" fill="none" xmlns="http://www.w3.org/2000/svg">
<path d="M20.5004 9.5V14.167C20.5004 16.34 20.5004 17.427 20.1694 18.292C19.9192 18.9453 19.5348 19.5388 19.041 20.0342C18.5471 20.5296 17.9548 20.9158 17.3024 21.168C16.4394 21.5 15.3564 21.5 13.1904 21.5C12.0534 21.5 11.4854 21.5 10.9574 21.383C10.1505 21.2043 9.40043 20.8285 8.77435 20.289C8.36435 19.934 8.02435 19.479 7.34135 18.567L4.33735 14.549C4.11281 14.2485 3.99424 13.882 4.00021 13.5069C4.00619 13.1318 4.13636 12.7692 4.37035 12.476C4.51812 12.2902 4.70354 12.1377 4.91443 12.0286C5.12531 11.9195 5.35689 11.8563 5.59396 11.8431C5.83102 11.8298 6.06819 11.8669 6.2899 11.9519C6.51161 12.0368 6.71284 12.1677 6.88035 12.336L8.50035 13.964V6C8.50035 5.60218 8.65839 5.22064 8.93969 4.93934C9.221 4.65804 9.60253 4.5 10.0004 4.5C10.3982 4.5 10.7797 4.65804 11.061 4.93934C11.3423 5.22064 11.5004 5.60218 11.5004 6M11.5004 6V4C11.5004 3.60218 11.6584 3.22064 11.9397 2.93934C12.221 2.65804 12.6025 2.5 13.0004 2.5C13.3982 2.5 13.7797 2.65804 14.061 2.93934C14.3423 3.22064 14.5004 3.60218 14.5004 4V6M11.5004 6V10.5M14.5004 6C14.5004 5.60218 14.6584 5.22064 14.9397 4.93934C15.221 4.65804 15.6025 4.5 16.0004 4.5C16.3982 4.5 16.7797 4.65804 17.061 4.93934C17.3423 5.22064 17.5004 5.60218 17.5004 6V8M14.5004 6V10.5M17.5004 8C17.5004 7.60218 17.6584 7.22064 17.9397 6.93934C18.221 6.65804 18.6025 6.5 19.0004 6.5C19.3982 6.5 19.7797 6.65804 20.061 6.93934C20.3423 7.22064 20.5004 7.60218 20.5004 8V10.5M17.5004 8V10.5" stroke-width="1.5" stroke-linecap="round" stroke-linejoin="round"/>
</svg>
