<svg width="24" height="24" viewBox="0 0 24 24" fill="none" xmlns="http://www.w3.org/2000/svg">
<path d="M5.94659 9.003C5.94659 9.003 3.68259 11.252 3.01659 10.977C2.07659 10.588 1.67059 6.82 2.30959 6.245L4.76659 4.033C5.89959 3.01 5.92959 3 7.43859 3H8.95659C9.18259 4.36 10.4956 5.992 11.9996 5.992C13.5036 5.992 14.8156 4.36 15.0426 3H16.5606C18.0686 3 18.0986 3.011 19.2326 4.033L21.6896 6.245C22.3296 6.82 21.9226 10.588 20.9826 10.977C20.3166 11.252 18.0486 9.003 18.0486 9.003" stroke-width="1.5" stroke-linecap="round" stroke-linejoin="round"/>
<path d="M6 8V18.527C6 19.232 6.12 19.609 6.755 19.95C9.368 21.35 14.632 21.35 17.245 19.95C17.88 19.61 18 19.232 18 18.527V8" stroke-width="1.5" stroke-linecap="round" stroke-linejoin="round"/>
<path d="M6 10C8 12.667 16 12.667 18 10" stroke-width="1.5" stroke-linecap="round" stroke-linejoin="round"/>
</svg>
