<svg width="24" height="24" viewBox="0 0 24 24" fill="none" xmlns="http://www.w3.org/2000/svg">
<path d="M6 15H5.578C4.534 15 4.011 15 3.691 15.339C3.37 15.677 3.498 15.999 3.753 16.643C4.529 18.597 6.65 20 9.146 20H14.854C17.35 20 19.471 18.597 20.247 16.643C20.503 15.999 20.63 15.677 20.309 15.339C19.99 15 19.466 15 18.422 15H14M19 15H20C20.5304 15 21.0391 14.7893 21.4142 14.4142C21.7893 14.0391 22 13.5304 22 13C22 12.4696 21.7893 11.9609 21.4142 11.5858C21.0391 11.2107 20.5304 11 20 11H12M12 11L10.518 12.728C9.813 13.552 9.46 13.963 9 13.963C8.541 13.963 8.187 13.552 7.481 12.728L6 11M12 11H6M5 15H4C3.46957 15 2.96086 14.7893 2.58579 14.4142C2.21071 14.0391 2 13.5304 2 13C2 12.4696 2.21071 11.9609 2.58579 11.5858C2.96086 11.2107 3.46957 11 4 11H6M9.008 8H8.998M15 7L14 8M14.854 4H9.146C6.65 4 4.53 5.964 3.753 8.7C3.498 9.601 3.37 10.052 3.691 10.526C4.011 11 4.534 11 5.579 11H18.422C19.466 11 19.989 11 20.31 10.526C20.631 10.052 20.503 9.601 20.247 8.7C19.471 5.964 17.35 4 14.854 4Z" stroke-width="1.5" stroke-linecap="round" stroke-linejoin="round"/>
</svg>
