<svg width="24" height="24" viewBox="0 0 24 24" fill="none" xmlns="http://www.w3.org/2000/svg">
<path d="M7 17V16C7 15.057 7 14.586 6.707 14.293C6.414 14 5.943 14 5 14C4.057 14 3.586 14 3.293 14.293C3 14.586 3 15.057 3 16V17C3 17.943 3 18.414 3.293 18.707C3.586 19 4.057 19 5 19C5.943 19 6.414 19 6.707 18.707C7 18.414 7 17.943 7 17ZM14 17V12C14 11.057 14 10.586 13.707 10.293C13.414 10 12.943 10 12 10C11.057 10 10.586 10 10.293 10.293C10 10.586 10 11.057 10 12V17C10 17.943 10 18.414 10.293 18.707C10.586 19 11.057 19 12 19C12.943 19 13.414 19 13.707 18.707C14 18.414 14 17.943 14 17ZM21 17V8C21 7.057 21 6.586 20.707 6.293C20.414 6 19.943 6 19 6C18.057 6 17.586 6 17.293 6.293C17 6.586 17 7.057 17 8V17C17 17.943 17 18.414 17.293 18.707C17.586 19 18.057 19 19 19C19.943 19 20.414 19 20.707 18.707C21 18.414 21 17.943 21 17Z" stroke-width="1.5" stroke-linecap="round" stroke-linejoin="round"/>
</svg>
