<svg width="24" height="24" viewBox="0 0 24 24" fill="none" xmlns="http://www.w3.org/2000/svg">
<path d="M4 14.0004H6.395C6.689 14.0004 6.979 14.0664 7.242 14.1944L9.284 15.1824C9.547 15.3094 9.837 15.3754 10.132 15.3754H11.174C12.182 15.3754 13 16.1664 13 17.1424C13 17.1824 12.973 17.2164 12.934 17.2274L10.393 17.9304C9.93705 18.0563 9.45087 18.0122 9.025 17.8064L6.842 16.7504M13 16.5004L17.593 15.0894C17.9929 14.9667 18.4213 14.9734 18.817 15.1086C19.2128 15.2439 19.5558 15.5007 19.797 15.8424C20.166 16.3524 20.016 17.0844 19.478 17.3944L11.963 21.7314C11.728 21.8673 11.4678 21.954 11.1982 21.9862C10.9287 22.0183 10.6554 21.9952 10.395 21.9184L4 20.0204M18.968 10.3554C18.604 8.33336 17.468 6.82736 16.482 5.94236C16.195 5.68536 16.051 5.55636 15.734 5.43736C15.417 5.31836 15.144 5.31836 14.599 5.31836H13.4C12.855 5.31836 12.582 5.31836 12.265 5.43836C11.948 5.55636 11.805 5.68536 11.517 5.94236C10.531 6.82736 9.395 8.33236 9.031 10.3554C8.76 11.8604 10.266 13.0004 11.949 13.0004H16.051C17.734 13.0004 19.24 11.8604 18.968 10.3554Z" stroke-width="1.5" stroke-linecap="round" stroke-linejoin="round"/>
</svg>
