<svg width="24" height="24" viewBox="0 0 24 24" fill="none" xmlns="http://www.w3.org/2000/svg">
<path d="M8.99978 5.99989C9.49978 6.49989 10.5028 6.41189 11.9998 5.17589M11.9998 5.17589C11.7784 4.99456 11.5488 4.78589 11.3108 4.54989C9.00478 2.26589 5.86478 2.71289 4.39378 4.54989C3.37778 5.81989 0.77778 8.97989 7.14178 20.2399C7.40578 20.7059 7.93078 20.9999 8.49578 20.9999C9.39778 20.9999 10.1028 20.2799 10.1318 19.4399C10.1948 17.6579 10.5398 15.6029 11.9998 15.6029C13.4598 15.6029 13.8058 17.6579 13.8678 19.4399C13.8968 20.2799 14.6018 20.9999 15.5038 20.9999C16.0688 20.9999 16.5938 20.7059 16.8578 20.2399C23.2228 8.97889 20.6218 5.81989 19.6058 4.54989C18.1348 2.71289 14.9948 2.26589 12.6888 4.54989C12.4508 4.78523 12.2211 4.99389 11.9998 5.17589Z" stroke-width="1.5" stroke-linecap="round" stroke-linejoin="round"/>
</svg>
