<svg width="24" height="24" viewBox="0 0 24 24" fill="none" xmlns="http://www.w3.org/2000/svg">
<path d="M12.0008 14.006L5.84484 21.233C5.64906 21.4609 5.40833 21.6459 5.13773 21.7764C4.86713 21.9069 4.57249 21.9801 4.27227 21.9915C3.97206 22.0028 3.67273 21.9521 3.39304 21.8424C3.11336 21.7327 2.85934 21.5664 2.64691 21.3539C2.43447 21.1415 2.26819 20.8875 2.15849 20.6078C2.04878 20.3281 1.99802 20.0288 2.00937 19.7286C2.02072 19.4284 2.09395 19.1337 2.22447 18.8631C2.35498 18.5925 2.53997 18.3518 2.76784 18.156L9.99484 12M22.0008 11.905L15.9058 18M12.0958 2L6.00084 8.095M11.3338 2.762L6.76284 7.333C6.76284 7.333 9.04885 10.381 11.3338 12.667C13.6198 14.952 16.6678 17.238 16.6678 17.238L21.2388 12.667C21.2388 12.667 18.9528 9.619 16.6678 7.333C14.3818 5.048 11.3338 2.762 11.3338 2.762Z" stroke-width="1.5" stroke-linecap="round" stroke-linejoin="round"/>
</svg>
