<svg width="24" height="24" viewBox="0 0 24 24" fill="none" xmlns="http://www.w3.org/2000/svg">
<path d="M7.885 9.176C7.05415 9.41376 6.32327 9.91549 5.80279 10.6054C5.28231 11.2953 5.00052 12.1358 5 13M7.885 9.176C9.855 8.613 14.027 8.251 14.827 6.007M7.885 9.176C7.885 5 12 6 12 2C14.047 2 15.503 4.11 14.827 6.007M14.827 6.007C16.454 5.867 17.544 7.738 16.685 9.078C16.411 9.505 15.961 9.853 15.5 10.119M16.685 9.079C18.642 9.534 19 11.293 19 13" stroke-width="1.5" stroke-linecap="round" stroke-linejoin="round"/>
<path d="M16 14.9492C16 12.3503 20 12.3503 20 14.9492C20 16.3112 19.245 17.4783 18.658 18.6593C17.852 20.2853 17.448 21.0972 16.723 21.5492C15.998 22.0012 15.096 22.0002 13.292 22.0002H10.708C8.904 22.0002 8.002 22.0002 7.277 21.5492C6.552 21.0972 6.149 20.2853 5.342 18.6593C4.755 17.4783 4 16.3112 4 14.9492C4 12.3503 8 12.3503 8 14.9492C8 12.3503 12 12.3503 12 14.9492C12 12.3503 16 12.3503 16 14.9492Z" stroke-width="1.5" stroke-linecap="round" stroke-linejoin="round"/>
</svg>
