<svg width="24" height="24" viewBox="0 0 24 24" fill="none" xmlns="http://www.w3.org/2000/svg">
<path d="M18 15C16.4087 15 14.8826 15.6321 13.7574 16.7574C12.6321 17.8826 12 19.4087 12 21C12 19.4087 11.3679 17.8826 10.2426 16.7574C9.11742 15.6321 7.5913 15 6 15M12 13V22M12 13C13.3261 13 14.5979 12.4732 15.5355 11.5355C16.4732 10.5979 17 9.32608 17 8V4C15.6739 4 14.4021 4.52678 13.4645 5.46447C12.5268 6.40215 12 7.67392 12 9M12 13C10.6739 13 9.40215 12.4732 8.46447 11.5355C7.52678 10.5979 7 9.32608 7 8V4C8.30929 3.99804 9.56667 4.51178 10.5 5.43M14.5 4.5C14 3 12 2 12 2C12 2 10 3 9.5 4.5" stroke-width="1.5" stroke-linecap="round" stroke-linejoin="round"/>
</svg>
