<svg width="24" height="24" viewBox="0 0 24 24" fill="none" xmlns="http://www.w3.org/2000/svg">
<path d="M10.5391 12L10.9291 8.876C11.0201 8.148 11.3511 8 12.0391 8C12.7271 8 13.0571 8.148 13.1491 8.876L13.5391 12" stroke-width="1.5" stroke-linecap="round" stroke-linejoin="round"/>
<path d="M2.00587 3C1.90887 4.578 2.97587 8.043 8.05287 9.662M21.9939 3C22.0909 4.578 21.0239 8.043 15.9469 9.662M8.28387 12.611C9.61987 11.8 10.7849 12.127 11.4849 12.647C11.7719 12.861 11.9149 12.967 11.9999 12.967C12.0849 12.967 12.2279 12.861 12.5149 12.647C13.2149 12.127 14.3799 11.8 15.7149 12.611C17.4679 13.676 17.8649 17.189 13.8229 20.153C13.0529 20.718 12.6679 21 11.9999 21C11.3319 21 10.9469 20.718 10.1779 20.153C6.13587 17.189 6.53187 13.676 8.28387 12.611Z" stroke-width="1.5" stroke-linecap="round" stroke-linejoin="round"/>
</svg>
