<svg width="24" height="24" viewBox="0 0 24 24" fill="none" xmlns="http://www.w3.org/2000/svg">
<path d="M17.5 6.5L16.5 7.5M15.5 14.5C16.7952 14.4996 18.0555 14.08 19.0926 13.3041C20.1297 12.5281 20.8878 11.4374 21.2536 10.1949C21.6195 8.95241 21.5735 7.6249 21.1225 6.41073C20.6715 5.19657 19.8397 4.16094 18.7514 3.45863C17.6631 2.75632 16.3768 2.42502 15.0846 2.51426C13.7925 2.6035 12.5639 3.10847 11.5825 3.95372C10.6011 4.79897 9.91953 5.93911 9.6397 7.20374C9.35988 8.46838 9.4968 9.78962 10.03 10.97L2.5 18.5V21.5H5.5V19.5H7.5V17.5H9.5L13.03 13.97C13.784 14.31 14.62 14.5 15.5 14.5Z" stroke-width="1.5" stroke-linecap="round" stroke-linejoin="round"/>
</svg>
