<svg width="24" height="24" viewBox="0 0 24 24" fill="none" xmlns="http://www.w3.org/2000/svg">
<path d="M2.016 20.3053C3.146 21.9193 8.058 23.1873 10.378 20.1653C12.888 21.3653 17.028 20.9933 20.398 19.1133C20.866 18.8523 21.31 18.5223 21.581 18.0593C22.194 17.0143 22.209 15.5643 21.091 13.4253C19.226 8.77031 15.873 4.68531 14.519 3.04231C14.241 2.78831 12.467 2.42831 11.386 2.08231C10.908 1.93531 10.019 1.83631 8.955 3.23831C8.45 3.90331 6.159 5.53531 9.066 6.63331C9.516 6.74831 9.848 6.95931 11.902 6.58331C12.17 6.53731 12.838 6.58331 13.309 7.41031L14.292 8.81631C14.3844 8.94656 14.4428 9.09779 14.462 9.25631C14.634 10.7563 14.628 12.6323 15.464 13.5823C14.173 12.6493 10.8 11.5403 8.258 14.6953M2 12.9403C3.14422 11.9202 4.60306 11.3224 6.13408 11.2461C7.66511 11.1699 9.17612 11.6199 10.416 12.5213" stroke-width="1.5" stroke-linecap="round" stroke-linejoin="round"/>
</svg>
