<svg width="24" height="24" viewBox="0 0 24 24" fill="none" xmlns="http://www.w3.org/2000/svg">
<path d="M2 7C2 5.6 2 4.9 2.272 4.365C2.51173 3.89435 2.89435 3.51173 3.365 3.272C3.9 3 4.6 3 6 3C7.4 3 8.1 3 8.635 3.272C9.10565 3.51173 9.48827 3.89435 9.728 4.365C10 4.9 10 5.6 10 7M2 7V17C2 18.4 2 19.1 2.272 19.635C2.5119 20.1053 2.89451 20.4875 3.365 20.727C3.9 21 4.6 21 6 21C7.4 21 8.1 21 8.635 20.727C9.10549 20.4875 9.4881 20.1053 9.728 19.635C10 19.1 10 18.4 10 17V7M2 7H10M6 17H6.009M17.781 16.695L17.79 16.693M12 8L18.5 6M11.449 8.268C11.094 6.938 10.916 6.273 11.039 5.696C11.146 5.18862 11.4106 4.72802 11.795 4.38C12.232 3.985 12.895 3.807 14.219 3.45C15.543 3.094 16.206 2.916 16.78 3.039C17.2862 3.14697 17.745 3.41313 18.09 3.799C18.484 4.237 18.662 4.902 19.017 6.232L21.551 15.732C21.906 17.062 22.084 17.727 21.961 18.304C21.854 18.8114 21.5894 19.272 21.205 19.62C20.768 20.015 20.105 20.193 18.781 20.55C17.457 20.906 16.795 21.084 16.22 20.961C15.714 20.8524 15.2554 20.5863 14.91 20.201C14.516 19.763 14.338 19.098 13.983 17.768L11.449 8.268Z" stroke-width="1.5" stroke-linecap="round" stroke-linejoin="round"/>
</svg>
