<svg width="24" height="24" viewBox="0 0 24 24" fill="none" xmlns="http://www.w3.org/2000/svg">
<path d="M10.7158 6.86186L14.9978 15.9999C12.8308 15.9999 12.1718 14.8569 9.91083 13.7139C8.10183 12.7999 5.57783 12.9519 4.82383 13.1429L7.85483 10.9999C8.16383 10.7819 8.31783 10.6729 8.36683 10.5069C8.41683 10.3409 8.34683 10.1649 8.20683 9.81386L7.78283 8.74586C7.62483 8.34586 7.54483 8.14586 7.40183 8.00186C7.35175 7.95145 7.29643 7.90653 7.23683 7.86786C7.06683 7.75586 6.85483 7.71786 6.43183 7.64386L3.18183 7.06686C2.81688 6.99538 2.49397 6.78492 2.28124 6.4799C2.06851 6.17487 1.98259 5.79913 2.04163 5.43196C2.10066 5.06479 2.30002 4.73492 2.59764 4.51194C2.89526 4.28897 3.26787 4.19033 3.63683 4.23686L8.03183 4.87186C8.82383 4.98586 9.21983 5.04286 9.54983 5.23186C9.68721 5.31049 9.81477 5.40515 9.92983 5.51386C10.2068 5.77486 10.3768 6.13686 10.7158 6.86186Z" stroke-width="1.5" stroke-linecap="round" stroke-linejoin="round"/>
<path d="M19 13C20.6569 13 22 11.6569 22 10C22 8.34315 20.6569 7 19 7C17.3431 7 16 8.34315 16 10C16 11.6569 17.3431 13 19 13Z" stroke-width="1.5" stroke-linecap="round" stroke-linejoin="round"/>
<path d="M2 18.0838C3.056 14.5528 7.769 16.1738 11.5 18.0838C15.232 19.9948 19 21.2108 21 18.0838" stroke-width="1.5" stroke-linecap="round" stroke-linejoin="round"/>
</svg>
