<svg width="24" height="24" viewBox="0 0 24 24" fill="none" xmlns="http://www.w3.org/2000/svg">
<path d="M12 15V16.5M3 11L3.153 13.863C3.317 17.477 3.399 19.283 4.559 20.392C5.719 21.501 7.527 21.5 11.145 21.5H12.855C16.473 21.5 18.282 21.5 19.441 20.392C20.6 19.284 20.683 17.477 20.847 13.863L21 11" stroke-width="1.5" stroke-linecap="round" stroke-linejoin="round"/>
<path d="M2.84676 10.443C4.54676 13.674 8.37976 15 11.9998 15C15.6198 15 19.4528 13.674 21.1528 10.443C21.9638 8.901 21.3498 6 19.3518 6H4.64776C2.64976 6 2.03576 8.9 2.84776 10.443M15.9998 6L15.9118 5.69C15.4718 4.15 15.2518 3.38 14.7278 2.94C14.2038 2.5 13.5078 2.5 12.1168 2.5H11.8828C10.4918 2.5 9.79576 2.5 9.27276 2.94C8.74776 3.38 8.52776 4.15 8.08776 5.69L7.99976 6" stroke-width="1.5" stroke-linecap="round" stroke-linejoin="round"/>
</svg>
