<svg width="24" height="24" viewBox="0 0 24 24" fill="none" xmlns="http://www.w3.org/2000/svg">
<path d="M15.8667 3.78035C16.7927 3.03235 17.8307 2.98635 18.9637 3.00235C19.5507 3.01135 19.8437 3.01535 20.0787 3.10635C20.4517 3.25135 20.7487 3.54835 20.8937 3.92135C20.9847 4.15635 20.9887 4.44935 20.9977 5.03635C21.0137 6.16935 20.9677 7.20635 20.2197 8.13335C19.5897 8.91335 18.5057 9.32135 17.9847 10.1833C17.5867 10.8393 17.7717 11.5203 17.9427 12.2213L19.2227 17.4663C19.4777 18.5123 19.2827 19.1813 18.5527 19.9123C18.1637 20.3023 17.8397 20.2823 17.5247 19.7793L13.6627 13.6253L11.8177 15.0913C11.1487 15.6233 10.8147 15.8893 10.6387 16.2633C10.2277 17.1393 10.4887 18.4553 10.5017 19.4053C10.5097 19.9303 10.0557 20.9653 9.41374 20.9993C9.01774 21.0213 8.88274 20.5473 8.75374 20.2563L7.52174 17.4543C7.22774 16.7843 7.21574 16.7723 6.54574 16.4783L3.74374 15.2453C3.45374 15.1173 2.97874 14.9823 3.00074 14.5863C3.03574 13.9443 4.07074 13.4903 4.59474 13.4983C5.54474 13.5113 6.86074 13.7723 7.73674 13.3613C8.11074 13.1853 8.37674 12.8513 8.90874 12.1813L10.3747 10.3373L4.22074 6.47535C3.71774 6.15935 3.69874 5.83635 4.08774 5.44735C4.81774 4.71735 5.48774 4.52235 6.53374 4.77735L11.7787 6.05735C12.4787 6.22835 13.1607 6.41335 13.8177 6.01535C14.6787 5.49535 15.0867 4.41135 15.8667 3.78035Z" stroke-width="1.5" stroke-linecap="round" stroke-linejoin="round"/>
</svg>
