<svg width="24" height="24" viewBox="0 0 24 24" fill="none" xmlns="http://www.w3.org/2000/svg">
<path d="M10.9881 15.123L10.2571 20.225C10.0231 21.854 9.63312 22.147 8.00112 21.943L3.79212 21.419C2.20612 21.221 1.90212 20.854 2.02412 19.261L2.76012 9.721C2.81712 8.983 2.84612 8.614 2.91812 8.253C3.10312 7.339 3.61212 6.536 3.82212 5.635C3.94412 5.111 3.90212 4.555 3.90212 4.019C3.90112 2.346 4.25212 2 5.92512 2H18.0731C19.7461 2 20.0981 2.346 20.0981 4.019C20.0981 4.556 20.0551 5.111 20.1771 5.635C20.3871 6.535 20.8971 7.339 21.0801 8.253C21.7961 11.806 21.6961 15.653 21.9751 19.261C22.0981 20.854 21.7931 21.221 20.2071 21.419L15.9971 21.943C14.3661 22.147 13.9761 21.853 13.7421 20.225L13.0121 15.123" stroke-width="1.5" stroke-linecap="round" stroke-linejoin="round"/>
<path d="M9 13.5C9.76 14.26 10.198 15 11.328 15H12.672C13.802 15 14.239 14.26 15 13.5M4 5H20M3 11C7 11.007 7 7.002 7 5M17 5C17 7.002 17 11.007 21 11" stroke-width="1.5" stroke-linecap="round" stroke-linejoin="round"/>
</svg>
