<svg width="24" height="24" viewBox="0 0 24 24" fill="none" xmlns="http://www.w3.org/2000/svg">
<path d="M13.0012 11.0002L18.0012 6.00021M19.0012 7.00021L17.0012 5.00021L19.5012 3.50021L20.5012 4.50021L19.0012 7.00021ZM4.02623 8.97521C3.54612 8.49552 3.21582 7.8866 3.07556 7.22258C2.9353 6.55856 2.99112 5.86808 3.23623 5.23521L4.65823 6.65721H6.65823V4.65721L5.23623 3.23521C5.86914 2.98955 6.55984 2.93327 7.22417 3.07322C7.88851 3.21318 8.4978 3.54333 8.97781 4.02345C9.45782 4.50357 9.78784 5.11293 9.92765 5.7773C10.0675 6.44166 10.011 7.13235 9.76523 7.76521L16.2352 14.2362C16.8681 13.9904 17.5588 13.934 18.2231 14.0738C18.8875 14.2136 19.4969 14.5436 19.977 15.0236C20.4571 15.5036 20.7873 16.1129 20.9272 16.7773C21.0672 17.4416 21.0109 18.1323 20.7652 18.7652L19.3442 17.3432H17.3442V19.3432L18.7662 20.7652C18.1335 21.0109 17.4429 21.0672 16.7787 20.9274C16.1145 20.7877 15.5053 20.4577 15.0252 19.9779C14.5451 19.498 14.215 18.8889 14.0749 18.2248C13.9348 17.5606 13.9908 16.8701 14.2362 16.2372L7.76423 9.76521C7.13162 10.0099 6.44154 10.0655 5.77792 9.92523C5.11431 9.78498 4.50574 9.45493 4.02623 8.97521Z" stroke-width="1.5" stroke-linecap="round" stroke-linejoin="round"/>
<path d="M12.2033 14.4999L6.59931 20.1039C6.47392 20.2295 6.32498 20.3292 6.16103 20.3972C5.99707 20.4652 5.82131 20.5002 5.64381 20.5002C5.46631 20.5002 5.29055 20.4652 5.1266 20.3972C4.96264 20.3292 4.81371 20.2295 4.68831 20.1039L3.89631 19.3119C3.77068 19.1865 3.67101 19.0375 3.60301 18.8736C3.535 18.7096 3.5 18.5339 3.5 18.3564C3.5 18.1789 3.535 18.0031 3.60301 17.8392C3.67101 17.6752 3.77068 17.5263 3.89631 17.4009L9.50031 11.7969" stroke-width="1.5" stroke-linecap="round" stroke-linejoin="round"/>
</svg>
