<svg width="24" height="24" viewBox="0 0 24 24" fill="none" xmlns="http://www.w3.org/2000/svg">
<path d="M15 4L12 6L9 4M15 4C15.587 4.509 16.93 5.293 16.996 6.146C17.026 6.515 16.872 6.717 16.562 7.121C15.888 8.002 15 8.52 15 10H9C9 8.521 8.112 8.002 7.438 7.121C7.129 6.717 6.974 6.516 7.003 6.146C7.07 5.293 8.414 4.51 9 4M15 4V2M9 4V2M9.5 10H14.5M18 19C20 19 21 16.827 21 16.827C18.175 14.991 16.5 12.834 15.587 11.205C15.24 10.585 15.066 10.275 14.832 10.137C14.598 10 14.285 10 13.659 10H10.34C9.714 10 9.401 10 9.167 10.137C8.933 10.274 8.759 10.584 8.412 11.205C7.5 12.834 5.825 14.99 3 16.827C3 16.827 4 19 6 19" stroke-width="1.5" stroke-linecap="round" stroke-linejoin="round"/>
<path d="M13.7065 14C14.0465 14.796 15.5215 16.671 17.1415 18.31C17.7385 18.915 18.0375 19.217 17.9965 19.73C17.9565 20.242 17.7065 20.413 17.2065 20.755C16.0705 21.53 14.3365 22 12.0005 22C9.66455 22 7.93055 21.531 6.79355 20.755C6.29355 20.413 6.04355 20.242 6.00355 19.73C5.96355 19.217 6.26255 18.915 6.85955 18.31C8.47955 16.671 9.95555 14.796 10.2945 14" stroke-width="1.5" stroke-linecap="round" stroke-linejoin="round"/>
</svg>
