<svg width="24" height="24" viewBox="0 0 24 24" fill="none" xmlns="http://www.w3.org/2000/svg">
<path d="M16.5 7C18.611 8.098 20.18 9.945 20.758 12.138C21.5 12.138 22 13.165 22 14.011C22 16.342 18.566 16.741 18 14.517C17.497 16.494 14.503 16.494 14 14.517C13.497 16.494 10.503 16.494 10 14.517C9.497 16.494 6.503 16.494 6 14.517C5.434 16.741 2 16.342 2 14.011C2 13.165 2.5 12.138 3.242 12.138C3.82 9.945 5.39 8.098 7.5 7" stroke-width="1.5" stroke-linecap="round" stroke-linejoin="round"/>
<path d="M12 4C12.5304 4 13.0391 4.21071 13.4142 4.58579C13.7893 4.96086 14 5.46957 14 6C14 6.53043 13.7893 7.03914 13.4142 7.41421C13.0391 7.78929 12.5304 8 12 8C11.4696 8 10.9609 7.78929 10.5858 7.41421C10.2107 7.03914 10 6.53043 10 6C10 5.46957 10.2107 4.96086 10.5858 4.58579C10.9609 4.21071 11.4696 4 12 4ZM12 4C12 3.5 12.4 2.4 14 2M14.5 10.5L15 11.5M9.5 10.5L9 11.5M3.5 16L4.132 17.897C4.792 19.877 5.122 20.867 5.908 21.434C6.694 22.001 7.738 22 9.825 22H14.175C16.263 22 17.306 22 18.092 21.434C18.878 20.867 19.208 19.877 19.868 17.897L20.5 16" stroke-width="1.5" stroke-linecap="round" stroke-linejoin="round"/>
</svg>
