<svg width="24" height="24" viewBox="0 0 24 24" fill="none" xmlns="http://www.w3.org/2000/svg">
<path d="M5.98475 11.2461C5.89775 13.9691 9.10475 17.3241 12.1138 18.3791M5.98475 11.2461C5.68075 11.7691 2.56875 14.2631 2.51375 15.3191C2.25075 17.4171 5.81475 21.3581 8.56375 21.4921C9.58975 21.6381 11.0128 19.9121 12.4558 18.6281C13.2508 17.9211 14.3957 17.7581 18.9797 16.6201C20.6437 16.3311 22.6428 13.4611 19.6798 11.0301M5.98475 11.2461C6.91275 9.04509 8.51675 4.79009 11.6648 3.10909C12.9418 2.38309 16.2617 1.71509 19.5147 4.80709C20.6337 5.74709 22.5727 7.80909 20.7677 10.1841C19.5637 11.5871 17.7438 11.1811 17.5678 13.6071" stroke-width="1.5" stroke-linecap="round" stroke-linejoin="round"/>
</svg>
