<svg width="24" height="24" viewBox="0 0 24 24" fill="none" xmlns="http://www.w3.org/2000/svg">
<path d="M4.1265 15.3671L10.1285 11.9901C10.698 11.6636 11.3441 11.4945 12.0005 11.5001C12.6569 11.4945 13.303 11.6636 13.8725 11.9901L19.8745 15.3671C20.3002 15.6063 20.6347 15.9799 20.8255 16.4294C21.0163 16.8789 21.0527 17.3789 20.929 17.8513C20.8053 18.3237 20.5286 18.7418 20.142 19.0401C19.7554 19.3385 19.2808 19.5002 18.7925 19.5001H5.2085C4.72019 19.5002 4.24561 19.3385 3.85902 19.0401C3.47244 18.7418 3.19566 18.3237 3.07199 17.8513C2.94831 17.3789 2.98473 16.8789 3.17554 16.4294C3.36634 15.9799 3.70077 15.6063 4.1265 15.3671Z" stroke-width="1.5" stroke-linecap="round" stroke-linejoin="round"/>
<path d="M10 6.405C10 5.353 10.895 4.5 12 4.5C13.105 4.5 14 5.353 14 6.405C14 7.125 13.58 7.751 12.962 8.075C12.473 8.331 12 8.757 12 9.31V11.5" stroke-width="1.5" stroke-linecap="round" stroke-linejoin="round"/>
</svg>
