<svg width="24" height="24" viewBox="0 0 24 24" fill="none" xmlns="http://www.w3.org/2000/svg">
<path d="M6.002 15C6.158 16.308 5.496 19.513 4 21.868C4 21.868 14.292 23.059 15.685 17.943V19.871C15.685 20.813 15.685 21.283 15.978 21.576C16.542 22.138 19.189 22.153 19.754 21.552C20.05 21.236 20.021 20.782 19.961 19.873C19.863 18.375 19.593 16.456 18.852 15M10 4C10 3.46957 10.2107 2.96086 10.5858 2.58579C10.9609 2.21071 11.4696 2 12 2H13C13.5304 2 14.0391 2.21071 14.4142 2.58579C14.7893 2.96086 15 3.46957 15 4V6.553C15 7.19264 15.2044 7.81554 15.5835 8.33077C15.9625 8.84601 16.4964 9.2266 17.107 9.417L17.894 9.663C18.5045 9.85358 19.038 10.2342 19.4169 10.7495C19.7958 11.2647 20.0001 11.8875 20 12.527V14C20 14.2652 19.8946 14.5196 19.7071 14.7071C19.5196 14.8946 19.2652 15 19 15H6C5.73478 15 5.48043 14.8946 5.29289 14.7071C5.10536 14.5196 5 14.2652 5 14V12.527C4.99994 11.8875 5.20424 11.2647 5.58309 10.7495C5.96195 10.2342 6.49554 9.85358 7.106 9.663L7.894 9.417C8.50446 9.22642 9.03805 8.84576 9.41691 8.33054C9.79576 7.81532 10.0001 7.19252 10 6.553V4Z" stroke-width="1.5" stroke-linecap="round" stroke-linejoin="round"/>
</svg>
