<svg width="24" height="24" viewBox="0 0 24 24" fill="none" xmlns="http://www.w3.org/2000/svg">
<path d="M17 10.5C17 10.5 18 13 18 16.25C18 17.421 17.87 18.495 17.704 19.39C17.495 20.514 17.391 21.076 16.835 21.538C16.279 22 15.617 22 14.292 22H9.708C8.383 22 7.721 22 7.165 21.538C6.609 21.076 6.505 20.514 6.296 19.389C6.10199 18.3539 6.00292 17.3032 6 16.25C6 13 7 10.5 7 10.5" stroke-width="1.5" stroke-linecap="round" stroke-linejoin="round"/>
<path d="M14.9967 14H17.4967M14.9967 18H17.4967M6.99672 10.511H16.9967C17.1447 9.695 16.9177 8.122 14.9567 7.501C14.4917 7.352 13.9467 7.076 13.7007 6.611C13.5678 6.36774 13.4988 6.09478 13.5 5.8176C13.5012 5.54042 13.5727 5.26807 13.7077 5.026C13.8492 4.7566 13.9295 4.45928 13.9429 4.15526C13.9562 3.85125 13.9022 3.54804 13.7848 3.26729C13.6674 2.98654 13.4895 2.73518 13.2637 2.53115C13.0379 2.32712 12.7699 2.17546 12.4787 2.087C12.3231 2.03489 12.1607 2.00558 11.9967 2C11.8216 2.0023 11.6479 2.03164 11.4817 2.087C11.1905 2.17535 10.9223 2.32693 10.6964 2.53091C10.4705 2.73489 10.2925 2.98624 10.175 3.267C10.0575 3.54776 10.0034 3.85101 10.0167 4.15508C10.03 4.45915 10.1102 4.75654 10.2517 5.026C10.5787 5.644 10.4767 6.201 10.2597 6.612C10.0217 7.062 9.50372 7.462 9.01972 7.615C7.66872 8.045 6.73672 9.068 6.99672 10.511Z" stroke-width="1.5" stroke-linecap="round" stroke-linejoin="round"/>
</svg>
