<svg width="24" height="24" viewBox="0 0 24 24" fill="none" xmlns="http://www.w3.org/2000/svg">
<path d="M2.5 13L4.5 14M21.5 13.5L19.5 14M8 18.5L8.246 17.886C8.611 16.973 8.794 16.516 9.175 16.258C9.555 16 10.047 16 11.031 16H12.969C13.953 16 14.445 16 14.825 16.258C15.205 16.516 15.389 16.973 15.755 17.886L16 18.5M2 18V20.882C2 21.261 2.24 21.607 2.622 21.776C2.869 21.886 3.105 22 3.391 22H5.109C5.395 22 5.631 21.886 5.879 21.776C6.259 21.607 6.5 21.261 6.5 20.882V19M17.5 19V20.882C17.5 21.261 17.74 21.607 18.122 21.776C18.369 21.886 18.605 22 18.891 22H20.609C20.895 22 21.131 21.886 21.379 21.776C21.759 21.607 22 21.261 22 20.882V18M20 9.5L21 9M4 9.5L3 9M4.5 10.5L5.588 7.235C6.028 5.915 6.248 5.255 6.772 4.878C7.296 4.501 7.992 4.5 9.383 4.5H14.617C16.008 4.5 16.704 4.5 17.227 4.878C17.752 5.255 17.972 5.915 18.412 7.235L19.5 10.5M15.5 4.5C15.26 3.293 15.14 2.69 14.854 2.345C14.568 2 14.188 2 13.429 2H10.572C9.812 2 9.432 2 9.146 2.345C8.86 2.69 8.74 3.293 8.5 4.5" stroke-width="1.5" stroke-linecap="round" stroke-linejoin="round"/>
<path d="M4.5 10.5H19.5C20.457 11.457 22 12.79 22 14.277V17.555C22 18.094 21.62 18.547 21.117 18.61L18 19H6L2.883 18.61C2.38 18.547 2 18.094 2 17.555V14.277C2 12.79 3.543 11.457 4.5 10.5Z" stroke-width="1.5" stroke-linecap="round" stroke-linejoin="round"/>
</svg>
