<svg width="24" height="24" viewBox="0 0 24 24" fill="none" xmlns="http://www.w3.org/2000/svg">
<path d="M7.5 21.5H15.5M12.5 5.5H10.5C9.557 5.5 9.086 5.5 8.793 5.793C8.5 6.086 8.5 6.557 8.5 7.5V9.5C8.5 10.443 8.5 10.914 8.793 11.207C9.086 11.5 9.557 11.5 10.5 11.5H12.5C13.443 11.5 13.914 11.5 14.207 11.207C14.5 10.914 14.5 10.443 14.5 9.5V7.5C14.5 6.557 14.5 6.086 14.207 5.793C13.914 5.5 13.443 5.5 12.5 5.5ZM13 11.5H10V21.5H13V11.5ZM14.5 7H18.5C19.2956 7 20.0587 7.31607 20.6213 7.87868C21.1839 8.44129 21.5 9.20435 21.5 10V12.5H18.5V10H14.5V7Z" stroke-width="1.5" stroke-linecap="round" stroke-linejoin="round"/>
<path d="M14.5 2.5H9.1C7.838 2.5 7.207 2.5 6.71 2.823C6.213 3.146 5.957 3.723 5.444 4.875L2.5 11.5" stroke-width="1.5" stroke-linecap="round" stroke-linejoin="round"/>
<path d="M20 15.4998L20.558 14.9998C20.4877 14.9215 20.4016 14.8589 20.3055 14.816C20.2094 14.7731 20.1053 14.751 20 14.751C19.8947 14.751 19.7906 14.7731 19.6945 14.816C19.5984 14.8589 19.5123 14.9215 19.442 14.9998L20 15.4998ZM20.75 17.9998C20.75 18.1988 20.671 18.3895 20.5303 18.5302C20.3897 18.6708 20.1989 18.7498 20 18.7498V20.2498C20.5967 20.2498 21.169 20.0128 21.591 19.5908C22.0129 19.1689 22.25 18.5966 22.25 17.9998H20.75ZM20 18.7498C19.8011 18.7498 19.6103 18.6708 19.4697 18.5302C19.329 18.3895 19.25 18.1988 19.25 17.9998H17.75C17.75 18.5966 17.9871 19.1689 18.409 19.5908C18.831 20.0128 19.4033 20.2498 20 20.2498V18.7498ZM19.25 17.9998C19.25 18.0028 19.25 17.9688 19.277 17.8888C19.3017 17.8115 19.343 17.7162 19.401 17.6028C19.518 17.3758 19.682 17.1228 19.859 16.8768C20.0743 16.5792 20.3033 16.2915 20.545 16.0148L20.555 16.0028L20.558 16.0008L20 15.4998L19.442 14.9998H19.44L19.435 15.0048L19.421 15.0218C19.3422 15.1119 19.2646 15.2029 19.188 15.2948C19.04 15.4728 18.842 15.7218 18.641 16.0008C18.443 16.2758 18.231 16.5968 18.068 16.9158C17.916 17.2098 17.75 17.6048 17.75 17.9998H19.25ZM20 15.4998L19.442 15.9998L19.444 16.0028L19.454 16.0148C19.5232 16.0928 19.5909 16.1722 19.657 16.2528C19.79 16.4128 19.967 16.6338 20.141 16.8768C20.318 17.1228 20.481 17.3758 20.599 17.6028C20.657 17.7162 20.6983 17.8115 20.723 17.8888C20.749 17.9688 20.75 18.0028 20.75 17.9998H22.25C22.25 17.6048 22.084 17.2118 21.933 16.9168C21.7639 16.5981 21.5721 16.292 21.359 16.0008C21.1148 15.6625 20.8545 15.3361 20.579 15.0228L20.564 15.0058L20.56 14.9998L20 15.4998Z" fill="black"/>
<path d="M11.5 2.5V5.5" stroke-width="1.5" stroke-linecap="round" stroke-linejoin="round"/>
</svg>
