<svg width="24" height="24" viewBox="0 0 24 24" fill="none" xmlns="http://www.w3.org/2000/svg">
<path d="M8 3.478C9.149 2.543 10.52 2 11.995 2C13.473 2 14.849 2.547 16 3.487M14.174 6C13.5221 5.58557 12.7664 5.36371 11.994 5.36C11.2255 5.3638 10.4736 5.58348 9.824 5.994M12 9H12.006M18 17H18.009M14 17H14.009M6 17H10M18 21H6C4.114 21 3.172 21 2.586 20.414C2 19.828 2 18.886 2 17C2 15.114 2 14.172 2.586 13.586C3.172 13 4.114 13 6 13H18C19.886 13 20.828 13 21.414 13.586C22 14.172 22 15.114 22 17C22 18.886 22 19.828 21.414 20.414C20.828 21 19.886 21 18 21Z" stroke-width="1.5" stroke-linecap="round" stroke-linejoin="round"/>
</svg>
