<svg width="24" height="24" viewBox="0 0 24 24" fill="none" xmlns="http://www.w3.org/2000/svg">
<path d="M6.5 17.33C7.15457 18.1626 7.98981 18.8357 8.94261 19.2982C9.89541 19.7607 10.9409 20.0007 12 20C12.9314 20.0011 13.8537 19.8158 14.7124 19.455C15.5711 19.0941 16.3489 18.5651 17 17.899M8.5 6.936C9.56376 6.32094 10.7712 5.99803 12 6C13.959 6 15.73 6.804 17 8.101M4 9C5.105 9 6 8.38 6 7C6 5.62 5.105 4 4 4C2.895 4 2 5.62 2 7C2 8.38 2.895 9 4 9ZM4 9V20M19.5 13V4H20C20.5304 4 21.0391 4.21071 21.4142 4.58579C21.7893 4.96086 22 5.46957 22 6V13H19.5ZM19.5 13V20M16 13C16 14.0609 15.5786 15.0783 14.8284 15.8284C14.0783 16.5786 13.0609 17 12 17C10.9391 17 9.92172 16.5786 9.17157 15.8284C8.42143 15.0783 8 14.0609 8 13C8 11.9391 8.42143 10.9217 9.17157 10.1716C9.92172 9.42143 10.9391 9 12 9C13.0609 9 14.0783 9.42143 14.8284 10.1716C15.5786 10.9217 16 11.9391 16 13Z" stroke-width="1.5" stroke-linecap="round" stroke-linejoin="round"/>
</svg>
