<svg width="24" height="24" viewBox="0 0 24 24" fill="none" xmlns="http://www.w3.org/2000/svg">
<path d="M2 3H6.733C9.343 3 10.649 3 11.868 3.401C13.087 3.802 14.137 4.578 16.238 6.129L19.928 8.855L20.008 8.915C20.6334 9.38592 21.1394 9.99709 21.4854 10.6993C21.8314 11.4015 22.0076 12.1752 22 12.958V13.031C21.992 13.5505 21.7821 14.0466 21.4148 14.4141C21.0475 14.7816 20.5515 14.9917 20.032 15H2" stroke-width="1.5" stroke-linecap="round" stroke-linejoin="round"/>
<path d="M2 11H6.095C8.689 11 9.985 11 11.185 11.451C12.385 11.901 13.398 12.77 15.424 14.506L16 15M10 7H17M2 19H22M18 19V21M12 19V21M6 19V21" stroke-width="1.5" stroke-linecap="round" stroke-linejoin="round"/>
</svg>
