<svg width="24" height="24" viewBox="0 0 24 24" fill="none" xmlns="http://www.w3.org/2000/svg">
<path d="M2 21.193C2.685 22.244 3.571 22.244 4.273 21.193C6.53 17.741 8.68 23.676 10.273 21.233C12.703 17.569 14.451 23.922 16.273 21.193C18.649 17.558 20.13 23.578 22 21.584M3.572 17L2.075 12.646C1.804 11.857 2.303 11 3.033 11H20.858C23.952 11 19.994 17 17.997 17M18 11L15.201 7.501C14.8263 7.03267 14.351 6.65461 13.8105 6.39479C13.2699 6.13497 12.6778 6.00004 12.078 6H8C7.46957 6 6.96086 6.21071 6.58579 6.58579C6.21071 6.96086 6 7.46957 6 8V11M10 6V3C10 2.73478 9.89464 2.48043 9.70711 2.29289C9.51957 2.10536 9.26522 2 9 2H8" stroke-width="1.5" stroke-linecap="round" stroke-linejoin="round"/>
</svg>
