<svg width="24" height="24" viewBox="0 0 24 24" fill="none" xmlns="http://www.w3.org/2000/svg">
<path d="M7.729 15.2859H12.729M10.227 12.7859H10.237M10.229 17.7859H10.239M6.5 3.69688C9.533 6.78188 14.536 0.123876 17.496 2.53988C19.199 3.92988 18.66 6.99988 16.449 8.99988" stroke-width="1.5" stroke-linecap="round" stroke-linejoin="round"/>
<path d="M18.6641 6.578C19.6471 6.757 19.8681 7.343 20.1611 8.97C20.4261 10.436 20.5001 12.195 20.5001 12.944C20.4701 13.2215 20.3516 13.482 20.1621 13.687C18.1051 15.722 14.0251 19.565 11.9661 21.474C11.1581 22.155 9.93807 22.17 9.08007 21.544C7.32407 20.053 5.63707 18.366 3.98307 16.843C3.31907 16.035 3.33507 14.887 4.05907 14.126C6.23707 11.991 10.1791 8.337 12.4051 6.319C12.6281 6.139 12.9011 6.025 13.1951 6C13.6931 6 14.5501 6.063 15.3851 6.109" stroke-width="1.5" stroke-linecap="round" stroke-linejoin="round"/>
</svg>
