<svg width="24" height="24" viewBox="0 0 24 24" fill="none" xmlns="http://www.w3.org/2000/svg">
<path d="M8 5C5.239 5 3 8.014 3 11.028C3 14.544 3.5 17.056 5.5 20.07C7.02 22.106 9.05 22.617 11.214 21.19C11.4492 21.0412 11.7217 20.9622 12 20.9622C12.2783 20.9622 12.5508 21.0412 12.786 21.19C14.95 22.617 16.98 22.106 18.5 20.07C20.5 17.056 21 14.544 21 11.028C21 8.014 18.761 5 16 5C14.575 5 13.289 5.785 12.378 6.633C12.2751 6.72809 12.1401 6.7809 12 6.7809C11.8599 6.7809 11.7249 6.72809 11.622 6.633C10.712 5.785 9.425 5 8 5Z" stroke-width="1.5" stroke-linecap="round" stroke-linejoin="round"/>
<path d="M6 12C6 10.367 6.823 8.733 8 8M12 6C12 4.667 12.6 2 15 2" stroke-width="1.5" stroke-linecap="round" stroke-linejoin="round"/>
</svg>
