<svg width="24" height="24" viewBox="0 0 24 24" fill="none" xmlns="http://www.w3.org/2000/svg">
<path d="M6.5 21V11.5C6.5 10.0413 7.07946 8.64236 8.11091 7.61091C9.14236 6.57946 10.5413 6 12 6C13.4587 6 14.8576 6.57946 15.8891 7.61091C16.9205 8.64236 17.5 10.0413 17.5 11.5V21" stroke-width="1.5" stroke-linecap="round" stroke-linejoin="round"/>
<path d="M3 13V12C3 9.61305 3.94821 7.32387 5.63604 5.63604C7.32387 3.94821 9.61305 3 12 3C14.3869 3 16.6761 3.94821 18.364 5.63604C20.0518 7.32387 21 9.61305 21 12V13" stroke-width="1.5" stroke-linecap="round" stroke-linejoin="round"/>
<path d="M14.5 11.5C14.5 10.837 14.2366 10.2011 13.7678 9.73223C13.2989 9.26339 12.663 9 12 9C11.337 9 10.7011 9.26339 10.2322 9.73223C9.76339 10.2011 9.5 10.837 9.5 11.5V12.75C9.5 13.44 10.06 14 10.75 14H13.25C13.94 14 14.5 13.44 14.5 12.75V11.5Z" stroke-width="1.5" stroke-linecap="round" stroke-linejoin="round"/>
</svg>
