<svg width="24" height="24" viewBox="0 0 24 24" fill="none" xmlns="http://www.w3.org/2000/svg">
<path d="M4.49724 22C3.80424 21.307 3.45924 20.548 3.37924 19.59C3.25324 18.078 3.00024 15 3.00024 15M3.00024 15C3.00024 15 3.25324 11.923 3.38024 10.41C3.45924 9.452 3.80424 8.693 4.49724 8M3.00024 15H9.00024M19.5032 22C20.1962 21.307 20.5412 20.548 20.6212 19.59C20.7472 18.078 21.0002 15 21.0002 15M21.0002 15C21.0002 15 20.7472 11.923 20.6202 10.41C20.5412 9.452 20.1962 8.693 19.5032 8M21.0002 15H15.0002M3.00024 22H21.0002M9.00024 22V14C9.00024 12.345 9.34524 12 11.0002 12H13.0002C14.6552 12 15.0002 12.345 15.0002 14V22M12.0092 15H12.0002M10.1572 2.456C7.44624 3.522 5.26724 5.135 3.84324 6.462C3.21924 7.044 2.90724 7.334 3.02424 7.667C3.14124 8 3.57524 8 4.44424 8H19.5572C20.4252 8 20.8592 8 20.9762 7.667C21.0932 7.334 20.7812 7.044 20.1562 6.462C18.7342 5.135 16.5542 3.522 13.8432 2.456C13.0702 2.152 12.6832 2 12.0002 2C11.3172 2 10.9302 2.152 10.1572 2.456Z" stroke-width="1.5" stroke-linecap="round" stroke-linejoin="round"/>
</svg>
