<svg width="24" height="24" viewBox="0 0 24 24" fill="none" xmlns="http://www.w3.org/2000/svg">
<path d="M5.46 20.0002L20.556 8.69021C20.9735 8.3645 21.3171 7.9538 21.5639 7.4853C21.8108 7.01681 21.9553 6.50121 21.9878 5.97267C22.0204 5.44413 21.9402 4.9147 21.7528 4.41945C21.5653 3.92421 21.2747 3.47445 20.9003 3.09997C20.5259 2.72549 20.0762 2.43483 19.581 2.24726C19.0858 2.05968 18.5564 1.97946 18.0278 2.01191C17.4993 2.04436 16.9836 2.18874 16.5151 2.4355C16.0466 2.68225 15.6358 3.02573 15.31 3.44321L4 18.5412" stroke-width="1.5" stroke-linecap="round" stroke-linejoin="round"/>
<path d="M9.99953 17L6.99953 14M5.57753 21.843C7.07953 19.771 4.24553 16.911 2.15753 18.425C2.1129 18.4572 2.07581 18.4988 2.04881 18.5467C2.02182 18.5947 2.00558 18.648 2.0012 18.7029C1.99683 18.7577 2.00443 18.8129 2.02348 18.8646C2.04253 18.9162 2.07257 18.9631 2.11153 19.002L4.99953 21.888C5.16553 22.054 5.43953 22.032 5.57753 21.843Z" stroke-width="1.5" stroke-linecap="round" stroke-linejoin="round"/>
<path d="M18.5 21C17.1193 21 16 19.8807 16 18.5C16 17.1193 17.1193 16 18.5 16C19.8807 16 21 17.1193 21 18.5C21 19.8807 19.8807 21 18.5 21Z" stroke-width="1.5" stroke-linecap="round" stroke-linejoin="round"/>
</svg>
