<svg width="24" height="24" viewBox="0 0 24 24" fill="none" xmlns="http://www.w3.org/2000/svg">
<path d="M17.4034 5.83785C17.8149 5.42482 18.35 5.1573 18.9274 5.07585M18.9274 5.07585C19.3468 5.01622 19.7743 5.05631 20.1753 5.19285C20.5764 5.3294 20.9395 5.55856 21.2354 5.86174C21.5313 6.16491 21.7515 6.53357 21.8783 6.9378C22.005 7.34202 22.0346 7.77043 21.9648 8.18826C21.895 8.6061 21.7276 9.00158 21.4763 9.34263C21.2251 9.68368 20.8969 9.96069 20.5185 10.1512C20.1402 10.3417 19.7222 10.4403 19.2986 10.439C18.8749 10.4377 18.4576 10.3366 18.0804 10.1438C17.6674 9.93085 17.1364 9.91585 16.8074 10.2438L10.2474 16.8038C9.91936 17.1338 9.93436 17.6638 10.1474 18.0778C10.3407 18.4553 10.4423 18.873 10.4439 19.297C10.4455 19.7211 10.3471 20.1396 10.1566 20.5184C9.96603 20.8973 9.68882 21.2259 9.34744 21.4775C9.00606 21.7291 8.61015 21.8966 8.19186 21.9664C7.77358 22.0362 7.34472 22.0064 6.94013 21.8793C6.53555 21.7523 6.16664 21.5315 5.86339 21.2351C5.56013 20.9387 5.33109 20.5749 5.19486 20.1733C5.05863 19.7717 5.01906 19.3436 5.07936 18.9238M18.9274 5.07585C18.9872 4.65633 18.9474 4.22861 18.8109 3.82741C18.6745 3.4262 18.4454 3.06282 18.1422 2.76677C17.839 2.47072 17.4703 2.25033 17.0659 2.12351C16.6616 1.9967 16.233 1.96701 15.8151 2.03688C15.3971 2.10675 15.0015 2.27419 14.6604 2.52562C14.3193 2.77705 14.0423 3.10538 13.8518 3.48395C13.6614 3.86252 13.5629 4.28065 13.5644 4.70442C13.5659 5.12818 13.6673 5.54562 13.8604 5.92285C14.0724 6.33585 14.0874 6.86685 13.7594 7.19585L7.19936 13.7558C6.86936 14.0838 6.33936 14.0688 5.92536 13.8558C5.54794 13.6625 5.13023 13.5609 4.70616 13.5593C4.28209 13.5577 3.86362 13.6561 3.48476 13.8467C3.10589 14.0372 2.77732 14.3144 2.52573 14.6558C2.27413 14.9971 2.10662 15.3931 2.0368 15.8113C1.96697 16.2296 1.99681 16.6585 2.12388 17.0631C2.25094 17.4677 2.47166 17.8366 2.7681 18.1398C3.06454 18.4431 3.42833 18.6721 3.82993 18.8083C4.23153 18.9446 4.65959 18.9841 5.07936 18.9238M5.07936 18.9238C5.65629 18.841 6.19092 18.5737 6.60336 18.1618" stroke-width="1.5" stroke-linecap="round" stroke-linejoin="round"/>
</svg>
