<svg width="24" height="24" viewBox="0 0 24 24" fill="none" xmlns="http://www.w3.org/2000/svg">
<path d="M9.15856 5.712L8.75556 4.806C8.49256 4.214 8.36056 3.918 8.16356 3.691C7.9171 3.40671 7.59545 3.19771 7.23556 3.088C6.94856 3 6.62456 3 5.97556 3C5.02756 3 4.55356 3 4.15556 3.182C3.66458 3.42054 3.28454 3.83927 3.09456 4.351C2.95156 4.764 2.99256 5.189 3.07456 6.04C3.94789 15.09 8.90989 20.0517 17.9606 20.925C18.8106 21.007 19.2356 21.048 19.6496 20.905C20.1607 20.715 20.579 20.3354 20.8176 19.845C20.9996 19.446 20.9996 18.972 20.9996 18.024C20.9996 17.375 20.9996 17.051 20.9116 16.764C20.8018 16.4041 20.5928 16.0825 20.3086 15.836C20.0826 15.639 19.7856 15.508 19.1936 15.244L18.2876 14.842C17.6456 14.557 17.3256 14.414 16.9996 14.383C16.6874 14.353 16.3726 14.3969 16.0806 14.511C15.7756 14.63 15.5066 14.854 14.9666 15.304C14.4296 15.751 14.1616 15.974 13.8336 16.094C13.5187 16.2029 13.183 16.2374 12.8526 16.195C12.5066 16.145 12.2426 16.003 11.7126 15.72C10.0676 14.84 9.15956 13.933 8.27956 12.287C7.99656 11.757 7.85556 11.493 7.80456 11.147C7.76196 10.817 7.79618 10.4816 7.90456 10.167C8.02456 9.838 8.24856 9.57 8.69556 9.033C9.14556 8.493 9.37056 8.224 9.48856 7.919C9.60256 7.627 9.64656 7.312 9.61656 7C9.58656 6.675 9.44356 6.354 9.15756 5.712" stroke-width="1.5" stroke-linecap="round" stroke-linejoin="round"/>
</svg>
