<svg width="24" height="24" viewBox="0 0 24 24" fill="none" xmlns="http://www.w3.org/2000/svg">
<path d="M19.5 19C20.8807 19 22 17.8807 22 16.5C22 15.1193 20.8807 14 19.5 14C18.1193 14 17 15.1193 17 16.5C17 17.8807 18.1193 19 19.5 19Z" stroke-width="1.5" stroke-linecap="round" stroke-linejoin="round"/>
<path d="M4.5 19C5.88071 19 7 17.8807 7 16.5C7 15.1193 5.88071 14 4.5 14C3.11929 14 2 15.1193 2 16.5C2 17.8807 3.11929 19 4.5 19Z" stroke-width="1.5" stroke-linecap="round" stroke-linejoin="round"/>
<path d="M20.2355 7.87C21.5165 9.429 21.9625 10.912 21.9995 11.696C21.3038 11.3782 20.5475 11.2148 19.7825 11.217C17.3375 11.217 15.1425 12.843 14.6185 15.009C14.4925 15.527 14.4305 15.786 14.2945 15.893C14.1585 16 13.9385 16 13.4995 16H10.6215C10.1785 16 9.95754 16 9.82154 15.892C9.68454 15.782 9.62454 15.525 9.50554 15.009C9.00954 12.871 6.99754 11.012 4.90254 11.169C4.69154 11.186 4.58554 11.194 4.51254 11.177C4.44154 11.161 4.36854 11.12 4.22254 11.037C3.80154 10.8 3.37154 10.574 2.95854 10.323C2.67544 10.1505 2.43967 9.91025 2.27245 9.62397C2.10522 9.3377 2.01179 9.01435 2.00054 8.683C1.98754 8.299 2.20754 7.919 2.65254 8.023L9.07254 9.534C9.55554 9.648 9.79654 9.704 10.0035 9.666C10.2105 9.628 10.4655 9.454 10.9735 9.106C12.2615 8.226 14.3035 7.393 16.3385 8.128C16.8955 8.329 17.1745 8.43 17.3325 8.435C17.4925 8.44 17.7245 8.372 18.1895 8.237C18.8557 8.04027 19.5415 7.9172 20.2345 7.87C19.4325 6.892 18.3005 5.885 16.7345 5" stroke-width="1.5" stroke-linecap="round" stroke-linejoin="round"/>
</svg>
