<svg width="24" height="24" viewBox="0 0 24 24" fill="none" xmlns="http://www.w3.org/2000/svg">
<path d="M7 6.99975C10.889 5.66675 13.111 5.66675 17 6.99975M7 16.9998C10.5 18.3328 13.5 18.3328 17 16.9998" stroke-width="1.5" stroke-linecap="round" stroke-linejoin="round"/>
<path d="M8.85711 17.625C8.85711 18.75 6.73711 21 6.19211 21C4.55911 21 3.10911 19.125 2.38311 17.625C1.65711 15.75 1.83911 11.063 4.01511 4.688C5.60111 3.546 7.19511 3.18 8.85711 3L10.0001 6M15.1431 17.625C15.1431 18.75 17.2631 21 17.8081 21C19.4411 21 20.8911 19.125 21.6171 17.625C22.3431 15.75 22.1611 11.063 19.9851 4.688C18.3991 3.546 16.8051 3.18 15.1431 3L14.0001 6M7.51011 12H7.50011M16.5001 12H16.4901" stroke-width="1.5" stroke-linecap="round" stroke-linejoin="round"/>
</svg>
