<svg width="24" height="24" viewBox="0 0 24 24" fill="none" xmlns="http://www.w3.org/2000/svg">
<path d="M6 10V5M11 10V5M16 10V5.5M5.012 17C3.592 17 2.882 17 2.441 16.56C2 16.121 2 15.414 2 14V8C2 6.586 2 5.879 2.441 5.44C2.882 5.001 3.592 5 5.012 5H12.097C15.57 5 17.307 5 18.637 5.706C19.615 6.226 20.431 7.006 20.993 7.958C21.757 9.251 21.829 10.979 21.973 14.436C22.013 15.368 22.033 15.834 21.85 16.186C21.716 16.446 21.51 16.66 21.255 16.804C20.909 17 20.441 17 19.505 17H19M9 17H15" stroke-width="1.5" stroke-linecap="round" stroke-linejoin="round"/>
<path d="M1.99219 10.001H15.3602C15.9872 10.001 16.2002 10.368 16.6802 10.944C17.2322 11.484 17.6052 11.863 18.1202 11.94C18.8402 12.048 21.5042 11.994 21.5042 11.994M7.00019 19C7.53062 19 8.03933 18.7893 8.4144 18.4142C8.78947 18.0391 9.00019 17.5304 9.00019 17C9.00019 16.4695 8.78947 15.9608 8.4144 15.5858C8.03933 15.2107 7.53062 15 7.00019 15C6.46975 15 5.96105 15.2107 5.58597 15.5858C5.2109 15.9608 5.00019 16.4695 5.00019 17C5.00019 17.5304 5.2109 18.0391 5.58597 18.4142C5.96105 18.7893 6.46975 19 7.00019 19ZM17.0002 19C17.5306 19 18.0393 18.7893 18.4144 18.4142C18.7895 18.0391 19.0002 17.5304 19.0002 17C19.0002 16.4695 18.7895 15.9608 18.4144 15.5858C18.0393 15.2107 17.5306 15 17.0002 15C16.4698 15 15.961 15.2107 15.586 15.5858C15.2109 15.9608 15.0002 16.4695 15.0002 17C15.0002 17.5304 15.2109 18.0391 15.586 18.4142C15.961 18.7893 16.4698 19 17.0002 19Z" stroke-width="1.5" stroke-linecap="round" stroke-linejoin="round"/>
</svg>
