<svg width="24" height="24" viewBox="0 0 24 24" fill="none" xmlns="http://www.w3.org/2000/svg">
<path d="M4.5 13C4.5 11.6739 5.02678 10.4021 5.96447 9.46447C6.90215 8.52678 8.17392 8 9.5 8C10.8261 8 12.0979 8.52678 13.0355 9.46447C13.9732 10.4021 14.5 11.6739 14.5 13V18C14.5 19.886 14.5 20.828 13.914 21.414C13.328 22 12.386 22 10.5 22H8.5C6.614 22 5.672 22 5.086 21.414C4.5 20.828 4.5 19.886 4.5 18V13Z" stroke-width="1.5" stroke-linecap="round" stroke-linejoin="round"/>
<path d="M14.5 13.112C10.86 9.839 8.89 14.941 4.5 13.842M7.5 8V7C7.5 6.057 7.5 5.586 7.793 5.293C8.086 5 8.557 5 9.5 5M9.5 5C10.443 5 10.914 5 11.207 5.293C11.5 5.586 11.5 6.057 11.5 7V8M9.5 5V2M9.5 2H7.5M9.5 2H12.923C13.912 2 14.749 2.39 15.5 3M19.441 8.973C19.671 9.846 19.206 10.731 18.403 10.95C17.599 11.17 16.763 10.64 16.533 9.767C16.303 8.895 17.363 7 17.363 7C17.363 7 19.212 8.1 19.441 8.973Z" stroke-width="1.5" stroke-linecap="round" stroke-linejoin="round"/>
</svg>
