<svg width="24" height="24" viewBox="0 0 24 24" fill="none" xmlns="http://www.w3.org/2000/svg">
<path d="M12 22C17.5228 22 22 17.5228 22 12C22 6.47715 17.5228 2 12 2C6.47715 2 2 6.47715 2 12C2 17.5228 6.47715 22 12 22Z" stroke-width="1.5" stroke-linecap="round" stroke-linejoin="round"/>
<path d="M14 16C13.427 16.632 12.74 17 12 17C11.26 17 10.573 16.632 10 16M9 11.5C8.714 11.184 8.37 11 8 11C7.63 11 7.286 11.184 7 11.5M17 11.5C16.714 11.184 16.37 11 16 11C15.63 11 15.286 11.184 15 11.5M12 2C11.5137 1.99999 11.0347 2.11819 10.6042 2.34443C10.1738 2.57068 9.80475 2.89817 9.52897 3.29871C9.25319 3.69925 9.07892 4.16083 9.02116 4.64368C8.9634 5.12654 9.02389 5.61619 9.19741 6.07048C9.37094 6.52476 9.65229 6.93006 10.0173 7.25144C10.3822 7.57283 10.8198 7.80069 11.2924 7.91538C11.765 8.03006 12.2584 8.02815 12.73 7.9098C13.2017 7.79145 13.6375 7.56021 14 7.236" stroke-width="1.5" stroke-linecap="round" stroke-linejoin="round"/>
</svg>
