<svg width="24" height="24" viewBox="0 0 24 24" fill="none" xmlns="http://www.w3.org/2000/svg">
<path d="M3 22V7C3 4.643 3 3.464 3.732 2.732C4.464 2 5.643 2 8 2H11C13.357 2 14.536 2 15.268 2.732C16 3.464 16 4.643 16 7V22M2 22H17M3 11H16M21 8.527L21.447 8.305C21.717 8.172 21.851 8.105 21.925 7.986C22 7.866 22 7.718 22 7.42V6.726C22 6.083 22 5.761 21.826 5.613C21.7707 5.56594 21.7059 5.53148 21.636 5.512C21.414 5.45 21.143 5.629 20.602 5.986C19.907 6.444 19.56 6.673 19.338 7C19.2649 7.10863 19.2026 7.22419 19.152 7.345C19 7.708 19 8.12 19 8.947V10.58C19 10.812 19.19 11 19.425 11C19.5941 11.0005 19.7595 10.9505 19.9001 10.8564C20.0406 10.7624 20.1499 10.6285 20.214 10.472L21 8.527Z" stroke-width="1.5" stroke-linecap="round" stroke-linejoin="round"/>
<path d="M19.4778 11C19.6778 12.386 20.1448 13.97 19.9548 15.38C19.7838 16.657 18.7728 17.688 17.4428 17.941C17.1328 18 16.7548 18 15.9998 18M10.2498 14L8.30384 15.917C8.06684 16.174 7.94784 16.302 8.02184 16.401C8.09484 16.5 8.30884 16.5 8.73684 16.5H10.2618C10.6908 16.5 10.9048 16.5 10.9778 16.599C11.0518 16.699 10.9328 16.826 10.6958 17.083L8.73684 19" stroke-width="1.5" stroke-linecap="round" stroke-linejoin="round"/>
</svg>
