<svg width="24" height="24" viewBox="0 0 24 24" fill="none" xmlns="http://www.w3.org/2000/svg">
<path d="M15.5004 2V6M8.50042 6V2M12.0004 17V22M11.0004 9H13.0004M6.00442 7.613C5.93742 6.743 6.64042 6 7.53042 6H16.4704C17.3604 6 18.0634 6.743 17.9964 7.613L17.8124 9.992C17.6774 11.7058 17.0984 13.3549 16.1324 14.777L15.5324 15.662C15.2487 16.0758 14.8681 16.4139 14.4239 16.6471C13.9796 16.8803 13.4851 17.0015 12.9834 17H11.0154C10.514 17.0011 10.02 16.8798 9.57609 16.6467C9.13223 16.4135 8.752 16.0755 8.46842 15.662L7.86742 14.777C6.90147 13.3549 6.32247 11.7058 6.18742 9.992L6.00442 7.613Z" stroke-width="1.5" stroke-linecap="round" stroke-linejoin="round"/>
</svg>
