<svg width="24" height="24" viewBox="0 0 24 24" fill="none" xmlns="http://www.w3.org/2000/svg">
<path d="M17.9992 12C17.9992 11.337 17.7359 10.7011 17.267 10.2322C16.7982 9.76339 16.1623 9.5 15.4992 9.5C14.8362 9.5 14.2003 9.76339 13.7315 10.2322C13.2626 10.7011 12.9992 11.337 12.9992 12M5.99924 3V12M8.49924 2.5V7.5M10.9992 2V7.5M3.99924 4.5L5.99924 4.188M19.9992 2L13.4992 3.016M3.99924 7L5.99924 6.875M19.9992 6L13.4992 6.406M4.91024 12H19.0892C20.6912 12 21.2792 12.37 20.8792 13.982C20.1732 16.825 18.1762 17.531 16.3302 19.386C15.8822 19.836 16.5802 20.503 16.5802 20.999C16.5802 21.933 15.6932 22 14.9852 22H9.01524C8.30724 22 7.41924 21.933 7.42024 21C7.42024 20.514 8.09724 19.816 7.67024 19.386C5.82424 17.531 3.82724 16.825 3.12124 13.982C2.72124 12.371 3.30924 12 4.91124 12" stroke-width="1.5" stroke-linecap="round" stroke-linejoin="round"/>
</svg>
