<svg width="24" height="24" viewBox="0 0 24 24" fill="none" xmlns="http://www.w3.org/2000/svg">
<path d="M6.5 22C8.433 22 10 20.433 10 18.5C10 16.567 8.433 15 6.5 15C4.567 15 3 16.567 3 18.5C3 20.433 4.567 22 6.5 22Z" stroke-width="1.5" stroke-linecap="round" stroke-linejoin="round"/>
<path d="M18 19C19.6569 19 21 17.6569 21 16C21 14.3431 19.6569 13 18 13C16.3431 13 15 14.3431 15 16C15 17.6569 16.3431 19 18 19Z" stroke-width="1.5" stroke-linecap="round" stroke-linejoin="round"/>
<path d="M10 18.5V6.99996C10 6.07696 10 5.61496 10.264 5.32796C10.527 5.04096 11.018 4.99896 11.999 4.91496C16.022 4.57196 18.909 3.25996 20.355 2.40996C20.651 2.23596 20.799 2.14996 20.899 2.20696C20.999 2.26396 21 2.43196 21 2.76596V16" stroke-width="1.5" stroke-linecap="round" stroke-linejoin="round"/>
<path d="M10 10C15.867 10 19.778 7.667 21 7" stroke-width="1.5" stroke-linecap="round" stroke-linejoin="round"/>
</svg>
