<svg width="24" height="24" viewBox="0 0 24 24" fill="none" xmlns="http://www.w3.org/2000/svg">
<path d="M10.0003 15.845L6.68626 19.159C7.45826 19.709 7.56226 20.866 6.88626 21.542C6.74092 21.6874 6.56835 21.8028 6.3784 21.8815C6.18846 21.9602 5.98486 22.0008 5.77926 22.0008C5.57365 22.0008 5.37005 21.9602 5.18011 21.8815C4.99017 21.8028 4.81759 21.6874 4.67226 21.542C4.19026 21.06 4.02526 20.279 4.30326 19.697C3.72126 19.975 2.94026 19.81 2.45826 19.328C2.16484 19.0345 2 18.6365 2 18.2215C2 17.8065 2.16484 17.4085 2.45826 17.115C3.13426 16.439 4.29126 16.542 4.84126 17.315L8.15526 14" stroke-width="1.5" stroke-linecap="round" stroke-linejoin="round"/>
<path d="M12.5373 3.68184C14.8713 1.34784 18.1693 1.53284 20.3183 3.68184C22.0333 5.39684 22.4983 7.84384 21.4283 9.94884C19.6533 7.59484 15.6583 9.39884 16.4053 12.3558C14.7573 11.6698 13.3433 13.7888 14.4783 15.0628C12.0983 16.0318 9.73031 16.4378 8.64631 15.3528C6.49731 13.2048 10.2033 6.01584 12.5373 3.68184Z" stroke-width="1.5" stroke-linecap="round" stroke-linejoin="round"/>
</svg>
