<svg width="24" height="24" viewBox="0 0 24 24" fill="none" xmlns="http://www.w3.org/2000/svg">
<path d="M20.193 12.9993C20.5932 13.6819 20.8544 14.437 20.9616 15.221C21.0688 16.0049 21.0199 16.8024 20.8176 17.5674C20.6153 18.3324 20.2638 19.0498 19.7831 19.6784C19.3025 20.3069 18.7022 20.8342 18.017 21.2299C17.3317 21.6255 16.575 21.8817 15.7903 21.9837C15.0056 22.0857 14.2085 22.0315 13.4449 21.8242C12.6812 21.6168 11.9661 21.2605 11.3408 20.7757C10.7154 20.2909 10.1921 19.6872 9.80101 18.9993M20.193 12.9993C19.3917 11.6325 18.0823 10.6381 16.5505 10.2331C15.0187 9.8281 13.389 10.0454 12.0168 10.8377C10.6447 11.6299 9.64164 12.9327 9.22651 14.4617C8.81138 15.9908 9.0179 17.622 9.80101 18.9993M20.193 12.9993L9.80101 18.9993M10.043 5.5423L15.128 2.5373C17 1.4313 19.394 2.0873 20.475 4.0043C20.8881 4.73779 21.0642 5.5811 20.9792 6.41861C20.8941 7.25612 20.5521 8.04682 20 8.6823M10.043 5.5423L4.95801 8.5473C3.08601 9.6533 2.44401 12.1033 3.52501 14.0193C3.82708 14.5627 4.2547 15.0261 4.77221 15.3707C5.28972 15.7153 5.88212 15.9311 6.50001 16.0003M10.043 5.5423L11.5 8.0003" stroke-width="1.5" stroke-linecap="round" stroke-linejoin="round"/>
</svg>
