<svg width="24" height="24" viewBox="0 0 24 24" fill="none" xmlns="http://www.w3.org/2000/svg">
<path d="M11.0002 13H13.0002M12.0002 9V3M20.1532 20.917C22.0142 20.329 22.5602 16.755 21.3712 12.934C20.1822 9.113 17.7092 6.494 15.8472 7.083C14.6972 7.446 14.6442 8.862 13.6972 9.378C13.4732 9.5 13.1602 9.5 12.5322 9.5H11.4682C10.8412 9.5 10.5272 9.5 10.3032 9.378C9.35616 8.862 9.30316 7.446 8.15316 7.083C6.29116 6.494 3.81816 9.114 2.62916 12.934C1.44016 16.754 1.98616 20.329 3.84716 20.917C5.20716 21.347 6.89116 20.067 8.16416 17.858C9.01416 16.385 9.39816 16 11.1042 16H12.8962C14.6022 16 14.9862 16.385 15.8362 17.858C17.1092 20.067 18.7942 21.346 20.1532 20.917Z" stroke-width="1.5" stroke-linecap="round" stroke-linejoin="round"/>
</svg>
