<svg width="24" height="24" viewBox="0 0 24 24" fill="none" xmlns="http://www.w3.org/2000/svg">
<path d="M16 8C15.8862 8.35617 15.6975 8.68386 15.4465 8.96104C15.1955 9.23822 14.8882 9.45848 14.545 9.607C12.2643 10.6183 10.6187 12.264 9.608 14.544C9.45949 14.8874 9.23913 15.1951 8.96176 15.4462C8.6844 15.6974 8.35645 15.8862 8 16M3.2 20.8L2 22M20.8 3.2L22 2M17.788 2.42L16.276 3.874L20.116 7.75L21.594 6.316C22.038 5.793 22.174 5.4 21.621 4.675L20.516 3.512L19.395 2.406C18.678 1.764 18.114 2.108 17.788 2.42Z" stroke-width="1.5" stroke-linecap="round" stroke-linejoin="round"/>
<path d="M14.011 3.75611C15.121 2.58311 15.881 3.41811 16.272 3.88311L20.08 7.70611C20.554 8.08611 21.42 8.81511 20.275 9.95011C20.09 10.1331 19.909 10.3251 19.708 10.4901C18.966 11.1001 18.254 10.5951 17.877 10.1301L14.001 6.25411C13.593 5.88811 12.888 5.22411 13.483 4.33611C13.643 4.13111 13.832 3.94611 14.01 3.75611M4.58599 21.6201L3.44599 20.4911L2.36099 19.3491C1.71799 18.7061 2.08899 18.0631 2.40699 17.7441L3.88899 16.2601L7.74499 20.1331L6.22699 21.6241C5.69699 22.0571 5.33199 22.1901 4.61899 21.6241M6.22199 13.9241C5.83199 13.4591 5.07199 12.6231 3.95999 13.7971C3.78199 13.9861 3.59399 14.1711 3.43299 14.3771C2.83799 15.2641 3.54299 15.9281 3.95099 16.2951L7.82699 20.1701C8.20399 20.6351 8.91599 21.1411 9.65699 20.5301C9.85899 20.3651 10.04 20.1741 10.225 19.9901C11.371 18.8561 10.504 18.1271 10.03 17.7471L6.22199 13.9241Z" stroke-width="1.5" stroke-linecap="round" stroke-linejoin="round"/>
</svg>
