<svg width="24" height="24" viewBox="0 0 24 24" fill="none" xmlns="http://www.w3.org/2000/svg">
<path d="M2 10L7 4M7 4L12.414 9.414C12.704 9.704 12.848 9.848 13.031 9.924C13.215 10 13.42 10 13.828 10H22L18.2 5.44C17.61 4.732 17.315 4.378 16.912 4.189C16.508 4 16.048 4 15.127 4H7Z" stroke-width="1.5" stroke-linecap="round" stroke-linejoin="round"/>
<path d="M11 8V20M11 20H3V8.857M11 20H21V9M4 7.5V4M7.008 12H6.999M7 20V16M15 14H17" stroke-width="1.5" stroke-linecap="round" stroke-linejoin="round"/>
</svg>
