<svg width="24" height="24" viewBox="0 0 24 24" fill="none" xmlns="http://www.w3.org/2000/svg">
<path fill-rule="evenodd" clip-rule="evenodd" d="M5.478 1.25C5.264 1.25 5.068 1.25 4.902 1.261C4.724 1.273 4.529 1.301 4.33 1.383C3.90125 1.56061 3.56061 1.90125 3.383 2.33C3.301 2.529 3.273 2.724 3.261 2.902C3.25 3.067 3.25 3.264 3.25 3.478V3.522C3.25 3.736 3.25 3.932 3.261 4.098C3.273 4.276 3.301 4.471 3.383 4.67C3.561 5.098 3.902 5.44 4.33 5.617C4.52 5.695 4.707 5.724 4.878 5.737L3.033 7.213C2.47657 7.65807 2.0274 8.22262 1.71876 8.86483C1.41011 9.50705 1.24991 10.2105 1.25 10.923V17.552C1.25022 18.6629 1.6398 19.7386 2.351 20.592L2.386 20.635C2.718 21.033 2.932 21.29 3.172 21.509C3.88304 22.1578 4.7744 22.5752 5.728 22.706C6.05 22.75 6.383 22.75 6.902 22.75H10.5C10.6989 22.75 10.8897 22.671 11.0303 22.5303C11.171 22.3897 11.25 22.1989 11.25 22C11.25 21.8011 11.171 21.6103 11.0303 21.4697C10.8897 21.329 10.6989 21.25 10.5 21.25H6.957C6.365 21.25 6.14 21.248 5.932 21.22C5.27901 21.1304 4.66869 20.8445 4.182 20.4C4.028 20.26 3.882 20.087 3.503 19.632C3.28342 19.3671 3.10662 19.0695 2.979 18.75H10.5C10.6989 18.75 10.8897 18.671 11.0303 18.5303C11.171 18.3897 11.25 18.1989 11.25 18C11.25 17.8011 11.171 17.6103 11.0303 17.4697C10.8897 17.329 10.6989 17.25 10.5 17.25H2.75V10.922C2.75 10.8647 2.75167 10.8073 2.755 10.75H17.246C17.2487 10.8027 17.25 10.8553 17.25 10.908V12.5C17.25 12.6989 17.329 12.8897 17.4697 13.0303C17.6103 13.171 17.8011 13.25 18 13.25C18.1989 13.25 18.3897 13.171 18.5303 13.0303C18.671 12.8897 18.75 12.6989 18.75 12.5V10.908C18.75 10.2003 18.592 9.5015 18.2873 8.86273C17.9826 8.22396 17.539 7.66134 16.989 7.216L15.158 5.734C15.3337 5.72176 15.5064 5.68229 15.67 5.617C16.0987 5.43939 16.4394 5.09875 16.617 4.67C16.699 4.471 16.727 4.276 16.739 4.098C16.75 3.933 16.75 3.736 16.75 3.522V3.478C16.75 3.264 16.75 3.068 16.739 2.902C16.7298 2.70596 16.6886 2.51274 16.617 2.33C16.4394 1.90125 16.0987 1.56061 15.67 1.383C15.4873 1.31142 15.294 1.27021 15.098 1.261C14.933 1.25 14.736 1.25 14.522 1.25H5.478ZM11.643 5.75H8.403C7.657 5.75 7.461 5.76 7.288 5.82C7.115 5.88 6.955 5.996 6.373 6.462L3.97 8.385C3.664 8.629 3.41 8.923 3.213 9.25H16.795C16.5976 8.9191 16.3438 8.62533 16.045 8.382L13.688 6.474C13.102 6 12.942 5.884 12.768 5.822C12.594 5.76 12.395 5.75 11.643 5.75ZM11.942 4.25H14.5C14.743 4.25 14.888 4.25 14.996 4.242C15.0305 4.23978 15.0649 4.23578 15.099 4.23C15.1575 4.20451 15.204 4.15765 15.229 4.099C15.2351 4.06491 15.2395 4.03054 15.242 3.996C15.25 3.888 15.25 3.743 15.25 3.5C15.25 3.257 15.25 3.112 15.242 3.004C15.2398 2.96948 15.2358 2.9351 15.23 2.901C15.2045 2.84254 15.1576 2.79604 15.099 2.771C15.0649 2.76489 15.0305 2.76055 14.996 2.758C14.8308 2.75021 14.6654 2.74754 14.5 2.75H5.5C5.257 2.75 5.112 2.75 5.004 2.758C4.96948 2.76022 4.9351 2.76422 4.901 2.77C4.84254 2.79549 4.79604 2.84235 4.771 2.901C4.76489 2.93509 4.76055 2.96946 4.758 3.004C4.75021 3.16921 4.74754 3.33462 4.75 3.5C4.75 3.743 4.75 3.888 4.758 3.996C4.762 4.063 4.768 4.091 4.77 4.099C4.79549 4.15746 4.84235 4.20396 4.901 4.229C4.93509 4.23511 4.96947 4.23945 5.004 4.242C5.112 4.25 5.257 4.25 5.5 4.25H11.942Z" fill="white"/>
<path d="M10 11.25C10.1989 11.25 10.3897 11.329 10.5303 11.4697C10.671 11.6103 10.75 11.8011 10.75 12V13.25H12C12.1989 13.25 12.3897 13.329 12.5303 13.4697C12.671 13.6103 12.75 13.8011 12.75 14C12.75 14.1989 12.671 14.3897 12.5303 14.5303C12.3897 14.671 12.1989 14.75 12 14.75H10.75V16C10.75 16.1989 10.671 16.3897 10.5303 16.5303C10.3897 16.671 10.1989 16.75 10 16.75C9.80109 16.75 9.61032 16.671 9.46967 16.5303C9.32902 16.3897 9.25 16.1989 9.25 16V14.75H8C7.80109 14.75 7.61032 14.671 7.46967 14.5303C7.32902 14.3897 7.25 14.1989 7.25 14C7.25 13.8011 7.32902 13.6103 7.46967 13.4697C7.61032 13.329 7.80109 13.25 8 13.25H9.25V12C9.25 11.8011 9.32902 11.6103 9.46967 11.4697C9.61032 11.329 9.80109 11.25 10 11.25Z" fill="white"/>
<path fill-rule="evenodd" clip-rule="evenodd" d="M19.7943 15.206C18.5683 13.98 16.5773 13.908 15.3483 15.136L13.1373 17.348C11.9073 18.577 11.9803 20.568 13.2063 21.794C14.4323 23.02 16.4233 23.092 17.6523 21.864L19.8633 19.652C21.0933 18.423 21.0203 16.432 19.7943 15.206ZM16.4083 16.198C17.0113 15.595 18.0523 15.585 18.7333 16.267C19.4143 16.949 19.4053 17.989 18.8033 18.592L18.4723 18.922C18.1809 18.4315 17.828 17.9802 17.4223 17.579C17.0208 17.1732 16.5692 16.8203 16.0783 16.529L16.4083 16.198ZM17.3103 19.925L17.3613 20.033L16.5913 20.803C15.9893 21.405 14.9483 21.415 14.2673 20.733C13.5853 20.052 13.5953 19.011 14.1973 18.408L14.9673 17.638L15.0753 17.69C15.3983 17.85 15.8603 18.139 16.3603 18.64C16.8613 19.14 17.1503 19.602 17.3103 19.925Z" fill="white"/>
</svg>
