<svg xmlns="http://www.w3.org/2000/svg" width="24" height="24" viewBox="0 0 24 24" fill="none">
  <path fill-rule="evenodd" clip-rule="evenodd" d="M2.24951 2.29153C2.06174 2.22549 1.85542 2.23675 1.67595 2.32283C1.49648 2.40891 1.35855 2.56276 1.29251 2.75053C1.22647 2.93831 1.23773 3.14462 1.32381 3.3241C1.40989 3.50357 1.56374 3.64149 1.75151 3.70753L2.01351 3.79853C2.68051 4.03353 3.11951 4.18853 3.44251 4.34753C3.74551 4.49653 3.87951 4.61753 3.96751 4.74553C4.05751 4.87753 4.12751 5.05953 4.16751 5.42253C4.20751 5.80253 4.20851 6.29753 4.20851 7.03753V9.75953C4.20851 11.2125 4.22251 12.2595 4.35951 13.0595C4.50551 13.9135 4.79751 14.5255 5.34451 15.1015C5.93851 15.7285 6.69051 16.0015 7.58751 16.1275C8.44551 16.2495 9.53551 16.2495 10.8805 16.2495H16.2865C17.0285 16.2495 17.6525 16.2495 18.1565 16.1875C18.6935 16.1225 19.1815 15.9785 19.6085 15.6315C20.0345 15.2835 20.2735 14.8345 20.4455 14.3225C20.6085 13.8405 20.7345 13.2295 20.8845 12.5025L21.3925 10.0335L21.3945 10.0285L21.4045 9.97653C21.5695 9.15153 21.7075 8.45753 21.7425 7.89953C21.7785 7.31353 21.7115 6.73553 21.3295 6.23953C21.0945 5.93353 20.7645 5.76053 20.4635 5.65553C20.1384 5.54847 19.8023 5.47803 19.4615 5.44553C18.7745 5.36953 17.9395 5.36953 17.1215 5.36953H5.66751L5.65751 5.26153C5.60351 4.76453 5.48751 4.31153 5.20451 3.89953C4.92051 3.48353 4.54251 3.21753 4.10251 3.00053C3.69051 2.79853 3.16651 2.61453 2.54951 2.39753L2.24951 2.29153ZM5.70951 6.86953H8.30451L9.69451 14.7455C8.91151 14.7375 8.29951 14.7135 7.79751 14.6425C7.08251 14.5415 6.70551 14.3575 6.43251 14.0695C6.11251 13.7315 5.93951 13.4015 5.83751 12.8065C5.72751 12.1565 5.70851 11.2485 5.70851 9.75953L5.70951 6.86953ZM11.2185 14.7495H14.2835L15.6735 6.86953H9.82751L11.2185 14.7495ZM15.8065 14.7495L17.1965 6.86953C18.0095 6.86953 18.7245 6.87353 19.2945 6.93653C19.5905 6.97053 19.8115 7.01653 19.9665 7.07053C20.0295 7.08937 20.0889 7.11842 20.1425 7.15653C20.2045 7.23853 20.2705 7.38653 20.2445 7.80753C20.2175 8.25153 20.1015 8.84353 19.9235 9.73353V9.73553L19.4235 12.1555C19.2635 12.9385 19.1535 13.4585 19.0245 13.8435C18.9015 14.2095 18.7855 14.3665 18.6605 14.4685C18.5355 14.5705 18.3575 14.6525 17.9755 14.6985C17.5715 14.7485 17.0405 14.7495 16.2415 14.7495H15.8065ZM7.50051 21.7495C6.90377 21.7495 6.33148 21.5125 5.90952 21.0905C5.48756 20.6686 5.25051 20.0963 5.25051 19.4995C5.25051 18.9028 5.48756 18.3305 5.90952 17.9085C6.33148 17.4866 6.90377 17.2495 7.50051 17.2495C8.09725 17.2495 8.66954 17.4866 9.0915 17.9085C9.51346 18.3305 9.75051 18.9028 9.75051 19.4995C9.75051 20.0963 9.51346 20.6686 9.0915 21.0905C8.66954 21.5125 8.09725 21.7495 7.50051 21.7495ZM6.75051 19.4995C6.75051 19.6984 6.82953 19.8892 6.97018 20.0299C7.11083 20.1705 7.3016 20.2495 7.50051 20.2495C7.69942 20.2495 7.89019 20.1705 8.03084 20.0299C8.17149 19.8892 8.25051 19.6984 8.25051 19.4995C8.25051 19.3006 8.17149 19.1099 8.03084 18.9692C7.89019 18.8286 7.69942 18.7495 7.50051 18.7495C7.3016 18.7495 7.11083 18.8286 6.97018 18.9692C6.82953 19.1099 6.75051 19.3006 6.75051 19.4995ZM16.5005 21.7495C15.9038 21.7495 15.3315 21.5125 14.9095 21.0905C14.4876 20.6686 14.2505 20.0963 14.2505 19.4995C14.2505 18.9028 14.4876 18.3305 14.9095 17.9085C15.3315 17.4866 15.9038 17.2495 16.5005 17.2495C17.0972 17.2495 17.6695 17.4866 18.0915 17.9085C18.5135 18.3305 18.7505 18.9028 18.7505 19.4995C18.7505 20.0963 18.5135 20.6686 18.0915 21.0905C17.6695 21.5125 17.0972 21.7495 16.5005 21.7495ZM15.7505 19.4995C15.7505 19.6984 15.8295 19.8892 15.9702 20.0299C16.1108 20.1705 16.3016 20.2495 16.5005 20.2495C16.6994 20.2495 16.8902 20.1705 17.0308 20.0299C17.1715 19.8892 17.2505 19.6984 17.2505 19.4995C17.2505 19.3006 17.1715 19.1099 17.0308 18.9692C16.8902 18.8286 16.6994 18.7495 16.5005 18.7495C16.3016 18.7495 16.1108 18.8286 15.9702 18.9692C15.8295 19.1099 15.7505 19.3006 15.7505 19.4995Z" fill="white"/>
</svg>