<svg xmlns="http://www.w3.org/2000/svg" width="24" height="24" viewBox="0 0 24 24" fill="none">
  <path fill-rule="evenodd" clip-rule="evenodd" d="M12.0004 2.75C11.7706 2.75 11.543 2.79527 11.3307 2.88321C11.1184 2.97116 10.9255 3.10006 10.763 3.26256C10.6005 3.42507 10.4716 3.61798 10.3836 3.8303C10.2957 4.04262 10.2504 4.27019 10.2504 4.5C10.2504 4.72981 10.2957 4.95738 10.3836 5.1697C10.4716 5.38202 10.6005 5.57493 10.763 5.73744C10.9255 5.89994 11.1184 6.02884 11.3307 6.11679C11.543 6.20474 11.7706 6.25 12.0004 6.25C12.4645 6.25 12.9097 6.06563 13.2379 5.73744C13.566 5.40925 13.7504 4.96413 13.7504 4.5C13.7504 4.03587 13.566 3.59075 13.2379 3.26256C12.9097 2.93437 12.4645 2.75 12.0004 2.75ZM8.75041 4.5C8.75041 3.63805 9.09282 2.8114 9.70232 2.2019C10.3118 1.59241 11.1385 1.25 12.0004 1.25C12.8624 1.25 13.689 1.59241 14.2985 2.2019C14.908 2.8114 15.2504 3.63805 15.2504 4.5C15.2504 5.36195 14.908 6.1886 14.2985 6.7981C13.689 7.40759 12.8624 7.75 12.0004 7.75C11.1385 7.75 10.3118 7.40759 9.70232 6.7981C9.09282 6.1886 8.75041 5.36195 8.75041 4.5ZM12.0004 9.77C11.7129 9.7667 11.4255 9.78408 11.1404 9.822L10.2484 9.972C8.23541 10.311 6.75041 12.074 6.75041 14.15C6.75097 14.6821 6.62087 15.2062 6.37153 15.6763C6.1222 16.1464 5.76126 16.548 5.32041 16.846L5.22041 16.915C4.96569 17.0869 4.68884 17.2235 4.39741 17.321L3.24041 17.711C3.05185 17.7747 2.84571 17.7608 2.66737 17.6725C2.48902 17.5841 2.35307 17.4286 2.28941 17.24C2.22576 17.0514 2.23963 16.8453 2.32796 16.667C2.41629 16.4886 2.57185 16.3527 2.76041 16.289L3.91941 15.899C4.08341 15.8437 4.23741 15.7677 4.38141 15.671L4.48341 15.602C4.72028 15.4412 4.91407 15.2247 5.0478 14.9715C5.18152 14.7184 5.2511 14.4363 5.25041 14.15C5.25041 11.353 7.25341 8.955 9.99841 8.493L10.8884 8.343C11.2566 8.28949 11.6284 8.26541 12.0004 8.271C12.3724 8.26541 12.7443 8.28949 13.1124 8.343L14.0024 8.493C16.7484 8.955 18.7504 11.353 18.7504 14.15C18.7504 14.736 19.0404 15.28 19.5184 15.602L19.6194 15.671C19.7641 15.7677 19.9184 15.8437 20.0824 15.899L21.2404 16.289C21.429 16.3527 21.5845 16.4886 21.6729 16.667C21.7612 16.8453 21.7751 17.0514 21.7114 17.24C21.6478 17.4286 21.5118 17.5841 21.3335 17.6725C21.1551 17.7608 20.949 17.7747 20.7604 17.711L19.6034 17.321C19.3123 17.2234 19.0358 17.0868 18.7814 16.915L18.6804 16.846C18.2396 16.548 17.8786 16.1464 17.6293 15.6763C17.38 15.2062 17.2499 14.6821 17.2504 14.15C17.2504 12.074 15.7654 10.311 13.7534 9.972L12.8614 9.822C12.5763 9.78441 12.2889 9.76737 12.0014 9.771M8.90141 15.551C8.96051 15.4722 9.03455 15.4058 9.11929 15.3556C9.20404 15.3055 9.29785 15.2725 9.39535 15.2585C9.49285 15.2446 9.59214 15.25 9.68755 15.2745C9.78296 15.2989 9.87262 15.3419 9.95141 15.401C10.0302 15.4601 10.0966 15.5341 10.1468 15.6189C10.197 15.7036 10.2299 15.7974 10.2439 15.8949C10.2578 15.9924 10.2524 16.0917 10.2279 16.1871C10.2035 16.2825 10.1605 16.3722 10.1014 16.451L9.17741 17.684L9.15541 17.713C9.04973 17.859 8.93623 17.9992 8.81541 18.133C8.53363 18.4283 8.18964 18.6572 7.80841 18.803C7.65341 18.861 7.49241 18.901 7.28841 18.953L7.25341 18.961L5.45941 19.41C5.239 19.4662 5.04663 19.6008 4.91834 19.7887C4.79005 19.9765 4.73463 20.2047 4.76247 20.4304C4.79031 20.6562 4.89949 20.8641 5.06956 21.0151C5.23964 21.1662 5.45895 21.25 5.68641 21.251H6.37041C7.91641 21.251 9.42041 20.75 10.6574 19.822L12.5504 18.4C12.6292 18.3409 12.7189 18.2979 12.8143 18.2735C12.9097 18.249 13.009 18.2436 13.1065 18.2575C13.204 18.2715 13.2978 18.3045 13.3825 18.3546C13.4673 18.4048 13.5413 18.4712 13.6004 18.55C13.6595 18.6288 13.7025 18.7185 13.7269 18.8139C13.7514 18.9093 13.7568 19.0086 13.7429 19.1061C13.7289 19.2036 13.696 19.2974 13.6458 19.3821C13.5956 19.4669 13.5292 19.5409 13.4504 19.6L12.5464 20.278L13.0374 20.463C13.5714 20.663 13.8124 20.753 14.0544 20.829C14.7826 21.0561 15.5359 21.1928 16.2974 21.236C16.5504 21.25 16.8074 21.25 17.3774 21.25H18.3164C18.5438 21.2488 18.7629 21.1647 18.9328 21.0136C19.1027 20.8625 19.2117 20.6546 19.2394 20.4289C19.2671 20.2032 19.2117 19.9752 19.0834 19.7875C18.9551 19.5997 18.7628 19.4652 18.5424 19.409L17.0694 19.04L16.9874 19.02C16.5114 18.901 16.1364 18.808 15.8014 18.614C15.7011 18.5557 15.6043 18.4916 15.5114 18.422C15.2034 18.188 14.9714 17.879 14.6784 17.486L14.6274 17.419L13.9004 16.45C13.8413 16.3712 13.7983 16.2815 13.7739 16.1861C13.7494 16.0907 13.744 15.9914 13.758 15.8939C13.7719 15.7964 13.8049 15.7026 13.8551 15.6179C13.9052 15.5331 13.9716 15.4591 14.0504 15.4C14.1292 15.3409 14.2189 15.2979 14.3143 15.2735C14.4097 15.249 14.509 15.2436 14.6065 15.2575C14.704 15.2715 14.7978 15.3045 14.8825 15.3546C14.9673 15.4048 15.0413 15.4712 15.1004 15.55L15.8274 16.519C16.1954 17.01 16.2984 17.137 16.4184 17.228C16.4604 17.2587 16.5044 17.2877 16.5504 17.315C16.6804 17.39 16.8374 17.436 17.4334 17.585L18.9064 17.953C19.4826 18.0974 19.9862 18.4474 20.3223 18.9371C20.6585 19.4269 20.804 20.0227 20.7314 20.6122C20.6589 21.2018 20.3734 21.7446 19.9286 22.1383C19.4838 22.532 18.9104 22.7496 18.3164 22.75H17.3534C16.8144 22.75 16.5134 22.75 16.2134 22.733C15.3283 22.6829 14.4527 22.5241 13.6064 22.26C13.3204 22.17 13.0394 22.065 12.5344 21.876L11.1024 21.339C9.6954 22.2593 8.05068 22.7496 6.36941 22.75H5.68541C5.09139 22.7496 4.51802 22.532 4.07322 22.1383C3.62843 21.7446 3.3429 21.2018 3.27038 20.6122C3.19787 20.0227 3.34337 19.4269 3.6795 18.9371C4.01563 18.4474 4.5192 18.0974 5.09541 17.953L6.88841 17.505C7.14341 17.441 7.21241 17.423 7.27241 17.4C7.44541 17.334 7.60241 17.23 7.73041 17.096C7.77441 17.049 7.81841 16.994 7.97641 16.783L8.90141 15.551Z" fill="white"/>
</svg>