<svg width="24" height="24" viewBox="0 0 24 24" fill="none" xmlns="http://www.w3.org/2000/svg">
<path d="M11 9.50028C11 8.90933 10.8836 8.32417 10.6575 7.7782C10.4313 7.23224 10.0998 6.73616 9.68198 6.3183C9.26412 5.90043 8.76804 5.56897 8.22208 5.34282C7.67611 5.11667 7.09095 5.00028 6.5 5.00028C5.90905 5.00028 5.32389 5.11667 4.77792 5.34282C4.23196 5.56897 3.73588 5.90043 3.31802 6.3183C2.90016 6.73616 2.56869 7.23224 2.34254 7.7782C2.1164 8.32417 2 8.90933 2 9.50028M11 9.50028C11 10.6938 10.5259 11.8383 9.68198 12.6823C8.83807 13.5262 7.69347 14.0003 6.5 14.0003C5.30653 14.0003 4.16193 13.5262 3.31802 12.6823C2.47411 11.8383 2 10.6938 2 9.50028M11 9.50028H2M14.757 7.12128C15.0337 7.40787 15.3647 7.6365 15.7306 7.79381C16.0966 7.95112 16.4902 8.03397 16.8886 8.03753C17.2869 8.04108 17.682 7.96527 18.0507 7.81452C18.4194 7.66376 18.7544 7.44108 19.0362 7.15947C19.3179 6.87786 19.5408 6.54296 19.6917 6.1743C19.8426 5.80565 19.9186 5.41063 19.9152 5.01229C19.9119 4.61395 19.8292 4.22027 19.6721 3.85422C19.5149 3.48818 19.2865 3.15709 19 2.88028C18.4359 2.32517 17.6753 2.01545 16.8839 2.01858C16.0925 2.02171 15.3344 2.33743 14.7747 2.89698C14.215 3.45654 13.8991 4.21458 13.8958 5.00599C13.8925 5.7974 14.202 6.55806 14.757 7.12228V7.12128Z" stroke-width="1.5" stroke-linecap="round"/>
<path d="M20.9067 17.3817C21.5948 16.6781 21.9776 15.7315 21.9721 14.7474C21.9666 13.7633 21.5732 12.821 20.8773 12.1251C20.1814 11.4292 19.2392 11.0358 18.255 11.0303C17.2709 11.0248 16.3243 11.4077 15.6207 12.0957L12.0967 15.6197C11.4086 16.3234 11.0258 17.2699 11.0313 18.2541C11.0368 19.2382 11.4302 20.1805 12.1261 20.8763C12.822 21.5722 13.7642 21.9656 14.7484 21.9711C15.7325 21.9766 16.6791 21.5938 17.3827 20.9057L20.9067 17.3817Z" stroke-width="1.5"/>
<path d="M14 14C14 14 14.281 15.46 15.911 17.09C17.541 18.72 19 19 19 19" stroke-width="1.5"/>
</svg>
