<svg xmlns="http://www.w3.org/2000/svg" width="24" height="24" viewBox="0 0 24 24" fill="none">
  <path d="M3.79563 14.97C4.33263 17.657 4.60163 19 5.48863 19.865C5.6533 20.025 5.82997 20.1697 6.01863 20.299C7.04163 21 8.41163 21 11.1516 21H12.8546C15.5936 21 16.9626 21 17.9846 20.3C18.1746 20.1693 18.3513 20.0243 18.5146 19.865C19.4026 19 19.6716 17.657 20.2086 14.971C20.9796 11.115 21.3656 9.187 20.4776 7.821C20.3168 7.57336 20.1289 7.3443 19.9176 7.138C18.7516 6 16.7866 6 12.8546 6H11.1516C7.21763 6 5.25163 6 4.08563 7.138C3.87468 7.34435 3.6872 7.57341 3.52663 7.821C2.63863 9.187 3.02463 11.115 3.79663 14.971L3.79563 14.97Z" stroke-width="1.5"/>
  <path d="M15 11C15.5523 11 16 10.5523 16 10C16 9.44772 15.5523 9 15 9C14.4477 9 14 9.44772 14 10C14 10.5523 14.4477 11 15 11Z" fill="black"/>
  <path d="M9 11C9.55228 11 10 10.5523 10 10C10 9.44772 9.55228 9 9 9C8.44772 9 8 9.44772 8 10C8 10.5523 8.44772 11 9 11Z" fill="black"/>
  <path d="M9 6V5C9 4.20435 9.31607 3.44129 9.87868 2.87868C10.4413 2.31607 11.2044 2 12 2C12.7956 2 13.5587 2.31607 14.1213 2.87868C14.6839 3.44129 15 4.20435 15 5V6" stroke-width="1.5" stroke-linecap="round"/>
</svg>