<svg width="24" height="24" viewBox="0 0 24 24" fill="none" xmlns="http://www.w3.org/2000/svg">
<path fill-rule="evenodd" clip-rule="evenodd" d="M9.46595 2.82022C10.2583 2.44476 11.1242 2.25 12.001 2.25C12.8778 2.25 13.7436 2.44476 14.536 2.82022L21.228 5.95822C22.28 6.45122 22.751 7.52222 22.751 8.50022C22.751 9.47822 22.281 10.5502 21.228 11.0432L19.751 11.7352V16.6252C19.751 17.8782 19.123 19.0882 17.979 19.7222C17.227 20.1382 16.239 20.6392 15.199 21.0382C14.172 21.4322 13.035 21.7502 12.001 21.7502C10.967 21.7502 9.82995 21.4322 8.80195 21.0382C7.76195 20.6392 6.77495 20.1382 6.02295 19.7222C4.87895 19.0882 4.25095 17.8782 4.25095 16.6252V11.5002C4.25095 11.4589 4.25429 11.4182 4.26095 11.3782C4.23889 11.2434 4.25406 11.1051 4.30482 10.9783C4.35559 10.8515 4.44003 10.741 4.54902 10.6586C4.65802 10.5763 4.78743 10.5253 4.9233 10.5111C5.05916 10.4969 5.19631 10.5201 5.31995 10.5782L10.102 12.8212C10.6952 13.1035 11.344 13.25 12.001 13.25C12.6579 13.25 13.3067 13.1035 13.9 12.8212L20.591 9.68422C20.994 9.49522 21.251 9.04422 21.251 8.50022C21.251 7.95622 20.994 7.50522 20.591 7.31622L13.901 4.17922C13.3077 3.89695 12.6589 3.75048 12.002 3.75048C11.345 3.75048 10.6962 3.89695 10.103 4.17922L3.41295 7.31622C3.23287 7.40082 3.02655 7.41042 2.83939 7.34291C2.65223 7.2754 2.49956 7.1363 2.41495 6.95622C2.33035 6.77613 2.32075 6.56982 2.38826 6.38266C2.45577 6.1955 2.59487 6.04282 2.77495 5.95822L9.46595 2.82022ZM5.75095 12.4392V16.6262C5.75095 17.3892 6.12995 18.0672 6.74995 18.4112C7.46595 18.8072 8.38795 19.2732 9.33995 19.6382C10.303 20.0082 11.239 20.2512 12.001 20.2512C12.763 20.2512 13.699 20.0082 14.663 19.6382C15.5532 19.2887 16.4186 18.8787 17.253 18.4112C17.873 18.0672 18.251 17.3892 18.251 16.6262V12.4392L14.537 14.1802C13.7445 14.5558 12.8784 14.7507 12.0015 14.7507C11.1245 14.7507 10.2584 14.5558 9.46595 14.1802L5.75095 12.4392Z" fill="black"/>
<path d="M6.69 7.70532C6.76804 7.88819 6.77027 8.09457 6.6962 8.27909C6.62213 8.4636 6.47782 8.61116 6.295 8.68932L5.22 9.15032C4.617 9.40932 4.22 9.58032 3.928 9.74432C3.652 9.89932 3.532 10.0153 3.456 10.1313C3.38 10.2473 3.321 10.4013 3.287 10.7163C3.251 11.0493 3.25 11.4823 3.25 12.1383V15.0003C3.25 15.1992 3.17098 15.39 3.03033 15.5306C2.88968 15.6713 2.69891 15.7503 2.5 15.7503C2.30109 15.7503 2.11032 15.6713 1.96967 15.5306C1.82902 15.39 1.75 15.1992 1.75 15.0003V12.0993C1.75 11.4923 1.75 10.9793 1.796 10.5553C1.844 10.1053 1.95 9.69132 2.204 9.30532C2.459 8.91932 2.798 8.65932 3.193 8.43732C3.563 8.22832 4.036 8.02632 4.593 7.78732L5.705 7.31132C5.88775 7.23322 6.09403 7.23084 6.27852 7.30472C6.46302 7.37859 6.61165 7.52267 6.69 7.70532Z" fill="black"/>
</svg>
