<svg xmlns="http://www.w3.org/2000/svg" width="24" height="24" viewBox="0 0 24 24" fill="none">
  <path d="M5.77703 10.2961V18.2651C5.77703 19.5881 5.77703 20.2501 6.22603 20.8121C6.67403 21.3741 7.21103 21.4721 8.28403 21.6701C9.27603 21.8521 10.533 22.0001 12 22.0001C13.467 22.0001 14.724 21.8521 15.716 21.6701C16.789 21.4721 17.326 21.3741 17.775 20.8121C18.223 20.2501 18.223 19.5881 18.223 18.2651V10.2951C18.223 9.6121 18.223 9.2701 18.355 8.9691C18.486 8.6691 18.733 8.4461 19.226 8.0011L19.412 7.8341C20.468 6.8821 20.996 6.4051 21 5.7161C21.004 5.0261 20.535 4.5941 19.599 3.7281C19.4639 3.60265 19.3245 3.48191 19.181 3.3661C18.709 2.9881 18.043 2.5741 17.533 2.2761C17.2984 2.13995 17.0391 2.05172 16.7701 2.01653C16.5011 1.98134 16.2278 1.99989 15.966 2.0711L15.476 2.2001C15.0816 2.30484 14.7421 2.55632 14.527 2.9031C13.325 4.8001 10.675 4.8001 9.47302 2.9031C9.25815 2.55652 8.91906 2.30507 8.52502 2.2001L8.03503 2.0711C7.77311 1.99975 7.49963 1.98113 7.23046 2.01632C6.96129 2.05151 6.7018 2.13981 6.46703 2.2761C5.95703 2.5741 5.29103 2.9881 4.81903 3.3661C4.67556 3.48191 4.53615 3.60265 4.40103 3.7281C3.46403 4.5941 2.99603 5.0271 3.00003 5.7161C3.00403 6.4051 3.53203 6.8821 4.58803 7.8341L4.77403 8.0011C5.26703 8.4461 5.51403 8.6691 5.64503 8.9691C5.77703 9.2691 5.77703 9.6121 5.77703 10.2961Z" stroke-width="1.5" stroke-linecap="round"/>
</svg>