<svg xmlns="http://www.w3.org/2000/svg" width="24" height="24" viewBox="0 0 24 24" fill="none">
  <path fill-rule="evenodd" clip-rule="evenodd" d="M10.5313 1.47032C10.6718 1.61094 10.7507 1.80157 10.7507 2.00032C10.7507 2.19907 10.6718 2.38969 10.5313 2.53032C10.2713 2.79032 10.2713 3.21032 10.5313 3.47032C10.9371 3.87613 11.165 4.42648 11.165 5.00032C11.165 5.57416 10.9371 6.1245 10.5313 6.53032C10.3892 6.6628 10.2011 6.73492 10.0068 6.73149C9.81251 6.72806 9.62713 6.64935 9.48971 6.51194C9.3523 6.37453 9.27359 6.18914 9.27016 5.99484C9.26673 5.80054 9.33886 5.61249 9.47134 5.47032C9.59566 5.34549 9.66547 5.17649 9.66547 5.00032C9.66547 4.82414 9.59566 4.65514 9.47134 4.53032C9.06562 4.1245 8.83769 3.57416 8.83769 3.00032C8.83769 2.42648 9.06562 1.87613 9.47134 1.47032C9.61196 1.32987 9.80258 1.25098 10.0013 1.25098C10.2001 1.25098 10.3907 1.32987 10.5313 1.47032ZM6.03134 2.97032C6.17179 3.11094 6.25068 3.30157 6.25068 3.50032C6.25068 3.69907 6.17179 3.88969 6.03134 4.03032L5.91534 4.14632C5.79735 4.26389 5.72588 4.42018 5.71412 4.58634C5.70235 4.75249 5.75109 4.91729 5.85134 5.05032C6.16796 5.47223 6.32165 5.99424 6.28418 6.52041C6.2467 7.04658 6.02056 7.54154 5.64734 7.91432L5.53134 8.03032C5.38916 8.1628 5.20111 8.23492 5.00681 8.23149C4.81251 8.22806 4.62713 8.14935 4.48971 8.01194C4.3523 7.87453 4.27359 7.68914 4.27016 7.49484C4.26673 7.30054 4.33886 7.11249 4.47134 6.97032L4.58734 6.85432C4.70532 6.73674 4.77679 6.58045 4.78855 6.4143C4.80032 6.24814 4.75158 6.08334 4.65134 5.95032C4.33459 5.52852 4.18072 5.00657 4.21801 4.48041C4.25531 3.95424 4.48126 3.45922 4.85434 3.08632L4.97034 2.97032C5.03999 2.90062 5.12269 2.84533 5.21371 2.80761C5.30474 2.76989 5.4023 2.75048 5.50084 2.75048C5.59937 2.75048 5.69693 2.76989 5.78796 2.80761C5.87898 2.84533 5.96169 2.90062 6.03134 2.97032ZM15.5313 2.97032C15.6718 3.11094 15.7507 3.30157 15.7507 3.50032C15.7507 3.69907 15.6718 3.88969 15.5313 4.03032L15.4153 4.14632C15.2973 4.26389 15.2259 4.42018 15.2141 4.58634C15.2024 4.75249 15.2511 4.91729 15.3513 5.05032C15.668 5.47223 15.8217 5.99424 15.7842 6.52041C15.7467 7.04658 15.5206 7.54154 15.1473 7.91432L15.0313 8.03032C14.9627 8.104 14.8799 8.16311 14.7879 8.2041C14.6959 8.24509 14.5966 8.26713 14.4959 8.26891C14.3952 8.27069 14.2951 8.25216 14.2017 8.21444C14.1083 8.17672 14.0235 8.12057 13.9523 8.04935C13.8811 7.97814 13.8249 7.8933 13.7872 7.79991C13.7495 7.70653 13.731 7.6065 13.7327 7.50579C13.7345 7.40509 13.7566 7.30578 13.7976 7.21378C13.8385 7.12178 13.8976 7.03898 13.9713 6.97032L14.0873 6.85432C14.2053 6.73674 14.2768 6.58045 14.2886 6.4143C14.3003 6.24814 14.2516 6.08334 14.1513 5.95032C13.8346 5.52852 13.6807 5.00657 13.718 4.48041C13.7553 3.95424 13.9813 3.45922 14.3543 3.08632L14.4713 2.97032C14.612 2.82987 14.8026 2.75098 15.0013 2.75098C15.2001 2.75098 15.3907 2.82987 15.5313 2.97032ZM4.64834 9.25032H15.3533C15.7163 9.25032 15.9943 9.25032 16.2353 9.29232C16.8784 9.40674 17.4598 9.74635 17.8753 10.2503H19.0013C19.9959 10.2503 20.9497 10.6454 21.653 11.3487C22.3562 12.0519 22.7513 13.0058 22.7513 14.0003C22.7513 14.9949 22.3562 15.9487 21.653 16.652C20.9497 17.3552 19.9959 17.7503 19.0013 17.7503H17.6493C17.1926 18.9282 16.3904 19.9406 15.348 20.6544C14.3056 21.3683 13.0717 21.7503 11.8083 21.7503H8.19434C6.65891 21.7502 5.177 21.1862 4.02999 20.1655C2.88299 19.1447 2.15075 17.7383 1.97234 16.2133L1.57234 12.7853L1.56334 12.7173C1.52134 12.3573 1.48934 12.0803 1.50334 11.8373C1.53987 11.2204 1.78312 10.6338 2.19386 10.1721C2.6046 9.71037 3.15889 9.40045 3.76734 9.29232C4.00734 9.25032 4.28634 9.25032 4.64834 9.25032ZM16.4693 16.4713C16.3807 16.5603 16.3159 16.6701 16.2808 16.7907C16.2457 16.9112 16.2414 17.0387 16.2683 17.1613C15.928 18.0691 15.3185 18.8514 14.5215 19.4034C13.7245 19.9554 12.7779 20.2509 11.8083 20.2503H8.19434C7.02663 20.2501 5.89964 19.8212 5.02732 19.0449C4.155 18.2687 3.5981 17.1991 3.46234 16.0393L3.06234 12.6113C3.00734 12.1513 2.99534 12.0193 3.00034 11.9253C3.01716 11.6449 3.12794 11.3784 3.31481 11.1686C3.50167 10.9589 3.75373 10.8182 4.03034 10.7693C4.12134 10.7533 4.25334 10.7503 4.71734 10.7503H15.2853C15.7483 10.7503 15.8803 10.7533 15.9723 10.7703C16.5423 10.8703 16.9673 11.3493 17.0023 11.9263C17.0073 12.0193 16.9943 12.1503 16.9413 12.6113L16.5403 16.0393C16.5237 16.1846 16.4993 16.3287 16.4693 16.4713ZM18.0263 16.2503H19.0013C19.5981 16.2503 20.1704 16.0133 20.5923 15.5913C21.0143 15.1693 21.2513 14.5971 21.2513 14.0003C21.2513 13.4036 21.0143 12.8313 20.5923 12.4093C20.1704 11.9874 19.5981 11.7503 19.0013 11.7503H18.4923C18.4957 11.779 18.4977 11.8077 18.4983 11.8363C18.5133 12.0803 18.4813 12.3563 18.4383 12.7163L18.4303 12.7853L18.0303 16.2133L18.0263 16.2503Z" fill="black"/>
</svg>