<svg xmlns="http://www.w3.org/2000/svg" width="24" height="24" viewBox="0 0 24 24" fill="none">
  <path d="M7.56975 15.3762C9.15575 12.1482 9.94975 10.5342 11.0898 10.1492C11.6801 9.95024 12.3194 9.95024 12.9098 10.1492C14.0498 10.5342 14.8438 12.1482 16.4298 15.3762L17.3078 17.1662C17.7178 17.9992 17.9218 18.4162 17.9708 18.7002C18.1718 19.8792 17.3008 20.9652 16.1248 21.0002C15.8418 21.0082 15.3998 20.8872 14.5148 20.6442C14.1808 20.5475 13.844 20.4611 13.5048 20.3852C12.5115 20.1845 11.4881 20.1845 10.4948 20.3852C10.2428 20.4362 9.98975 20.5052 9.48475 20.6452C8.59975 20.8872 8.15775 21.0082 7.87475 21.0002C6.69975 20.9652 5.82775 19.8792 6.02875 18.7002C6.07675 18.4162 6.28175 18.0002 6.69175 17.1652L7.56975 15.3762ZM6.14475 5.52715C6.55675 7.15815 7.72075 8.24415 8.74475 7.95315C9.76975 7.66115 10.2668 6.10315 9.85475 4.47315C9.44275 2.84215 8.27875 1.75615 7.25475 2.04715C6.22975 2.33915 5.73275 3.89715 6.14475 5.52715ZM17.8548 5.52715C17.4428 7.15815 16.2788 8.24415 15.2548 7.95315C14.2298 7.66115 13.7328 6.10315 14.1448 4.47315C14.5568 2.84215 15.7208 1.75615 16.7448 2.04715C17.7698 2.33915 18.2668 3.89715 17.8548 5.52715ZM2.20175 12.2972C2.65175 13.5022 3.70975 14.2342 4.56475 13.9322C5.41975 13.6302 5.74775 12.4082 5.29775 11.2022C4.84775 9.99815 3.78975 9.26615 2.93475 9.56815C2.07975 9.87015 1.75175 11.0922 2.20175 12.2982V12.2972ZM21.7978 12.2972C21.3478 13.5022 20.2898 14.2342 19.4348 13.9322C18.5798 13.6302 18.2518 12.4082 18.7018 11.2022C19.1518 9.99815 20.2098 9.26615 21.0648 9.56815C21.9198 9.87015 22.2478 11.0922 21.7978 12.2982V12.2972Z" stroke-width="1.5"/>
</svg>