<svg xmlns="http://www.w3.org/2000/svg" width="24" height="24" viewBox="0 0 24 24" fill="none">
  <path fill-rule="evenodd" clip-rule="evenodd" d="M3.706 1.31003C3.79661 1.27142 3.89394 1.25103 3.99243 1.25004C4.09092 1.24904 4.18864 1.26746 4.28002 1.30423C4.37139 1.341 4.45463 1.39541 4.52497 1.46435C4.59532 1.53329 4.65139 1.61542 4.69 1.70603V1.70803L4.692 1.71103L4.697 1.72303L4.715 1.76603L4.782 1.92903C5.13128 2.81026 5.44355 3.70571 5.718 4.61303C6.225 6.29503 6.75 8.52103 6.75 10.572C6.75 11.172 6.663 11.728 6.517 12.25H17.483C17.3289 11.704 17.2505 11.1394 17.25 10.572C17.25 8.52103 17.775 6.29503 18.282 4.61303C18.5564 3.70571 18.8687 2.81026 19.218 1.92903L19.285 1.76603L19.303 1.72303L19.308 1.71103L19.309 1.70803C19.309 1.70803 19.31 1.70603 20 2.00003L19.31 1.70703C19.3906 1.52823 19.5381 1.38813 19.7207 1.31674C19.9034 1.24536 20.1068 1.24838 20.2873 1.32515C20.4678 1.40192 20.611 1.54633 20.6863 1.72744C20.7616 1.90855 20.7629 2.11195 20.69 2.29403V2.29603L20.685 2.30503L20.67 2.34103L20.61 2.48903C20.2767 3.3284 19.9791 4.18149 19.718 5.04603C19.225 6.67903 18.75 8.74003 18.75 10.572C18.75 11.631 19.108 12.539 19.656 13.528C19.845 13.868 20.066 14.232 20.3 14.618C20.814 15.463 21.393 16.416 21.836 17.462C22.37 18.721 22.75 20.185 22.75 22C22.75 22.1989 22.671 22.3897 22.5303 22.5304C22.3897 22.671 22.1989 22.75 22 22.75C21.8011 22.75 21.6103 22.671 21.4697 22.5304C21.329 22.3897 21.25 22.1989 21.25 22C21.25 20.51 20.96 19.305 20.541 18.256C15.147 18.403 13.081 21.127 12.711 22.237C12.661 22.386 12.5655 22.5155 12.4379 22.6072C12.3103 22.699 12.1571 22.7483 12 22.7483C11.8429 22.7483 11.6897 22.699 11.5621 22.6072C11.4345 22.5155 11.339 22.386 11.289 22.237C10.919 21.127 8.853 18.403 3.459 18.257C2.98258 19.447 2.74179 20.7182 2.75 22C2.75 22.1989 2.67098 22.3897 2.53033 22.5304C2.38968 22.671 2.19891 22.75 2 22.75C1.80109 22.75 1.61032 22.671 1.46967 22.5304C1.32902 22.3897 1.25 22.1989 1.25 22C1.25 20.185 1.63 18.72 2.164 17.462C2.607 16.416 3.186 15.463 3.7 14.618C3.934 14.232 4.156 13.868 4.344 13.528C4.892 12.539 5.25 11.63 5.25 10.572C5.25 8.74003 4.775 6.67903 4.282 5.04603C4.02086 4.18183 3.72326 3.32907 3.39 2.49003L3.33 2.34203L3.314 2.30603L3.311 2.29703C3.2722 2.20643 3.25165 2.10806 3.2505 2.00951C3.24936 1.91095 3.26765 1.81314 3.30434 1.72166C3.34102 1.63018 3.39538 1.54683 3.4643 1.47637C3.53322 1.40591 3.61535 1.34973 3.706 1.31103M4.161 16.789C8.371 17.068 10.831 18.843 12 20.439C13.17 18.843 15.628 17.068 19.839 16.789C19.599 16.354 19.348 15.943 19.095 15.528C18.8357 15.1094 18.5854 14.6853 18.344 14.256C18.2509 14.0882 18.1612 13.9185 18.075 13.747L18 13.75H6L5.925 13.746C5.83883 13.9175 5.74915 14.0872 5.656 14.255C5.41 14.699 5.156 15.115 4.906 15.526C4.652 15.942 4.401 16.354 4.161 16.789Z" fill="black"/>
</svg>