<svg xmlns="http://www.w3.org/2000/svg" width="24" height="24" viewBox="0 0 24 24" fill="none">
  <path fill-rule="evenodd" clip-rule="evenodd" d="M2.95063 6.388C1.43263 4.837 2.54763 2.25 4.70263 2.25H19.3006C21.4566 2.25 22.5706 4.837 21.0536 6.388L12.7516 14.878V20.25H16.2456C16.4445 20.25 16.6353 20.329 16.776 20.4697C16.9166 20.6103 16.9956 20.8011 16.9956 21C16.9956 21.1989 16.9166 21.3897 16.776 21.5303C16.6353 21.671 16.4445 21.75 16.2456 21.75H7.75863C7.55972 21.75 7.36895 21.671 7.2283 21.5303C7.08765 21.3897 7.00863 21.1989 7.00863 21C7.00863 20.8011 7.08765 20.6103 7.2283 20.4697C7.36895 20.329 7.55972 20.25 7.75863 20.25H11.2526V14.877L2.95063 6.388ZM12.0026 13.498L14.9356 10.5H9.06963L12.0026 13.498ZM7.60263 9H16.4026L19.9826 5.34C20.5576 4.751 20.1476 3.75 19.3026 3.75H4.70263C3.85763 3.75 3.44763 4.751 4.02263 5.34L7.60263 9Z" fill="black"/>
</svg>