<svg width="200" height="200" viewBox="0 0 200 200" xmlns="http://www.w3.org/2000/svg">
<path fill-rule="evenodd" clip-rule="evenodd" d="M34.5126 110C34.5126 103.663 39.7067 98.4688 46.0438 98.4688C52.381 98.4688 57.5751 103.663 57.5751 110C57.5751 116.337 52.381 121.531 46.0438 121.531C39.7067 121.531 34.5126 116.337 34.5126 110ZM37.5751 110C37.5751 114.663 41.381 118.469 46.0438 118.469C50.7067 118.469 54.5126 114.663 54.5126 110C54.5126 105.337 50.7067 101.531 46.0438 101.531C41.381 101.531 37.5751 105.337 37.5751 110Z" />
<path fill-rule="evenodd" clip-rule="evenodd" d="M141.175 110C141.175 103.663 146.369 98.4688 152.706 98.4688C159.043 98.4688 164.237 103.663 164.237 110C164.237 116.337 159.043 121.531 152.706 121.531C146.369 121.531 141.175 116.337 141.175 110ZM144.237 110C144.237 114.663 148.043 118.469 152.706 118.469C157.369 118.469 161.175 114.663 161.175 110C161.175 105.337 157.369 101.531 152.706 101.531C148.043 101.531 144.237 105.337 144.237 110Z" />
<path fill-rule="evenodd" clip-rule="evenodd" d="M45.0469 45.3221C45.0458 45.3251 45.0448 45.3282 45.0438 45.3313L45.0462 45.3241L45.0469 45.3221ZM47.5714 40.2599C47.5714 40.2599 47.5714 40.2599 47.5714 40.2599C47.4698 40.3902 47.3703 40.5242 47.2728 40.662M158.956 43.7535L164.917 71.8H187.588V74.8688H166.256V78.629L167.877 78.7911C176.96 79.6994 184.256 87.5969 184.256 97V141.531H174.256V153.331C174.256 161.675 167.731 168.2 159.388 168.2C151.045 168.2 144.519 161.669 144.519 153.331V141.531H54.25V153.331C54.25 161.675 47.7247 168.2 39.3813 168.2C31.0384 168.2 24.5125 161.669 24.5125 153.331V141.531H14.5125V97C14.5125 87.247 21.8086 79.4016 31.1601 78.7962L32.8438 78.6873V74.8688H11.175V71.8H34.1463L40.447 43.7948C41.7078 39.7247 43.5395 36.773 45.9905 34.8268C48.4381 32.8833 51.6827 31.8 56.0376 31.8H142.706C146.894 31.8 150.422 32.8821 153.146 34.8691C155.852 36.8424 157.881 39.793 158.956 43.7535ZM43.3362 44.762L43.766 45.0277L43.2964 44.919L35.4545 78.7938H163.264L156.129 44.555L156.108 44.4849C155.193 41.3804 153.671 38.9103 151.344 37.242C149.029 35.5817 146.123 34.8625 142.713 34.8625H56.0438C52.7712 34.8625 50.0755 35.5952 47.911 37.348C45.7811 39.0728 44.3871 41.6092 43.3362 44.762ZM51.175 141.531H27.5751V153.331C27.5751 159.994 32.7122 165.131 39.375 165.131C46.0379 165.131 51.175 159.994 51.175 153.331V141.531ZM171.175 141.531H147.575V153.331C147.575 159.994 152.712 165.131 159.375 165.131C166.038 165.131 171.175 159.994 171.175 153.331V141.531ZM181.175 138.469V95.2H181.062C180.165 87.7156 173.754 81.8688 166.038 81.8688H32.7063C24.3809 81.8688 17.575 88.6746 17.575 97V138.469H181.175Z" />
</svg>
