<svg width="200" height="200" viewBox="0 0 200 200" fill="none" xmlns="http://www.w3.org/2000/svg">
<path fill-rule="evenodd" clip-rule="evenodd" d="M48.8846 175.5V92.8447L15.4421 72.7508L39.7899 30.0818L74.0304 24.367C76.8831 36.0692 87.4221 44.7609 100 44.7609C112.578 44.7609 123.117 36.0692 125.97 24.367L160.21 30.0818L184.558 72.7508L151.115 92.8447V175.5H48.8846ZM151.115 89.1523V73.1087H147.962V172.326H52.0384V73.1087H48.8846V89.1502L19.7225 71.6306L41.7772 32.9694L71.5367 27.9995L73.3692 31.5835C78.3372 41.2994 88.4257 47.9348 100 47.9348C111.575 47.9348 121.662 41.2992 126.622 31.5859L128.454 27.9991L158.216 32.9694L180.27 71.6297L151.115 89.1523Z" fill="black"/>
</svg>
