<svg width="200" height="200" viewBox="0 0 200 200" fill="none" xmlns="http://www.w3.org/2000/svg">
<path fill-rule="evenodd" clip-rule="evenodd" d="M162.724 13.7184C162.72 13.7039 162.716 13.6893 162.712 13.6747L162.712 13.6749C162.716 13.6894 162.72 13.7039 162.724 13.7184ZM166.765 16.7825L150.797 32.75H179.956C181.398 32.75 182.128 34.5008 181.102 35.5268L101.625 115.004V182.75H134.375C135.272 182.75 136 183.478 136 184.375C136 185.272 135.272 186 134.375 186H65.625C64.7284 186 64 185.272 64 184.375C64 183.478 64.7284 182.75 65.625 182.75H98.375V115.004L18.8982 35.5268C17.8721 34.5008 18.6021 32.75 20.0438 32.75H146.203L164.467 14.4851L164.261 13.6612C164.203 13.4271 164.155 13.2529 164.116 13.1141C164.038 12.8314 164 12.6956 164 12.5C164 9.51312 166.755 7.168 169.886 7.88126L169.887 7.88167C171.584 8.26598 172.979 9.66231 173.369 11.3604C174.087 14.4947 171.738 17.25 168.75 17.25C168.554 17.25 168.419 17.2123 168.136 17.1339C167.997 17.0954 167.823 17.047 167.589 16.9885L166.765 16.7825ZM176.034 36H147.547L138.297 45.25H166.784L176.034 36ZM142.953 36H23.9662L33.2162 45.25H117.064L117.444 44.994C119.648 43.5092 122.002 42.5125 124.706 42.5125C127.112 42.5125 129.497 43.3184 131.848 44.976L132.237 45.25H133.703L142.953 36ZM36.4662 48.5L100 112.034L163.534 48.5H135.947L137.338 50.7811C139.884 54.9538 139.425 58.7176 137.948 61.8979C136.432 65.1615 133.863 67.7533 132.258 69.3581C128.699 72.9176 124.848 76.2312 119.825 76.2312C117.221 76.2312 114.641 75.2716 112.091 73.3058L111.047 72.5007L90.8581 92.6893C90.2251 93.3223 89.1936 93.3223 88.5607 92.6893C87.9277 92.0564 87.9277 91.0249 88.5607 90.3919L108.765 70.1875L108.003 69.1495C105.145 65.2592 104.978 61.7475 105.87 58.7441C106.79 55.6458 108.872 52.9848 110.694 51.0198L113.03 48.5H36.4662ZM119.819 72.9875C121.816 72.9875 123.619 72.2148 125.253 71.1277C126.878 70.0464 128.437 68.5847 129.954 67.0669C132.364 64.6578 134.735 62.0602 135.561 59.1371C135.992 57.6156 136.004 56.019 135.441 54.3594C134.886 52.7243 133.801 51.1105 132.167 49.4768C129.666 46.9758 127.213 45.7687 124.713 45.7687C122.715 45.7687 120.912 46.5414 119.278 47.6285C117.654 48.7098 116.095 50.1715 114.577 51.6893C112.168 54.0984 109.797 56.6961 108.97 59.6191C108.54 61.1407 108.527 62.7373 109.09 64.3969C109.645 66.0319 110.731 67.6458 112.364 69.2794C114.865 71.7804 117.318 72.9875 119.819 72.9875Z" fill="black"/>
</svg>
