<svg width="200" height="200" viewBox="0 0 200 200" fill="none" xmlns="http://www.w3.org/2000/svg">
<path d="M187.714 37.3032C184.366 37.3032 179.829 36.3496 175.265 34.6883C168.257 32.1395 162.838 28.5817 161.462 25.6235C160.913 24.443 161.047 23.5106 161.254 22.9371C161.883 21.2071 163.845 20.3297 167.082 20.3297C170.432 20.3297 174.969 21.2832 179.537 22.9477C183.595 24.4227 187.256 26.2977 189.846 28.2278C193.007 30.5813 194.252 32.7571 193.548 34.6914C192.919 36.4242 190.954 37.3032 187.714 37.3032ZM167.082 23.4539C165.043 23.4539 164.287 23.8797 164.177 24.0278C164.121 24.8824 167.743 28.6289 176.332 31.7532C180.567 33.2938 184.717 34.1789 187.713 34.1789C189.754 34.1789 190.514 33.7516 190.621 33.602C190.679 32.7489 187.054 29.0051 178.468 25.8824C174.227 24.3391 170.078 23.4539 167.082 23.4539ZM177.98 56.1899C177.913 56.1895 177.846 56.1855 177.779 56.1778C174.895 55.8055 171.625 54.9739 168.317 53.7703C165.025 52.5758 161.986 51.1157 159.539 49.5473C158.813 49.0821 158.605 48.1164 159.069 47.3887C159.533 46.6598 160.494 46.4492 161.229 46.9176C163.481 48.3621 166.3 49.7168 169.382 50.8332C172.479 51.961 175.521 52.7356 178.175 53.0774C178.587 53.1303 178.96 53.3444 179.213 53.6724C179.467 54.0005 179.58 54.4158 179.527 54.827C179.479 55.2033 179.295 55.5493 179.011 55.8001C178.726 56.0509 178.36 56.1895 177.98 56.1899Z" fill="black"/>
<path d="M142.828 79.6926C142.652 79.6926 142.471 79.6621 142.294 79.598C142.102 79.5281 141.924 79.4208 141.773 79.2823C141.622 79.1438 141.499 78.9768 141.413 78.7909C141.326 78.605 141.277 78.4038 141.268 78.1988C141.259 77.9939 141.291 77.7892 141.361 77.5965L161.254 22.9387C161.396 22.5495 161.686 22.2325 162.062 22.0574C162.437 21.8823 162.867 21.8633 163.256 22.0047C163.449 22.0747 163.626 22.182 163.777 22.3205C163.928 22.459 164.051 22.626 164.138 22.8119C164.224 22.9978 164.274 23.199 164.282 23.4039C164.291 23.6089 164.26 23.8135 164.189 24.0062L144.296 78.6641C144.186 78.9653 143.987 79.2255 143.724 79.4095C143.462 79.5935 143.149 79.6923 142.828 79.6926ZM176.077 79.6957C175.9 79.6957 175.716 79.6652 175.543 79.6012C175.35 79.5312 175.173 79.4239 175.021 79.2854C174.87 79.1469 174.747 78.98 174.661 78.7941C174.574 78.6082 174.525 78.407 174.516 78.202C174.507 77.9971 174.538 77.7924 174.609 77.5996L190.612 33.6238C190.905 32.8121 191.805 32.3973 192.614 32.6898C192.806 32.7598 192.984 32.8672 193.135 33.0057C193.286 33.1442 193.409 33.3112 193.495 33.4971C193.582 33.683 193.631 33.8841 193.64 34.0891C193.649 34.294 193.618 34.4987 193.547 34.6914L177.544 78.6672C177.435 78.9687 177.235 79.2291 176.973 79.4132C176.71 79.5972 176.397 79.6959 176.077 79.6957ZM149.666 79.2438C149.415 79.244 149.167 79.1837 148.944 79.0678C148.721 78.952 148.53 78.784 148.386 78.5783C148.242 78.3725 148.149 78.135 148.117 77.8859C148.084 77.6369 148.112 77.3836 148.198 77.1477L158.914 47.698C159.057 47.3096 159.347 46.9934 159.722 46.8185C160.097 46.6435 160.526 46.6241 160.916 46.7645C161.108 46.8344 161.286 46.9416 161.437 47.0801C161.588 47.2186 161.711 47.3856 161.798 47.5715C161.885 47.7574 161.934 47.9586 161.943 48.1636C161.952 48.3686 161.92 48.5733 161.85 48.766L151.134 78.2156C151.024 78.517 150.825 78.7774 150.562 78.9613C150.299 79.1453 149.987 79.2439 149.666 79.2438ZM169.422 79.6957C169.245 79.6957 169.065 79.6652 168.888 79.6012C168.695 79.5313 168.518 79.424 168.367 79.2855C168.215 79.147 168.093 78.98 168.006 78.7941C167.919 78.6082 167.87 78.407 167.861 78.202C167.852 77.9971 167.884 77.7923 167.954 77.5996L176.51 54.0938C176.803 53.2836 177.703 52.8684 178.511 53.1598C178.704 53.2297 178.881 53.337 179.032 53.4755C179.184 53.614 179.306 53.781 179.393 53.9669C179.48 54.1528 179.529 54.354 179.538 54.5589C179.547 54.7639 179.515 54.9686 179.445 55.1613L170.89 78.6672C170.78 78.9684 170.581 79.2286 170.318 79.4125C170.055 79.5965 169.743 79.6954 169.422 79.6957ZM185.919 95.3141H1.58276C0.719092 95.3141 0.0202639 94.6156 0.0202639 93.752V84.3789C0.0201611 84.1737 0.0605091 83.9705 0.139001 83.7809C0.217492 83.5913 0.332587 83.419 0.477704 83.274C0.622821 83.1289 0.795114 83.0138 0.984729 82.9354C1.17434 82.8569 1.37756 82.8166 1.58276 82.8168H82.816C83.6793 82.8168 84.3785 83.5156 84.3785 84.3789C84.3786 84.5841 84.3382 84.7873 84.2597 84.9769C84.1813 85.1665 84.0662 85.3388 83.921 85.4839C83.7759 85.6289 83.6036 85.744 83.414 85.8224C83.2244 85.9009 83.0212 85.9412 82.816 85.941H3.14487V92.1898H184.357V85.941H104.686C104.481 85.9411 104.278 85.9008 104.088 85.8223C103.898 85.7438 103.726 85.6288 103.581 85.4837C103.436 85.3386 103.321 85.1664 103.243 84.9768C103.164 84.7872 103.124 84.5841 103.124 84.3789C103.124 84.1738 103.164 83.9706 103.243 83.781C103.321 83.5915 103.436 83.4192 103.581 83.2741C103.726 83.129 103.898 83.014 104.088 82.9355C104.278 82.857 104.481 82.8167 104.686 82.8168H185.919C186.783 82.8168 187.482 83.5156 187.482 84.3789V93.752C187.482 93.9572 187.441 94.1604 187.363 94.35C187.284 94.5396 187.169 94.7118 187.024 94.8569C186.879 95.002 186.707 95.117 186.517 95.1955C186.328 95.2739 186.124 95.3142 185.919 95.3141Z" fill="black"/>
<path d="M160.925 185.92H26.5777C26.2183 185.921 25.8698 185.797 25.5911 185.57C25.3123 185.343 25.1204 185.027 25.0476 184.675L6.30151 94.0676C6.21817 93.6618 6.29924 93.2395 6.52693 92.8934C6.75461 92.5472 7.11031 92.3056 7.51596 92.2215C8.35034 92.0414 9.18627 92.5891 9.36206 93.4355L27.8503 182.796H159.652L178.139 93.4355C178.316 92.5891 179.14 92.0414 179.988 92.2215C180.393 92.3067 180.748 92.5486 180.975 92.8944C181.203 93.2402 181.284 93.6619 181.202 94.0676L162.456 184.675C162.383 185.027 162.19 185.343 161.911 185.57C161.633 185.797 161.284 185.92 160.925 185.92Z" fill="black"/>
<path d="M160.925 185.92C160.667 185.921 160.414 185.858 160.187 185.736C159.961 185.615 159.767 185.439 159.625 185.225C159.511 185.054 159.432 184.863 159.392 184.662C159.352 184.46 159.352 184.253 159.392 184.052C159.432 183.851 159.512 183.659 159.626 183.489C159.74 183.318 159.887 183.172 160.058 183.059L168.9 177.167L186.652 91.9258C186.825 91.0824 187.634 90.5254 188.5 90.716C188.701 90.7579 188.891 90.839 189.061 90.9545C189.23 91.0701 189.375 91.2178 189.487 91.3894C189.599 91.5609 189.677 91.7529 189.715 91.9543C189.753 92.1557 189.751 92.3626 189.709 92.5633L171.826 178.43C171.743 178.831 171.505 179.183 171.164 179.409L161.791 185.658C161.535 185.829 161.233 185.92 160.925 185.92ZM93.7512 167.175C90.3051 167.175 87.5023 164.373 87.5023 160.926V117.184C87.5023 113.74 90.3047 110.936 93.7512 110.936C97.1977 110.936 100 113.74 100 117.184V160.926C100 164.373 97.1977 167.175 93.7512 167.175ZM93.7512 114.06C92.0289 114.06 90.6266 115.464 90.6266 117.184V160.926C90.6266 162.65 92.0285 164.05 93.7512 164.05C95.4738 164.05 96.8758 162.65 96.8758 160.926V117.184C96.8754 115.464 95.4734 114.06 93.7512 114.06ZM59.3832 167.175C55.9371 167.175 53.1344 164.373 53.1344 160.926L50.0144 117.298C50.0098 113.74 52.8125 110.936 56.2586 110.936C59.7047 110.936 62.5074 113.74 62.5074 117.185L65.6273 160.816C65.632 164.373 62.8293 167.175 59.3832 167.175ZM56.259 114.06C54.5367 114.06 53.1344 115.464 53.1344 117.184L56.2543 160.816C56.259 162.649 57.6609 164.05 59.3832 164.05C61.1055 164.05 62.5078 162.649 62.5078 160.925L59.3879 117.297C59.3832 115.464 57.9812 114.06 56.259 114.06ZM128.119 167.175C124.671 167.175 121.87 164.373 121.87 160.926L125.001 117.075C124.995 113.74 127.795 110.936 131.243 110.936C134.691 110.936 137.492 113.74 137.492 117.184L134.361 161.039C134.367 164.373 131.567 167.175 128.119 167.175ZM131.243 114.06C129.522 114.06 128.119 115.464 128.119 117.184L124.988 161.039C124.995 162.65 126.398 164.05 128.119 164.05C129.84 164.05 131.243 162.65 131.243 160.926L134.373 117.075C134.367 115.464 132.964 114.06 131.243 114.06ZM1.58436 85.941C1.2487 85.9419 0.921684 85.8346 0.651799 85.635C0.381915 85.4355 0.183532 85.1542 0.0860678 84.833C-0.0113967 84.5118 -0.00275396 84.1678 0.110715 83.8519C0.224183 83.536 0.436436 83.2651 0.716 83.0793L10.089 76.8305C10.2597 76.7164 10.4511 76.6371 10.6524 76.5971C10.8537 76.5572 11.0609 76.5573 11.2621 76.5975C11.4634 76.6378 11.6547 76.7173 11.8252 76.8316C11.9956 76.9459 12.1418 77.0928 12.2555 77.2637C12.3694 77.4343 12.4485 77.6258 12.4884 77.827C12.5283 78.0283 12.5281 78.2355 12.4879 78.4367C12.4477 78.6379 12.3682 78.8292 12.2539 78.9996C12.1397 79.1701 11.993 79.3163 11.8223 79.4301L2.4492 85.6789C2.19297 85.8494 1.89214 85.9406 1.58436 85.941ZM185.919 85.941C185.662 85.9415 185.409 85.8782 185.182 85.7569C184.955 85.6356 184.762 85.4599 184.62 85.2457C184.505 85.0751 184.426 84.8837 184.386 84.6824C184.346 84.4811 184.346 84.2738 184.387 84.0726C184.427 83.8714 184.506 83.68 184.621 83.5096C184.735 83.3391 184.882 83.1929 185.053 83.0793L194.426 76.8305C194.596 76.7164 194.788 76.6372 194.989 76.5972C195.19 76.5573 195.398 76.5575 195.599 76.5977C195.8 76.6379 195.991 76.7175 196.162 76.8318C196.332 76.946 196.479 77.0928 196.592 77.2637C196.706 77.4343 196.785 77.6257 196.825 77.827C196.865 78.0283 196.865 78.2355 196.825 78.4367C196.785 78.638 196.705 78.8293 196.591 78.9997C196.477 79.1702 196.33 79.3164 196.159 79.4301L186.786 85.6789C186.529 85.8495 186.228 85.9406 185.919 85.941Z" fill="black"/>
<path d="M185.919 95.3141C185.662 95.3144 185.409 95.2512 185.182 95.1298C184.955 95.0085 184.762 94.8329 184.619 94.6187C184.505 94.4481 184.426 94.2567 184.386 94.0554C184.346 93.8541 184.346 93.6469 184.387 93.4457C184.427 93.2444 184.506 93.0531 184.621 92.8826C184.735 92.7122 184.882 92.566 185.053 92.4523L194.426 86.2035C194.771 85.9832 195.188 85.9069 195.588 85.991C195.989 86.0751 196.34 86.3129 196.567 86.6533C196.794 86.9938 196.879 87.4097 196.802 87.8116C196.726 88.2136 196.495 88.5696 196.159 88.8031L186.786 95.0516C186.529 95.2225 186.228 95.3138 185.919 95.3141ZM195.292 79.6926H192.168C191.963 79.6927 191.76 79.6523 191.57 79.5739C191.38 79.4954 191.208 79.3803 191.063 79.2353C190.918 79.0902 190.803 78.918 190.725 78.7284C190.646 78.5388 190.606 78.3356 190.606 78.1305C190.606 77.9253 190.646 77.7221 190.725 77.5326C190.803 77.343 190.918 77.1707 191.063 77.0257C191.208 76.8806 191.38 76.7655 191.57 76.6871C191.76 76.6086 191.963 76.5683 192.168 76.5684H195.292C195.497 76.5682 195.701 76.6085 195.89 76.687C196.08 76.7654 196.252 76.8805 196.397 77.0255C196.542 77.1706 196.657 77.3429 196.736 77.5325C196.814 77.7221 196.854 77.9253 196.854 78.1305C196.854 78.3356 196.814 78.5388 196.736 78.7284C196.657 78.918 196.542 79.0902 196.397 79.2353C196.252 79.3803 196.08 79.4954 195.89 79.5739C195.7 79.6523 195.497 79.6927 195.292 79.6926ZM14.08 79.6926H10.9554C10.7503 79.6927 10.5471 79.6523 10.3575 79.5739C10.1679 79.4954 9.99569 79.3803 9.85061 79.2353C9.70554 79.0902 9.59048 78.918 9.51201 78.7284C9.43354 78.5388 9.39321 78.3356 9.39331 78.1305C9.39321 77.9253 9.43354 77.7221 9.51201 77.5326C9.59048 77.343 9.70554 77.1707 9.85061 77.0257C9.99569 76.8806 10.1679 76.7655 10.3575 76.6871C10.5471 76.6086 10.7503 76.5683 10.9554 76.5684H14.08C14.2852 76.5683 14.4884 76.6086 14.6779 76.6871C14.8675 76.7655 15.0398 76.8806 15.1848 77.0257C15.3299 77.1707 15.445 77.343 15.5234 77.5326C15.6019 77.7221 15.6422 77.9253 15.6421 78.1305C15.6422 78.3356 15.6019 78.5388 15.5234 78.7284C15.445 78.918 15.3299 79.0902 15.1848 79.2353C15.0398 79.3803 14.8675 79.4954 14.6779 79.5739C14.4884 79.6523 14.2852 79.6927 14.08 79.6926Z" fill="black"/>
<path d="M195.292 89.0657C195.087 89.0658 194.884 89.0254 194.694 88.947C194.505 88.8685 194.332 88.7534 194.187 88.6084C194.042 88.4633 193.927 88.291 193.849 88.1015C193.77 87.9119 193.73 87.7087 193.73 87.5035V78.1305C193.73 77.9253 193.77 77.7221 193.849 77.5326C193.927 77.343 194.042 77.1708 194.187 77.0257C194.332 76.8806 194.505 76.7655 194.694 76.6871C194.884 76.6086 195.087 76.5683 195.292 76.5684C195.497 76.5682 195.701 76.6085 195.89 76.687C196.08 76.7654 196.252 76.8805 196.397 77.0256C196.542 77.1707 196.657 77.3429 196.736 77.5325C196.814 77.7221 196.854 77.9253 196.854 78.1305V87.5035C196.854 87.7087 196.814 87.9119 196.736 88.1015C196.657 88.291 196.542 88.4633 196.397 88.6084C196.252 88.7534 196.08 88.8685 195.89 88.947C195.701 89.0254 195.497 89.0658 195.292 89.0657ZM98.4375 90.6278C98.2323 90.6279 98.0291 90.5875 97.8396 90.5091C97.65 90.4306 97.4777 90.3155 97.3327 90.1705C97.1876 90.0254 97.0725 89.8531 96.9941 89.6636C96.9156 89.474 96.8753 89.2708 96.8754 89.0657V23.4539H90.6265V89.0657C90.6265 89.9289 89.9277 90.6278 89.0644 90.6278C88.2012 90.6278 87.5023 89.9289 87.5023 89.0657V21.8918C87.5022 21.6866 87.5426 21.4835 87.621 21.2939C87.6995 21.1043 87.8145 20.9321 87.9596 20.787C88.1047 20.6419 88.2769 20.5269 88.4665 20.4484C88.6561 20.3699 88.8593 20.3296 89.0644 20.3297H98.4375C98.6426 20.3296 98.8458 20.3699 99.0354 20.4484C99.225 20.5269 99.3972 20.6419 99.5423 20.787C99.6874 20.9321 99.8024 21.1043 99.8809 21.2939C99.9594 21.4835 99.9997 21.6866 99.9996 21.8918V89.0657C99.9997 89.2708 99.9594 89.474 99.881 89.6636C99.8025 89.8532 99.6875 90.0255 99.5424 90.1706C99.3973 90.3157 99.225 90.4307 99.0355 90.5092C98.8459 90.5876 98.6427 90.6279 98.4375 90.6278ZM107.811 73.4438C107.605 73.4439 107.402 73.4036 107.213 73.3252C107.023 73.2467 106.851 73.1317 106.706 72.9866C106.561 72.8415 106.445 72.6692 106.367 72.4796C106.289 72.29 106.248 72.0868 106.248 71.8817V15.6434C106.248 14.7797 106.947 14.0809 107.811 14.0809C108.016 14.0808 108.219 14.1211 108.409 14.1996C108.598 14.2781 108.77 14.3932 108.915 14.5383C109.061 14.6834 109.176 14.8557 109.254 15.0453C109.332 15.235 109.373 15.4382 109.373 15.6434V71.8817C109.373 72.0868 109.332 72.29 109.254 72.4796C109.175 72.6692 109.06 72.8414 108.915 72.9865C108.77 73.1315 108.598 73.2466 108.408 73.3251C108.219 73.4035 108.016 73.4439 107.811 73.4438Z" fill="black"/>
<path d="M98.4391 23.4539C98.1816 23.4545 97.9281 23.3913 97.701 23.27C97.474 23.1486 97.2805 22.9729 97.1379 22.7586C97.0239 22.588 96.9447 22.3965 96.9048 22.1952C96.8649 21.994 96.8651 21.7868 96.9053 21.5856C96.9455 21.3844 97.0251 21.193 97.1393 21.0226C97.2535 20.8521 97.4003 20.7059 97.5711 20.5922L106.944 14.3434C107.664 13.8633 108.631 14.0582 109.11 14.7766C109.589 15.4949 109.397 16.4637 108.677 16.943L99.3043 23.1918C99.048 23.3624 98.747 23.4536 98.4391 23.4539ZM89.066 23.4539C88.8086 23.4545 88.555 23.3913 88.328 23.27C88.1009 23.1486 87.9074 22.9729 87.7648 22.7586C87.6509 22.588 87.5717 22.3965 87.5318 22.1952C87.4919 21.994 87.492 21.7868 87.5323 21.5856C87.5725 21.3844 87.652 21.193 87.7663 21.0226C87.8805 20.8521 88.0272 20.7059 88.1981 20.5922L97.5711 14.3434C97.7417 14.2294 97.9331 14.1501 98.1344 14.1102C98.3356 14.0702 98.5428 14.0704 98.744 14.1106C98.9452 14.1509 99.1364 14.2304 99.3069 14.3447C99.4773 14.4589 99.6235 14.6057 99.7371 14.7766C99.8511 14.9472 99.9303 15.1386 99.9702 15.3399C100.01 15.5412 100.01 15.7484 99.9697 15.9496C99.9295 16.1508 99.85 16.3421 99.7357 16.5126C99.6215 16.683 99.4747 16.8293 99.3039 16.943L89.9309 23.1918C89.6747 23.3625 89.3738 23.4537 89.066 23.4539ZM110.935 79.6926H104.686C104.481 79.6927 104.278 79.6523 104.088 79.5739C103.899 79.4954 103.726 79.3803 103.581 79.2353C103.436 79.0902 103.321 78.9179 103.243 78.7284C103.164 78.5388 103.124 78.3356 103.124 78.1305C103.124 77.9253 103.164 77.7221 103.243 77.5326C103.321 77.343 103.436 77.1708 103.581 77.0257C103.726 76.8806 103.899 76.7655 104.088 76.6871C104.278 76.6086 104.481 76.5683 104.686 76.5684H110.935C111.14 76.5682 111.343 76.6085 111.533 76.687C111.722 76.7654 111.895 76.8805 112.04 77.0255C112.185 77.1706 112.3 77.3429 112.378 77.5325C112.457 77.7221 112.497 77.9253 112.497 78.1305C112.497 78.3356 112.457 78.5388 112.378 78.7284C112.3 78.918 112.185 79.0902 112.04 79.2353C111.895 79.3803 111.722 79.4954 111.533 79.5739C111.343 79.6524 111.14 79.6927 110.935 79.6926ZM185.919 79.6926C185.611 79.6923 185.309 79.6009 185.053 79.4301C184.882 79.3165 184.735 79.1703 184.621 78.9998C184.506 78.8294 184.427 78.638 184.386 78.4368C184.346 78.2355 184.346 78.0283 184.386 77.827C184.426 77.6257 184.505 77.4343 184.62 77.2637L197.117 58.5176C197.593 57.7977 198.56 57.6055 199.283 58.0848C199.454 58.1982 199.601 58.3444 199.716 58.5148C199.83 58.6852 199.91 58.8765 199.95 59.0778C199.99 59.279 199.99 59.4863 199.95 59.6876C199.91 59.8889 199.831 60.0803 199.716 60.2508L187.219 78.9969C187.077 79.2112 186.884 79.387 186.657 79.5084C186.43 79.6298 186.176 79.6931 185.919 79.6926Z" fill="black"/>
<path d="M198.417 60.9461H189.044C188.839 60.9462 188.635 60.9059 188.446 60.8274C188.256 60.7489 188.084 60.6339 187.939 60.4888C187.794 60.3437 187.679 60.1715 187.6 59.9819C187.522 59.7924 187.481 59.5892 187.482 59.384C187.481 59.1788 187.522 58.9756 187.6 58.786C187.679 58.5964 187.794 58.4242 187.939 58.2791C188.084 58.134 188.256 58.0189 188.446 57.9405C188.635 57.862 188.839 57.8217 189.044 57.8219H198.417C198.622 57.8218 198.825 57.8621 199.015 57.9406C199.204 58.0191 199.376 58.1341 199.522 58.2792C199.667 58.4243 199.782 58.5965 199.86 58.7861C199.939 58.9757 199.979 59.1788 199.979 59.384C199.979 59.5892 199.939 59.7924 199.86 59.9819C199.782 60.1715 199.667 60.3437 199.522 60.4888C199.376 60.6339 199.204 60.7489 199.015 60.8274C198.825 60.9059 198.622 60.9462 198.417 60.9461ZM64.0699 79.6957C63.2062 79.6957 62.5074 78.9969 62.5074 78.1336V60.9465H34.3886V78.1336C34.3888 78.3388 34.3484 78.542 34.2699 78.7315C34.1915 78.9211 34.0764 79.0934 33.9313 79.2384C33.7863 79.3835 33.614 79.4986 33.4245 79.577C33.2349 79.6555 33.0317 79.6958 32.8265 79.6957C31.9629 79.6957 31.264 78.9969 31.264 78.1336V59.3844C31.2639 59.1792 31.3043 58.976 31.3828 58.7864C31.4613 58.5968 31.5764 58.4245 31.7215 58.2795C31.8666 58.1344 32.0389 58.0193 32.2285 57.9409C32.4181 57.8624 32.6213 57.8221 32.8265 57.8223H64.0699C64.2751 57.8222 64.4782 57.8625 64.6678 57.941C64.8574 58.0195 65.0296 58.1345 65.1747 58.2796C65.3198 58.4247 65.4348 58.5969 65.5133 58.7865C65.5918 58.9761 65.6321 59.1792 65.632 59.3844V78.1336C65.6321 78.3388 65.5917 78.5419 65.5132 78.7315C65.4347 78.921 65.3197 79.0932 65.1746 79.2383C65.0295 79.3834 64.8573 79.4984 64.6677 79.5769C64.4782 79.6554 64.275 79.6958 64.0699 79.6957ZM82.816 79.6926H70.3183C70.1132 79.6927 69.91 79.6524 69.7204 79.5739C69.5308 79.4954 69.3586 79.3804 69.2135 79.2353C69.0684 79.0902 68.9534 78.918 68.8749 78.7284C68.7965 78.5388 68.7561 78.3357 68.7562 78.1305C68.7561 77.9253 68.7965 77.7221 68.8749 77.5326C68.9534 77.343 69.0684 77.1708 69.2135 77.0257C69.3586 76.8806 69.5308 76.7655 69.7204 76.6871C69.91 76.6086 70.1132 76.5683 70.3183 76.5684H82.816C83.2303 76.5684 83.6276 76.733 83.9206 77.0259C84.2135 77.3189 84.3781 77.7162 84.3781 78.1305C84.3781 78.5448 84.2135 78.9421 83.9206 79.2351C83.6276 79.528 83.2303 79.6926 82.816 79.6926Z" fill="black"/>
<path d="M64.0714 60.9461C63.8139 60.9465 63.5603 60.8832 63.3332 60.7618C63.1061 60.6405 62.9126 60.4648 62.7699 60.2504L56.521 50.8774C56.4071 50.7068 56.3279 50.5154 56.288 50.3141C56.2481 50.1129 56.2482 49.9057 56.2885 49.7045C56.3287 49.5033 56.4082 49.3121 56.5225 49.1416C56.6367 48.9712 56.7834 48.825 56.9542 48.7113C57.1249 48.5975 57.3162 48.5183 57.5175 48.4785C57.7187 48.4386 57.9258 48.4387 58.1269 48.4789C58.3281 48.5191 58.5194 48.5986 58.6898 48.7127C58.8602 48.8269 59.0065 48.9735 59.1203 49.1442L65.3691 58.5172C65.5263 58.7522 65.6168 59.0256 65.6308 59.308C65.6447 59.5904 65.5817 59.8713 65.4485 60.1207C65.3152 60.3701 65.1168 60.5787 64.8742 60.724C64.6317 60.8694 64.3542 60.9462 64.0714 60.9461Z" fill="black"/>
<path d="M57.8211 51.5731H26.5777C26.3726 51.5732 26.1694 51.5328 25.9798 51.4544C25.7902 51.3759 25.618 51.2608 25.4729 51.1158C25.3279 50.9707 25.2128 50.7984 25.1343 50.6089C25.0559 50.4193 25.0155 50.2161 25.0156 50.011C25.0155 49.8058 25.0559 49.6026 25.1343 49.413C25.2128 49.2235 25.3279 49.0512 25.4729 48.9062C25.618 48.7611 25.7902 48.646 25.9798 48.5676C26.1694 48.4891 26.3726 48.4488 26.5777 48.4489H57.8211C58.0263 48.4488 58.2294 48.4891 58.419 48.5676C58.6086 48.646 58.7808 48.7611 58.9259 48.9062C59.071 49.0512 59.186 49.2235 59.2645 49.413C59.343 49.6026 59.3833 49.8058 59.3832 50.011C59.3833 50.2161 59.343 50.4193 59.2645 50.6089C59.186 50.7984 59.071 50.9707 58.9259 51.1158C58.7808 51.2608 58.6086 51.3759 58.419 51.4544C58.2294 51.5328 58.0263 51.5732 57.8211 51.5731Z" fill="black"/>
<path d="M32.8281 60.9461C32.5706 60.9465 32.317 60.8832 32.0899 60.7618C31.8628 60.6405 31.6693 60.4648 31.5266 60.2504L25.2781 50.8774C25.1642 50.7068 25.085 50.5154 25.0451 50.3141C25.0052 50.1129 25.0053 49.9057 25.0456 49.7045C25.0858 49.5033 25.1653 49.3121 25.2796 49.1416C25.3938 48.9712 25.5405 48.825 25.7113 48.7113C25.8819 48.5974 26.0733 48.5181 26.2745 48.4782C26.4758 48.4383 26.6829 48.4384 26.8841 48.4786C27.0853 48.5188 27.2765 48.5983 27.447 48.7125C27.6174 48.8267 27.7637 48.9734 27.8773 49.1442L34.1262 58.5172C34.2834 58.7523 34.3739 59.0256 34.3878 59.3081C34.4018 59.5905 34.3388 59.8715 34.2055 60.1209C34.0722 60.3703 33.8736 60.5788 33.631 60.7242C33.3885 60.8695 33.1109 60.9462 32.8281 60.9461Z" fill="black"/>
<path d="M20.3274 60.9461C20.0446 60.9462 19.767 60.8695 19.5244 60.7241C19.2819 60.5788 19.0833 60.3703 18.95 60.1209C18.8167 59.8714 18.7537 59.5905 18.7677 59.308C18.7816 59.0256 18.8721 58.7522 19.0293 58.5172L25.2781 49.1441C25.3917 48.9732 25.5379 48.8264 25.7084 48.7121C25.8788 48.5978 26.0701 48.5183 26.2713 48.4781C26.4725 48.4379 26.6797 48.4378 26.881 48.4778C27.0822 48.5178 27.2736 48.5972 27.4442 48.7113C27.6149 48.825 27.7616 48.9712 27.8758 49.1417C27.99 49.3121 28.0695 49.5034 28.1098 49.7045C28.15 49.9057 28.1502 50.1128 28.1103 50.3141C28.0704 50.5153 27.9913 50.7067 27.8774 50.8773L21.6289 60.2504C21.4862 60.4647 21.2927 60.6404 21.0656 60.7618C20.8385 60.8832 20.5849 60.9465 20.3274 60.9461Z" fill="black"/>
<path d="M20.3289 79.6926C19.4656 79.6926 18.7664 78.9938 18.7664 78.1305V59.3844C18.7664 58.5207 19.4652 57.8223 20.3289 57.8223C21.1925 57.8223 21.891 58.5207 21.891 59.3844V78.1305C21.8911 78.3356 21.8507 78.5388 21.7723 78.7284C21.6938 78.918 21.5787 79.0902 21.4337 79.2353C21.2886 79.3804 21.1163 79.4954 20.9268 79.5739C20.7372 79.6524 20.534 79.6927 20.3289 79.6926ZM26.5777 79.6926C26.3725 79.6927 26.1693 79.6524 25.9798 79.5739C25.7902 79.4954 25.618 79.3804 25.4729 79.2353C25.3278 79.0902 25.2127 78.918 25.1343 78.7284C25.0558 78.5388 25.0155 78.3356 25.0156 78.1305V62.5086C25.0156 61.6453 25.7144 60.9465 26.5777 60.9465C27.441 60.9465 28.1398 61.6453 28.1398 62.5086V78.1305C28.1399 78.3356 28.0996 78.5388 28.0211 78.7284C27.9426 78.918 27.8276 79.0902 27.6825 79.2353C27.5374 79.3804 27.3652 79.4954 27.1756 79.5739C26.986 79.6524 26.7829 79.6927 26.5777 79.6926ZM57.821 51.5731H26.5777C26.3725 51.5732 26.1693 51.5328 25.9798 51.4544C25.7902 51.3759 25.618 51.2608 25.4729 51.1158C25.3278 50.9707 25.2127 50.7984 25.1343 50.6089C25.0558 50.4193 25.0155 50.2161 25.0156 50.0109V43.7621C25.0155 43.557 25.0558 43.3538 25.1343 43.1642C25.2127 42.9746 25.3278 42.8024 25.4729 42.6573C25.618 42.5122 25.7902 42.3972 25.9798 42.3187C26.1693 42.2402 26.3725 42.1999 26.5777 42.2H57.821C58.0262 42.1999 58.2294 42.2402 58.419 42.3187C58.6085 42.3972 58.7808 42.5122 58.9259 42.6573C59.0709 42.8024 59.186 42.9746 59.2645 43.1642C59.3429 43.3538 59.3833 43.557 59.3832 43.7621V50.0109C59.3833 50.2161 59.3429 50.4193 59.2645 50.6089C59.186 50.7984 59.0709 50.9707 58.9259 51.1158C58.7808 51.2608 58.6085 51.3759 58.419 51.4544C58.2294 51.5328 58.0262 51.5732 57.821 51.5731ZM28.1398 48.4488H56.2589V45.3242H28.1398V48.4488ZM107.811 17.2055H98.4375C98.2323 17.2056 98.0291 17.1652 97.8395 17.0868C97.65 17.0083 97.4777 16.8933 97.3326 16.7482C97.1876 16.6031 97.0725 16.4309 96.994 16.2413C96.9156 16.0517 96.8753 15.8485 96.8754 15.6434C96.8754 14.7797 97.5742 14.0809 98.4375 14.0809H107.811C108.016 14.0808 108.219 14.1211 108.409 14.1996C108.598 14.2781 108.77 14.3932 108.915 14.5383C109.061 14.6834 109.176 14.8557 109.254 15.0453C109.332 15.235 109.373 15.4382 109.373 15.6434C109.373 15.8485 109.332 16.0517 109.254 16.2413C109.175 16.4309 109.06 16.6031 108.915 16.7482C108.77 16.8933 108.598 17.0083 108.408 17.0868C108.219 17.1652 108.016 17.2056 107.811 17.2055ZM135.93 79.6926C135.066 79.6926 134.367 78.9938 134.367 78.1305C134.367 73.8238 130.864 70.3195 126.557 70.3195C122.248 70.3195 118.746 73.8238 118.746 78.1305C118.746 78.3356 118.705 78.5388 118.627 78.7284C118.548 78.918 118.433 79.0902 118.288 79.2353C118.143 79.3804 117.971 79.4954 117.781 79.5739C117.592 79.6524 117.389 79.6927 117.184 79.6926C116.978 79.6927 116.775 79.6524 116.586 79.5739C116.396 79.4954 116.224 79.3804 116.079 79.2353C115.934 79.0902 115.819 78.918 115.74 78.7284C115.662 78.5388 115.621 78.3356 115.621 78.1305C115.621 72.1012 120.528 67.1953 126.557 67.1953C132.586 67.1953 137.492 72.1016 137.492 78.1305C137.492 78.3356 137.452 78.5388 137.373 78.7284C137.295 78.918 137.18 79.0902 137.034 79.2353C136.889 79.3804 136.717 79.4954 136.528 79.5739C136.338 79.6524 136.135 79.6927 135.93 79.6926ZM129.681 64.0707H123.432C123.227 64.0708 123.024 64.0305 122.834 63.952C122.645 63.8735 122.472 63.7585 122.327 63.6134C122.182 63.4683 122.067 63.2961 121.989 63.1065C121.91 62.9169 121.87 62.7138 121.87 62.5086C121.87 62.3034 121.91 62.1003 121.989 61.9107C122.067 61.7211 122.182 61.5489 122.327 61.4038C122.472 61.2587 122.645 61.1437 122.834 61.0652C123.024 60.9867 123.227 60.9464 123.432 60.9465H129.681C129.886 60.9464 130.089 60.9867 130.279 61.0652C130.468 61.1437 130.641 61.2587 130.786 61.4038C130.931 61.5489 131.046 61.7211 131.124 61.9107C131.203 62.1003 131.243 62.3034 131.243 62.5086C131.243 62.7138 131.203 62.9169 131.124 63.1065C131.046 63.2961 130.931 63.4683 130.786 63.6134C130.641 63.7585 130.468 63.8735 130.279 63.952C130.089 64.0305 129.886 64.0708 129.681 64.0707Z" fill="black"/>
<path d="M123.432 67.1953C123.227 67.1954 123.024 67.1551 122.834 67.0766C122.644 66.9981 122.472 66.883 122.327 66.7379C122.182 66.5927 122.067 66.4205 121.989 66.2308C121.91 66.0412 121.87 65.838 121.87 65.6328V62.5086C121.87 62.3034 121.91 62.1002 121.989 61.9107C122.067 61.7211 122.182 61.5489 122.327 61.4038C122.472 61.2587 122.645 61.1436 122.834 61.0652C123.024 60.9867 123.227 60.9464 123.432 60.9465C124.296 60.9465 124.995 61.6453 124.995 62.5086V65.6328C124.995 66.4961 124.296 67.1953 123.432 67.1953Z" fill="black"/>
<path d="M129.681 67.1953C129.476 67.1954 129.272 67.1551 129.083 67.0766C128.893 66.9981 128.721 66.883 128.576 66.7379C128.431 66.5927 128.316 66.4205 128.237 66.2308C128.159 66.0412 128.119 65.838 128.119 65.6328V62.5086C128.119 61.6453 128.818 60.9465 129.681 60.9465C130.544 60.9465 131.243 61.6453 131.243 62.5086V65.6328C131.243 66.4961 130.544 67.1953 129.681 67.1953Z" fill="black"/>
<path d="M135.93 60.9461C135.832 60.9461 135.728 60.9371 135.625 60.9156L120.003 57.7914C119.801 57.7515 119.61 57.6723 119.439 57.5583C119.268 57.4442 119.122 57.2976 119.008 57.1269C118.894 56.9561 118.815 56.7645 118.775 56.5631C118.735 56.3617 118.736 56.1544 118.776 55.9531C118.947 55.1062 119.764 54.5461 120.613 54.7277L136.235 57.8523C136.436 57.8922 136.628 57.9714 136.798 58.0855C136.969 58.1995 137.116 58.3461 137.23 58.5169C137.344 58.6876 137.423 58.8792 137.463 59.0807C137.502 59.2821 137.502 59.4893 137.461 59.6906C137.391 60.0449 137.2 60.3637 136.92 60.5926C136.641 60.8216 136.291 60.9465 135.93 60.9461Z" fill="black"/>
<path d="M120.308 64.0707C120.103 64.0708 119.899 64.0305 119.71 63.9521C119.52 63.8736 119.348 63.7586 119.203 63.6135C119.058 63.4684 118.943 63.2961 118.864 63.1065C118.786 62.9169 118.746 62.7138 118.746 62.5086V56.2601C118.746 55.3965 119.444 54.6976 120.308 54.6976C121.172 54.6976 121.87 55.3965 121.87 56.2601V62.5086C121.87 62.7137 121.83 62.9169 121.751 63.1065C121.673 63.2961 121.558 63.4683 121.413 63.6134C121.268 63.7585 121.095 63.8735 120.906 63.952C120.716 64.0304 120.513 64.0708 120.308 64.0707Z" fill="black"/>
<path d="M135.93 64.0707H120.308C120.103 64.0708 119.899 64.0305 119.71 63.9521C119.52 63.8736 119.348 63.7586 119.203 63.6135C119.058 63.4684 118.943 63.2961 118.864 63.1066C118.786 62.917 118.746 62.7138 118.746 62.5086C118.746 62.3034 118.786 62.1002 118.864 61.9107C118.943 61.7211 119.058 61.5489 119.203 61.4038C119.348 61.2587 119.52 61.1436 119.71 61.0652C119.899 60.9867 120.103 60.9464 120.308 60.9465H135.93C136.135 60.9464 136.338 60.9867 136.528 61.0652C136.717 61.1436 136.889 61.2587 137.035 61.4038C137.18 61.5489 137.295 61.7211 137.373 61.9107C137.452 62.1002 137.492 62.3034 137.492 62.5086C137.492 62.7138 137.452 62.9169 137.373 63.1065C137.295 63.2961 137.18 63.4683 137.035 63.6134C136.889 63.7585 136.717 63.8735 136.528 63.952C136.338 64.0305 136.135 64.0708 135.93 64.0707Z" fill="black"/>
<path d="M135.93 64.0707C135.066 64.0707 134.367 63.3723 134.367 62.5086V59.3844C134.367 59.1792 134.407 58.976 134.486 58.7864C134.564 58.5968 134.68 58.4245 134.825 58.2794C134.97 58.1344 135.142 58.0193 135.332 57.9409C135.521 57.8624 135.724 57.8221 135.93 57.8223C136.135 57.8222 136.338 57.8625 136.528 57.941C136.717 58.0194 136.889 58.1345 137.034 58.2796C137.18 58.4246 137.295 58.5969 137.373 58.7865C137.452 58.976 137.492 59.1792 137.492 59.3844V62.5086C137.492 62.7138 137.452 62.9169 137.373 63.1065C137.295 63.2961 137.18 63.4683 137.034 63.6134C136.889 63.7585 136.717 63.8735 136.528 63.952C136.338 64.0305 136.135 64.0708 135.93 64.0707Z" fill="black"/>
<path d="M55.4337 79.6895C55.2139 79.6898 54.9967 79.6437 54.7961 79.554C54.5955 79.4643 54.4162 79.3332 54.27 79.1692C51.3133 75.868 45.6004 75.8602 42.6313 79.1676C42.4945 79.3207 42.3289 79.4452 42.1439 79.5341C41.9588 79.623 41.7581 79.6744 41.5531 79.6855C41.3482 79.6965 41.143 79.667 40.9495 79.5986C40.756 79.5302 40.5779 79.4242 40.4254 79.2868C40.2727 79.1498 40.1485 78.984 40.0599 78.799C39.9713 78.614 39.92 78.4134 39.9089 78.2085C39.8978 78.0037 39.9272 77.7986 39.9954 77.6052C40.0636 77.4117 40.1692 77.2335 40.3063 77.0809C41.3324 75.9376 42.5876 75.0229 43.9903 74.3963C45.393 73.7697 46.9118 73.4451 48.4481 73.4438C49.986 73.4446 51.5065 73.7693 52.9107 74.3967C54.3148 75.0241 55.5711 75.9401 56.5977 77.0852C56.7985 77.3101 56.9299 77.5882 56.9762 77.8861C57.0225 78.184 56.9817 78.4889 56.8587 78.7641C56.7356 79.0394 56.5357 79.2731 56.2828 79.4373C56.03 79.6015 55.7351 79.6891 55.4337 79.6895Z" fill="black"/>
<path d="M98.4375 90.6278H89.0644C88.8593 90.6279 88.6561 90.5875 88.4665 90.5091C88.2769 90.4306 88.1047 90.3155 87.9596 90.1705C87.8145 90.0254 87.6995 89.8531 87.621 89.6636C87.5426 89.474 87.5022 89.2708 87.5023 89.0656C87.5022 88.8605 87.5426 88.6573 87.621 88.4677C87.6995 88.2782 87.8145 88.1059 87.9596 87.9608C88.1047 87.8158 88.2769 87.7007 88.4665 87.6222C88.6561 87.5438 88.8593 87.5034 89.0644 87.5035H98.4375C98.6426 87.5034 98.8458 87.5438 99.0354 87.6222C99.225 87.7007 99.3972 87.8158 99.5423 87.9608C99.6874 88.1059 99.8024 88.2782 99.8809 88.4677C99.9594 88.6573 99.9997 88.8605 99.9996 89.0656C99.9997 89.2708 99.9594 89.474 99.881 89.6636C99.8025 89.8532 99.6875 90.0255 99.5424 90.1706C99.3973 90.3157 99.225 90.4307 99.0355 90.5092C98.8459 90.5876 98.6427 90.6279 98.4375 90.6278Z" fill="black"/>
</svg>
