<svg width="50" height="50" viewBox="0 0 50 50" fill="none" xmlns="http://www.w3.org/2000/svg">
<g clip-path="url(#clip0_20_4641)">
<path fill-rule="evenodd" clip-rule="evenodd" d="M50.937 11.6388C50.7604 11.4204 50.5373 11.2443 50.2839 11.1233C50.5373 11.2443 50.7604 11.4204 50.937 11.6388ZM49.9881 12.9335L44.3407 39.288L44.3406 39.2886C44.3152 39.4063 44.2502 39.5117 44.1566 39.5873C44.0628 39.6631 43.9458 39.7044 43.8252 39.7044H17.4705C17.3487 39.7043 17.2307 39.662 17.1365 39.5848C17.0423 39.5075 16.9778 39.3998 16.9539 39.2804L9.50711 2.0542H0.527103C0.387306 2.0542 0.253235 1.99867 0.154385 1.89982C0.055534 1.80097 0 1.6669 0 1.5271C0 1.38731 0.055534 1.25324 0.154385 1.15438C0.253235 1.05553 0.387306 1 0.527103 1H9.93915C10.0608 1.00015 10.1787 1.0424 10.2728 1.11959C10.367 1.19685 10.4315 1.30434 10.4554 1.42379L12.6313 12.2951H49.4727C49.5514 12.295 49.629 12.3126 49.7 12.3465C49.7709 12.3803 49.8334 12.4297 49.8828 12.4908C49.9323 12.552 49.9674 12.6234 49.9856 12.6999C50.0039 12.7764 50.0048 12.856 49.9882 12.9328L49.9881 12.9335ZM12.842 13.3493L17.9022 38.6502H43.3994L48.8223 13.3493H12.842ZM20.2934 49.1169C19.904 49.1169 19.5305 48.9622 19.2552 48.6869C18.9798 48.4115 18.8251 48.038 18.8251 47.6486C18.8251 47.2591 18.9798 46.8857 19.2552 46.6103C19.5305 46.3349 19.904 46.1802 20.2934 46.1802C20.6829 46.1802 21.0564 46.3349 21.3317 46.6103C21.6071 46.8857 21.7618 47.2591 21.7618 47.6486C21.7618 48.038 21.6071 48.4115 21.3317 48.6869C21.0564 48.9622 20.6829 49.1169 20.2934 49.1169ZM39.1185 49.1169C38.7291 49.1169 38.3556 48.9622 38.0802 48.6869C37.8049 48.4115 37.6502 48.038 37.6502 47.6486C37.6502 47.2591 37.8049 46.8857 38.0802 46.6103C38.3556 46.3349 38.7291 46.1802 39.1185 46.1802C39.508 46.1802 39.8814 46.3349 40.1568 46.6103C40.4322 46.8857 40.5869 47.2591 40.5869 47.6486C40.5869 48.038 40.4322 48.4115 40.1568 48.6869C39.8814 48.9622 39.508 49.1169 39.1185 49.1169Z" fill="white" fill-opacity="0.5"/>
</g>
<defs>
<clipPath id="clip0_20_4641">
<rect width="50" height="50" fill="white"/>
</clipPath>
</defs>
</svg>
