<svg width="200" height="200" viewBox="0 0 200 200" fill="none" xmlns="http://www.w3.org/2000/svg">
<path fill-rule="evenodd" clip-rule="evenodd" d="M93.9346 85.3954C86.9982 81.7119 79.0814 79.625 70.6875 79.625C43.2666 79.625 21 101.892 21 129.312C21 156.733 43.2666 179 70.6875 179C84.1031 179 96.2799 173.673 105.224 165.021C113.087 173.614 124.396 179 136.957 179C136.964 179 136.971 179 136.977 179C160.741 179 180 159.741 180 135.977C180 113.704 180 85.296 180 63.0228C180 39.2589 160.741 20 136.977 20C136.971 20 136.964 20 136.957 20C113.2 20 93.9346 39.2589 93.9346 63.0228V85.3954ZM114.638 106.125C118.301 113.048 120.375 120.938 120.375 129.312C120.375 138.462 117.897 147.041 113.571 154.408C119.03 161.318 127.477 165.75 136.957 165.75C136.964 165.75 136.971 165.75 136.977 165.75C153.421 165.75 166.75 152.421 166.75 135.977V106.125H114.638ZM100.732 108.702C104.766 114.565 107.125 121.667 107.125 129.312C107.125 149.426 90.801 165.75 70.6875 165.75C63.0423 165.75 55.9403 163.391 50.0771 159.357L100.732 108.702ZM91.3708 99.3211L40.6961 149.996C36.6284 144.119 34.25 136.991 34.25 129.312C34.25 109.199 50.574 92.875 70.6875 92.875C78.3659 92.875 85.4944 95.2534 91.3708 99.3211ZM166.75 92.875V63.0228C166.75 46.5795 153.421 33.25 136.977 33.25C136.971 33.25 136.964 33.25 136.957 33.25C120.514 33.25 107.185 46.5795 107.185 63.0228V92.875H166.75ZM98.9346 93.7119L91.5896 89.8113C85.3577 86.502 78.2439 84.625 70.6875 84.625C46.028 84.625 26 104.653 26 129.312C26 153.972 46.028 174 70.6875 174C82.7524 174 93.6968 169.216 101.747 161.428L105.442 157.854L108.912 161.646C115.868 169.246 125.857 174 136.957 174H136.977C157.98 174 175 156.98 175 135.977V63.0228C175 42.0203 157.98 25 136.977 25H136.958C115.962 25 98.9346 42.0208 98.9346 63.0228V93.7119ZM106.335 101.125H171.75V135.977C171.75 155.182 156.182 170.75 136.977 170.75H136.958C125.882 170.75 116.013 165.565 109.648 157.508L107.528 154.825L109.26 151.876C113.147 145.256 115.375 137.548 115.375 129.312C115.375 121.773 113.51 114.684 110.218 108.464L106.335 101.125ZM101.445 100.918L104.851 105.868C109.441 112.538 112.125 120.624 112.125 129.312C112.125 152.187 93.5624 170.75 70.6875 170.75C61.9986 170.75 53.9134 168.066 47.2427 163.476L42.2931 160.07L101.445 100.918ZM99.1429 98.6201L39.9951 157.768L36.585 152.842C31.9565 146.155 29.25 138.039 29.25 129.312C29.25 106.438 47.8126 87.875 70.6875 87.875C79.414 87.875 87.5301 90.5815 94.2166 95.21L99.1429 98.6201ZM171.75 97.875H102.185V63.0228C102.185 43.8181 117.753 28.25 136.957 28.25H136.977C156.181 28.25 171.75 43.8181 171.75 63.0228V97.875ZM93.9346 85.3954V63.0228C93.9346 39.2589 113.2 20 136.957 20H136.977C160.741 20 180 39.2589 180 63.0228V135.977C180 159.741 160.741 179 136.977 179H136.957C125.257 179 114.644 174.327 106.889 166.743C106.318 166.184 105.763 165.61 105.224 165.021C104.559 165.664 103.878 166.288 103.179 166.893C94.4646 174.435 83.1069 179 70.6875 179C43.2666 179 21 156.733 21 129.312C21 101.892 43.2666 79.625 70.6875 79.625C77.1263 79.625 83.2844 80.853 88.9346 83.0876C90.6502 83.7661 92.319 84.5374 93.9346 85.3954ZM113.571 154.408C117.897 147.041 120.375 138.462 120.375 129.312C120.375 122.893 119.156 116.758 116.937 111.125C116.261 109.41 115.493 107.741 114.638 106.125H166.75V135.977C166.75 152.421 153.421 165.75 136.977 165.75H136.957C127.477 165.75 119.03 161.318 113.571 154.408ZM100.732 108.702L50.0771 159.357C51.4923 160.331 52.9796 161.207 54.5293 161.976C59.4002 164.393 64.8875 165.75 70.6875 165.75C90.801 165.75 107.125 149.426 107.125 129.312C107.125 123.513 105.768 118.025 103.351 113.154C102.582 111.605 101.706 110.117 100.732 108.702ZM40.6961 149.996C39.719 148.584 38.8394 147.1 38.0668 145.554C35.623 140.663 34.25 135.146 34.25 129.312C34.25 109.199 50.574 92.875 70.6875 92.875C76.5215 92.875 82.038 94.248 86.929 96.6918C88.4754 97.4644 89.9592 98.344 91.3708 99.3211L40.6961 149.996ZM107.185 92.875V63.0228C107.185 46.5795 120.514 33.25 136.957 33.25H136.977C153.421 33.25 166.75 46.5795 166.75 63.0228V92.875H107.185Z" fill="white"/>
</svg>
