<svg width="200" height="200" viewBox="0 0 200 200" xmlns="http://www.w3.org/2000/svg">
<path fill-rule="evenodd" clip-rule="evenodd" d="M157.03 143.576L157.101 143.688L157.178 143.796C157.18 143.799 157.185 143.806 157.194 143.82C157.203 143.833 157.216 143.853 157.233 143.88C165.683 157.192 169.743 164.349 169.743 172.098C169.743 179.278 167.158 184.838 162.832 188.657C158.443 192.533 151.815 195 143.145 195H56.8609C48.1866 195 41.5556 192.535 37.1651 188.663C32.8387 184.847 30.2548 179.295 30.2548 172.126C30.2548 164.456 34.3046 157.288 42.7373 143.955L42.7645 143.912L42.7907 143.869C43.3009 143.025 47.3839 136.313 53.0578 128.269C58.785 120.15 65.9063 111.002 72.4824 105.075C82.3712 96.1754 96.2279 95.8349 97.7736 95.8349H101.898L102.097 95.8191C102.117 95.8175 102.155 95.8154 102.214 95.8148C102.937 95.8158 106.993 95.883 112.068 97.1211C117.209 98.3756 123.033 100.743 127.578 105.107C140.039 117.122 154.9 140.221 157.03 143.576ZM74.5652 107.389L74.563 107.39C67.7112 113.565 60.4244 123.162 54.9685 130.973C49.58 138.688 45.72 145.04 45.4387 145.504L45.404 145.56C41.5951 151.581 38.6359 156.4 36.6412 160.451C34.6414 164.512 33.3665 168.268 33.3665 172.126C33.3665 176.113 34.2742 179.558 35.9999 182.428C37.7208 185.29 40.0896 187.305 42.5988 188.697C47.4664 191.396 53.1083 191.888 56.8609 191.888H143.145C147.706 191.888 153.422 191.223 158.149 188.349C163.277 185.23 166.631 179.872 166.632 172.097C166.632 168.479 165.591 165.036 163.673 161.036C161.786 157.101 158.874 152.278 154.812 145.87L154.732 145.743L154.644 145.621L154.636 145.61L154.626 145.595C154.619 145.585 154.611 145.573 154.602 145.559L154.596 145.549C154.452 145.321 138.402 119.864 125.426 107.352L125.418 107.344C121.3 103.39 116.053 101.367 111.886 100.298C107.656 99.2127 104.051 98.9884 102.78 98.9405L102.545 98.9317L102.31 98.9449C102.28 98.9467 102.25 98.9475 102.219 98.9475H97.7601L97.7413 98.9476C97.462 98.9497 94.0571 99.0002 89.6098 100.019C85.217 101.026 79.3525 103.079 74.5652 107.389ZM89.7421 37.465V37.4653C89.7421 47.0984 87.0783 55.4239 83.0089 61.2028C78.9477 66.9701 73.7348 69.9384 68.3536 69.9384C62.9734 69.9384 57.7609 66.9704 53.6998 61.2032C49.6306 55.4244 46.9668 47.0988 46.9668 37.4653C46.9668 27.8345 49.6305 19.511 53.6996 13.7336C57.7605 7.96769 62.973 5 68.3536 5C73.7353 5 78.9485 7.96794 83.0096 13.7337C87.0789 19.5111 89.7425 27.8345 89.7421 37.465ZM50.0776 37.465V37.4653C50.0776 45.4176 52.0093 52.4079 55.0546 57.5701C57.9343 62.4517 62.5749 66.8267 68.3536 66.8267C74.1322 66.8267 78.773 62.4519 81.653 57.5703C84.6985 52.408 86.6305 45.4177 86.6305 37.4653C86.6305 29.5149 84.6986 22.5262 81.653 17.3653C78.7726 12.4844 74.1317 8.11166 68.3536 8.11166C62.5757 8.11166 57.9352 12.4848 55.0552 17.3654C52.0099 22.5263 50.0781 29.5147 50.0776 37.465ZM14.6468 95.7933L14.6503 95.801C16.9196 100.708 19.9747 104.608 23.208 107.336C26.3023 109.947 30.0761 111.9 33.7946 111.901H33.7957C35.1253 111.901 36.4524 111.651 37.7332 111.064L37.7463 111.058L37.7593 111.052C38.4686 110.722 39.1042 110.314 39.6721 109.851L39.6721 109.851C41.0065 108.763 41.9673 107.372 42.6331 105.987C43.5911 103.994 44.1009 101.702 44.2675 99.359C44.5013 96.0703 44.0845 92.3516 42.944 88.5318L43.9016 82.2924C47.2362 89.5251 48.0701 96.6851 46.9804 102.398C45.8947 108.09 43.0076 112.039 39.0535 113.882C37.4151 114.632 35.6678 115.012 33.7966 115.012H33.7953H33.7948C26.3497 115.011 17.1067 108.526 11.8234 97.1008C8.48672 89.853 7.65512 82.6852 8.74834 76.9711C9.83799 71.2757 12.7315 67.3309 16.6931 65.4958C18.3122 64.7512 20.0629 64.3678 21.941 64.3678C29.3773 64.3678 38.6164 70.8543 43.9012 82.2915L42.9437 88.5308C42.4556 86.8959 41.8348 85.2424 41.0757 83.5962L41.0741 83.5927C38.8053 78.6824 35.7531 74.7792 32.5226 72.0487C29.4315 69.4361 25.6595 67.4795 21.9401 67.4795C20.615 67.4795 19.2866 67.728 18.0015 68.3192L17.9925 68.3234C15.6127 69.424 14.0572 71.4072 13.1023 73.3849C12.1393 75.3795 11.6269 77.673 11.4587 80.0183C11.1217 84.7183 12.1152 90.2953 14.6468 95.7933ZM42.9437 88.5308L42.944 88.5318L39.6721 109.851L42.9437 88.5308ZM153.014 37.4653C153.014 47.0986 150.351 55.4244 146.282 61.2033C142.222 66.9709 137.011 69.9384 131.633 69.9384C126.246 69.9384 121.029 66.9688 116.966 61.202C112.894 55.4233 110.229 47.0982 110.229 37.4653C110.229 27.8352 112.894 19.5121 116.966 13.7348C121.029 7.96927 126.246 5 131.633 5C137.012 5 142.222 7.96714 146.283 13.7331C150.351 19.5106 153.014 27.8343 153.014 37.4653ZM149.902 37.4653C149.902 29.5154 147.972 22.5272 144.928 17.3664C142.05 12.4863 137.411 8.11166 131.633 8.11166C125.855 8.11166 121.209 12.4806 118.325 17.363C115.275 22.5243 113.341 29.5137 113.341 37.4653C113.341 45.4187 115.275 52.4098 118.324 57.5725C121.209 62.4558 125.854 66.8267 131.633 66.8267C137.412 66.8267 142.051 62.4501 144.928 57.569C147.972 52.4069 149.902 45.417 149.902 37.4653ZM183.301 65.4949L183.302 65.4953C187.268 67.3309 190.163 71.2778 191.252 76.9741C192.345 82.6877 191.511 89.8535 188.171 97.0958C182.893 108.527 173.652 115.013 166.205 115.013C164.329 115.013 162.58 114.631 160.976 113.896C156.986 112.038 154.089 108.076 153.003 102.389C151.911 96.677 152.752 89.5197 156.102 82.2906L156.104 82.2869C161.394 70.8475 170.631 64.3609 178.05 64.3609C179.936 64.3609 181.69 64.7488 183.301 65.4949ZM185.346 95.7917L185.347 95.7899C187.881 90.295 188.876 84.7184 188.537 80.0163C188.368 77.6698 187.853 75.3751 186.887 73.3792C185.929 71.3992 184.371 69.4191 181.994 68.3177L181.993 68.3174C180.706 67.7212 179.375 67.4716 178.05 67.4716C174.331 67.4716 170.562 69.4331 167.475 72.0467C164.248 74.7788 161.198 78.6837 158.926 83.5958C156.383 89.0857 155.383 94.6603 155.722 99.3638C156.029 103.618 157.642 108.916 162.269 111.065L162.281 111.071L162.293 111.076C163.567 111.66 164.9 111.9 166.205 111.9C169.925 111.9 173.698 109.947 176.793 107.335C180.025 104.605 183.079 100.702 185.346 95.7917Z"/>
</svg>
