<svg width="21" height="21" viewBox="0 0 21 21" fill="none" xmlns="http://www.w3.org/2000/svg">
<path d="M17.1097 14.4724C17.1097 16.1582 15.7398 17.5281 14.0541 17.5281H6.68354C4.9978 17.5281 3.62788 16.1582 3.62788 14.4724V7.10396C3.62788 5.41821 4.9978 4.04829 6.68354 4.04829H9.34546V3.17261H6.68354C4.51587 3.17261 2.7522 4.93628 2.7522 7.10396V14.4724C2.7522 16.6401 4.51587 18.4038 6.68354 18.4038H14.052C16.2197 18.4038 17.9833 16.6401 17.9833 14.4724V11.8105H17.1077V14.4724H17.1097Z" fill="#5DB075"/>
<path d="M18.2458 3.35098C17.7762 2.88135 17.1589 2.64551 16.5416 2.64551C15.9243 2.64551 15.3091 2.88135 14.8374 3.35098L6.39843 11.7899C6.05185 12.1365 5.82627 12.5856 5.75859 13.0717L5.36894 15.7951C5.33613 16.0289 5.51865 16.2319 5.74629 16.2319C5.76474 16.2319 5.7832 16.2299 5.80166 16.2278L8.52509 15.8382C9.01113 15.7685 9.46025 15.5449 9.80683 15.1983L18.2458 6.75938C19.1871 5.81807 19.1871 4.29229 18.2458 3.35098ZM7.42382 12.0032L14.5667 4.86035L16.7344 7.03008L9.59355 14.1729L7.42382 12.0032ZM8.40205 14.9707L6.32871 15.266L6.62402 13.1927C6.65273 12.9979 6.72246 12.8092 6.82705 12.6451L8.94755 14.7656C8.78349 14.8723 8.59687 14.944 8.40205 14.9707ZM17.6265 6.13799L17.3537 6.41074L15.186 4.24102L15.4588 3.96826C15.7479 3.6791 16.1335 3.51914 16.5436 3.51914C16.9538 3.51914 17.3394 3.6791 17.6285 3.96826C18.2253 4.56709 18.2253 5.54121 17.6265 6.13799Z" fill="#5DB075"/>
</svg>
