<?xml version="1.0" encoding="utf-8"?>
<!-- Svg Vector Icons : http://www.onlinewebfonts.com/icon -->
<!DOCTYPE svg PUBLIC "-//W3C//DTD SVG 1.1//EN" "http://www.w3.org/Graphics/SVG/1.1/DTD/svg11.dtd">
<svg version="1.1" xmlns="http://www.w3.org/2000/svg" xmlns:xlink="http://www.w3.org/1999/xlink" x="0px" y="0px" viewBox="0 0 256 256" enable-background="new 0 0 256 256" xml:space="preserve">
<metadata> Svg Vector Icons : http://www.onlinewebfonts.com/icon </metadata>
<g><g><g><path fill="#000000" d="M10.1,106.7l0.1,68.1l30.6,0.1c33.1,0.1,32.4,0.2,33.7-2.5c0.5-1.1,0.5-1.6,0.1-2.8c-0.3-0.8-0.9-1.6-1.2-1.8c-0.3-0.2-12.9-0.4-28-0.6L18,167.1l-0.1-60.4l-0.1-60.3H128h110.2v31v31.1l1.3,1c2.2,1.7,4.7,1.2,5.9-1.3c0.4-0.8,0.6-10.2,0.6-35.3V38.6H128H10L10.1,106.7z"/><path fill="#000000" d="M51.5,61.1c0.2,0.6,0.5,2.9,0.6,5c0.5,6.6-1.7,11-6.8,13.6c-2.7,1.4-6.9,1.7-11.6,1l-2.3-0.4v26.3v26.3l2.3-0.4c4.7-0.8,8.4-0.5,11.4,1c6.3,3.1,8.3,8.9,6.4,18.6l-0.3,1.6h10.1c11,0,12.1-0.2,13.2-2.6c0.5-1.1,0.5-1.6,0.1-2.8c-0.3-0.8-0.9-1.6-1.2-1.8c-0.3-0.2-3.4-0.4-6.8-0.6l-6.3-0.2l-0.1-1.7c-0.2-3.2-2.1-7.8-4.3-10.7c-3.4-4.6-8.3-7.7-13.9-8.8l-2.8-0.6v-17.3V89.2l2.4-0.3c8.6-1.2,17.4-10.1,18.3-18.5l0.3-2.6h67.6h67.7v1.4c0,4.4,3.9,11.7,8.1,15c2.8,2.2,7.6,4.4,10.6,4.8l2.6,0.3v9.6v9.7l1.3,1c1.5,1.1,3.4,1.3,4.6,0.4c1.7-1.4,1.9-2.5,1.9-16.1V80.3l-2.3,0.4c-1.3,0.2-4,0.4-6,0.4c-8.5-0.1-13.6-6-12.9-14.8c0.1-2,0.4-4.3,0.6-5l0.3-1.3h-76.6H51.2L51.5,61.1z"/><path fill="#000000" d="M122.4,74.9c-17.6,3.9-29.2,20.3-26.3,37.1c2.3,13.1,13.4,24.2,26.5,26.5c14.7,2.6,29.3-6,35.3-20.6c3.3-8.2,2.7-17.7-1.6-26c-1.3-2.4-3.2-4.8-6-7.6c-4.8-4.8-9-7.2-14.9-8.7C132,74.6,125.1,74.3,122.4,74.9z M134.6,83.1c11.2,3,18.3,13,17.6,25.2c-0.4,7.5-3.6,13.9-9.1,18c-12.4,9.3-30.6,5.1-37.1-8.5c-6.8-14.3,0.5-30.6,15.4-34.6C124.7,82.2,131,82.2,134.6,83.1z"/><path fill="#000000" d="M172.4,118.1c-1.8,0.3-5,3.4-5.6,5.4c-0.3,1.1-0.4,4.9-0.3,9.9c0.1,8,0.1,8.1,1.5,9.8c2.6,3.4,0.5,3.3,38.1,3.3H240l1.7-1.1c0.9-0.6,2.1-1.8,2.7-2.7c1.1-1.6,1.1-2.1,1.1-10.1c0-6.3-0.2-8.8-0.7-9.8c-1-2-3.3-3.9-5.2-4.5C238,117.8,174.7,117.7,172.4,118.1z M237.7,132.1v6.6h-31.8h-31.8v-6.2c0-3.4,0.1-6.4,0.3-6.6c0.1-0.2,14.5-0.3,31.8-0.3h31.5V132.1z"/><path fill="#000000" d="M85.9,154.2c-4.3,1.9-5.2,4.7-5,14.8c0.1,6.7,0.2,7.5,1.3,9.1c0.6,1,1.9,2.3,2.9,2.9l1.8,1.1h33.7h33.8l1.8-1.1c1-0.6,2.3-1.9,2.9-2.9c1.1-1.7,1.1-2.3,1.1-10.3c0-8,0-8.6-1.1-10.3c-0.6-1-1.9-2.3-2.9-2.9l-1.8-1.1l-33.3-0.1C89.6,153.2,87.8,153.3,85.9,154.2z M152.7,167.7l0.1,6.5h-32.1h-32v-6.2c0-3.4,0.1-6.4,0.3-6.6c0.1-0.2,14.5-0.3,31.9-0.2l31.6,0.1L152.7,167.7z"/><path fill="#000000" d="M171,154.7c-2.4,1.4-4,3.7-4.4,6.1c-0.2,1.2-0.2,5.1-0.1,8.8c0.2,7.6,0.6,8.9,3.6,11.2l1.7,1.4h34.3h34.3l1.7-1.4c3.1-2.3,3.4-3.5,3.6-11.8c0.2-8.7-0.1-10.5-2.8-13.1l-2-1.9l-34.3-0.1C174,153.7,172.4,153.8,171,154.7z M238.1,167.9l-0.1,6.5h-31.8h-31.8l-0.1-6.5l-0.1-6.4h32.1h32.1L238.1,167.9z"/><path fill="#000000" d="M85.5,189.6c-2.1,1.3-3.6,3.1-4.1,5c-0.3,0.9-0.5,4.8-0.5,8.7c0,5.8,0.2,7.4,0.9,9c1,2.2,2.6,3.8,4.6,4.6c0.9,0.4,12.2,0.5,34.4,0.5c36.1,0,35,0.1,37.5-2.9c1.8-2.2,2.3-4.4,2.3-11.5c0-7.5-0.4-9.6-2.3-11.5c-2.8-3-1-2.8-37.6-2.8C88.6,188.7,86.9,188.7,85.5,189.6z M152.7,202.9l-0.1,6.5h-31.8H88.9l-0.1-6.5l-0.1-6.4h32.1h32.1L152.7,202.9z"/><path fill="#000000" d="M171.3,189.5c-2.1,1-3.8,3.2-4.5,5.4c-0.6,2.3-0.6,14.4,0,16.6c0.5,1.9,2.5,4.2,4.5,5.2c1.1,0.6,6.9,0.7,34.9,0.7c37,0,34.9,0.2,37.8-3.1c1.9-2.1,2.2-4.1,1.9-12.7c-0.2-7.6-0.6-8.9-3.6-11.2l-1.7-1.4l-33.8-0.1C176.3,188.7,172.8,188.8,171.3,189.5z M238.1,203.1l0.1,6.5h-32.1h-32v-6.2c0-3.4,0.1-6.4,0.3-6.6c0.1-0.2,14.5-0.3,31.9-0.2l31.6,0.1L238.1,203.1z"/></g></g></g>
</svg>